<?xml version="1.0" encoding="utf-8"?>
<!-- Generator: Adobe Illustrator 21.0.0, SVG Export Plug-In . SVG Version: 6.00 Build 0)  -->
<svg version="1.1" id="Layer_1" xmlns="http://www.w3.org/2000/svg" xmlns:xlink="http://www.w3.org/1999/xlink" x="0px" y="0px"
	 viewBox="0 0 257 194" style="enable-background:new 0 0 257 194;" xml:space="preserve">
<style type="text/css">
	.st0{opacity:0.85;fill:#CAD2D3;}
	.st1{opacity:0.9;}
	.st2{fill:#C51B11;}
	.st3{fill:#231F20;}
	.st4{fill:#CB3229;}
	.st5{fill:#D14941;}
	.st6{fill:#D7615A;}
	.st7{fill:#DD7872;}
	.st8{fill:#E4908B;}
	.st9{fill:#EAA7A3;}
	.st10{fill:#F0BFBC;}
	.st11{fill:#F6D6D4;}
	.st12{fill:#FDEEED;}
	.st13{fill:#3E3A39;}
</style>
<path class="st0" d="M249.3,194H7.8c-4.3,0-7.8-3.5-7.8-7.8V7.8C0,3.5,3.5,0,7.8,0h241.5c4.3,0,7.8,3.5,7.8,7.8v178.5
	C257,190.5,253.5,194,249.3,194z"/>
<g class="st1">
	<circle class="st2" cx="112.5" cy="118.3" r="59.5"/>
	<path class="st3" d="M112.5,178.2c-33,0-59.8-26.8-59.8-59.8s26.8-59.8,59.8-59.8c33,0,59.8,26.8,59.8,59.8
		S145.5,178.2,112.5,178.2z M112.5,59.3c-32.6,0-59.1,26.5-59.1,59.1s26.5,59.1,59.1,59.1c32.6,0,59.1-26.5,59.1-59.1
		S145.1,59.3,112.5,59.3z"/>
</g>
<g class="st1">
	<circle class="st4" cx="112.5" cy="120.8" r="57"/>
	<path class="st3" d="M112.5,178.2c-31.6,0-57.4-25.7-57.4-57.4s25.7-57.4,57.4-57.4s57.4,25.7,57.4,57.4S144.1,178.2,112.5,178.2z
		 M112.5,64.2c-31.2,0-56.6,25.4-56.6,56.6s25.4,56.6,56.6,56.6s56.6-25.4,56.6-56.6S143.7,64.2,112.5,64.2z"/>
</g>
<g class="st1">
	<circle class="st5" cx="112.5" cy="123.4" r="54.4"/>
	<path class="st3" d="M112.5,178.2c-30.2,0-54.8-24.6-54.8-54.8s24.6-54.8,54.8-54.8s54.8,24.6,54.8,54.8S142.7,178.2,112.5,178.2z
		 M112.5,69.4c-29.8,0-54,24.2-54,54s24.2,54,54,54s54-24.2,54-54S142.3,69.4,112.5,69.4z"/>
</g>
<g class="st1">
	<circle class="st6" cx="112.5" cy="126.1" r="51.7"/>
	<path class="st3" d="M112.5,178.2c-28.7,0-52.1-23.4-52.1-52.1c0-28.7,23.4-52.1,52.1-52.1c28.7,0,52.1,23.4,52.1,52.1
		C164.6,154.8,141.2,178.2,112.5,178.2z M112.5,74.8c-28.3,0-51.3,23-51.3,51.3s23,51.3,51.3,51.3s51.3-23,51.3-51.3
		S140.8,74.8,112.5,74.8z"/>
</g>
<g class="st1">
	<circle class="st7" cx="112.5" cy="128.9" r="48.8"/>
	<path class="st3" d="M112.5,178.2c-27.1,0-49.2-22.1-49.2-49.2s22.1-49.2,49.2-49.2s49.2,22.1,49.2,49.2S139.6,178.2,112.5,178.2z
		 M112.5,80.5c-26.7,0-48.5,21.7-48.5,48.5c0,26.7,21.7,48.5,48.5,48.5s48.5-21.7,48.5-48.5C161,102.2,139.2,80.5,112.5,80.5z"/>
</g>
<g class="st1">
	<circle class="st8" cx="112.5" cy="131.9" r="45.8"/>
	<path class="st3" d="M112.5,178.2c-25.5,0-46.2-20.7-46.2-46.2c0-25.5,20.7-46.2,46.2-46.2s46.2,20.7,46.2,46.2
		C158.7,157.4,138,178.2,112.5,178.2z M112.5,86.5c-25.1,0-45.5,20.4-45.5,45.5c0,25.1,20.4,45.5,45.5,45.5S158,157,158,131.9
		C158,106.9,137.6,86.5,112.5,86.5z"/>
</g>
<g class="st1">
	<circle class="st9" cx="112.5" cy="135.2" r="42.6"/>
	<path class="st3" d="M112.5,178.2c-23.7,0-43-19.3-43-43s19.3-43,43-43s43,19.3,43,43S136.2,178.2,112.5,178.2z M112.5,93
		c-23.3,0-42.2,18.9-42.2,42.2s18.9,42.2,42.2,42.2s42.2-18.9,42.2-42.2S135.8,93,112.5,93z"/>
</g>
<g class="st1">
	<circle class="st10" cx="112.5" cy="138.7" r="39.1"/>
	<path class="st3" d="M112.5,178.2c-21.8,0-39.5-17.7-39.5-39.5s17.7-39.5,39.5-39.5s39.5,17.7,39.5,39.5S134.2,178.2,112.5,178.2z
		 M112.5,100c-21.4,0-38.7,17.4-38.7,38.7s17.4,38.7,38.7,38.7s38.7-17.4,38.7-38.7S133.8,100,112.5,100z"/>
</g>
<g class="st1">
	<circle class="st11" cx="112.5" cy="142.5" r="35.3"/>
	<path class="st3" d="M112.5,178.2c-19.6,0-35.6-16-35.6-35.6s16-35.6,35.6-35.6s35.6,16,35.6,35.6S132.1,178.2,112.5,178.2z
		 M112.5,107.7c-19.2,0-34.9,15.6-34.9,34.9s15.6,34.9,34.9,34.9s34.9-15.6,34.9-34.9S131.7,107.7,112.5,107.7z"/>
</g>
<g class="st1">
	<circle class="st12" cx="112.5" cy="146.9" r="30.9"/>
	<path class="st3" d="M112.5,178.2c-17.2,0-31.3-14-31.3-31.3s14-31.3,31.3-31.3s31.3,14,31.3,31.3S129.7,178.2,112.5,178.2z
		 M112.5,116.4c-16.8,0-30.5,13.7-30.5,30.5c0,16.8,13.7,30.5,30.5,30.5s30.5-13.7,30.5-30.5C143,130.1,129.3,116.4,112.5,116.4z"/>
</g>
<g>
	<path class="st13" d="M150.2,52.8c0-0.3,0-0.6-0.2-0.8s-0.5-0.4-0.9-0.6s-0.8-0.4-1.1-0.6c-0.7-0.5-1-1.2-0.9-2
		c0-0.7,0.3-1.2,0.7-1.6s1-0.7,1.7-0.8l0.2-1.3h0.9l-0.2,1.3c0.6,0.1,1,0.4,1.3,0.9s0.4,1.1,0.4,1.8h-1.4c0-0.5,0-0.9-0.2-1.2
		s-0.4-0.4-0.8-0.4c-0.4,0-0.7,0.1-0.9,0.3s-0.4,0.5-0.4,0.9c0,0.3,0,0.6,0.2,0.8s0.5,0.4,0.9,0.6s0.8,0.4,1,0.6c0.7,0.5,1,1.2,1,2
		c0,0.7-0.3,1.2-0.8,1.6s-1.1,0.7-1.8,0.7l-0.2,1.1h-0.9l0.2-1.1c-0.7-0.1-1.2-0.4-1.5-0.9s-0.5-1.1-0.5-1.8l1.4,0
		c0,0.5,0.1,0.9,0.3,1.1s0.5,0.4,0.9,0.4c0.4,0,0.8-0.1,1-0.3S150.2,53.2,150.2,52.8z"/>
	<path class="st13" d="M154.8,50.1l0.8,0c0.5,0,0.8-0.1,1.1-0.4s0.5-0.6,0.5-1c0-0.4,0-0.7-0.2-0.9s-0.5-0.3-0.8-0.3
		c-0.4,0-0.7,0.1-1,0.3s-0.4,0.5-0.5,0.9l-1.4,0c0-0.5,0.2-0.9,0.5-1.2s0.6-0.6,1-0.8s0.9-0.3,1.4-0.3c0.8,0,1.4,0.2,1.8,0.7
		s0.6,1,0.6,1.7c0,0.4-0.2,0.7-0.4,1.1s-0.6,0.6-1.1,0.8c0.7,0.3,1,0.9,1.1,1.6v0.3c-0.1,0.8-0.4,1.4-0.9,1.9s-1.3,0.7-2.1,0.7
		c-0.5,0-0.9-0.1-1.3-0.3s-0.7-0.5-0.9-0.8s-0.3-0.8-0.3-1.3l1.4,0c0,0.4,0.1,0.7,0.3,0.9s0.5,0.3,0.9,0.4c0.4,0,0.8-0.1,1.1-0.4
		s0.5-0.6,0.5-1c0-0.4,0-0.8-0.3-1s-0.5-0.3-1-0.4l-0.9,0L154.8,50.1z"/>
	<path class="st13" d="M165.9,47.4l-4.5,7.7h-1.5l4.5-7.4h-4.3l0.2-1.1h5.7L165.9,47.4z"/>
	<path class="st13" d="M168.6,55.2c-0.7,0-1.3-0.3-1.7-0.8s-0.6-1.2-0.6-2.1c0-0.3,0-0.6,0.1-0.9l0.2-1.5c0.2-1.2,0.6-2.1,1.1-2.7
		s1.3-0.9,2.1-0.9c0.7,0,1.3,0.3,1.7,0.8s0.6,1.2,0.6,2.1c0,0.3,0,0.6-0.1,0.9l-0.2,1.5c-0.2,1.2-0.6,2.1-1.1,2.7
		S169.4,55.2,168.6,55.2z M170.7,49.9c0.1-0.4,0.1-0.8,0.1-0.9c0-0.9-0.3-1.3-1-1.4c-0.5,0-0.9,0.2-1.1,0.5s-0.5,1-0.6,1.8l-0.3,1.9
		c0,0.4-0.1,0.7-0.1,1c0,0.9,0.3,1.4,1,1.4c0.9,0.1,1.5-0.6,1.7-2.1L170.7,49.9z"/>
	<path class="st13" d="M175.2,55.2c-0.7,0-1.3-0.3-1.7-0.8s-0.6-1.2-0.6-2.1c0-0.3,0-0.6,0.1-0.9l0.2-1.5c0.2-1.2,0.6-2.1,1.1-2.7
		s1.3-0.9,2.1-0.9c0.7,0,1.3,0.3,1.7,0.8s0.6,1.2,0.6,2.1c0,0.3,0,0.6-0.1,0.9l-0.2,1.5c-0.2,1.2-0.6,2.1-1.1,2.7
		S176.1,55.2,175.2,55.2z M177.3,49.9c0.1-0.4,0.1-0.8,0.1-0.9c0-0.9-0.3-1.3-1-1.4c-0.5,0-0.9,0.2-1.1,0.5s-0.5,1-0.6,1.8l-0.3,1.9
		c0,0.4-0.1,0.7-0.1,1c0,0.9,0.3,1.4,1,1.4c0.9,0.1,1.5-0.6,1.7-2.1L177.3,49.9z"/>
</g>
<g>
	<path class="st13" d="M164.8,64.3c0-0.3,0-0.6-0.2-0.8s-0.5-0.4-0.9-0.6s-0.8-0.4-1.1-0.6c-0.7-0.5-1-1.2-0.9-2
		c0-0.7,0.3-1.2,0.7-1.6s1-0.7,1.7-0.8l0.2-1.3h0.9l-0.2,1.3c0.6,0.1,1,0.4,1.3,0.9s0.4,1.1,0.4,1.8h-1.4c0-0.5,0-0.9-0.2-1.2
		s-0.4-0.4-0.8-0.4c-0.4,0-0.7,0.1-0.9,0.3s-0.4,0.5-0.4,0.9c0,0.3,0,0.6,0.2,0.8s0.5,0.4,0.9,0.6s0.8,0.4,1,0.6c0.7,0.5,1,1.2,1,2
		c0,0.7-0.3,1.2-0.8,1.6s-1.1,0.7-1.8,0.7l-0.2,1.1h-0.9l0.2-1.1c-0.7-0.1-1.2-0.4-1.5-0.9s-0.5-1.1-0.5-1.8l1.4,0
		c0,0.5,0.1,0.9,0.3,1.1s0.5,0.4,0.9,0.4c0.4,0,0.8-0.1,1-0.3S164.8,64.7,164.8,64.3z"/>
	<path class="st13" d="M169.4,61.6l0.8,0c0.5,0,0.8-0.1,1.1-0.4s0.5-0.6,0.5-1c0-0.4,0-0.7-0.2-0.9s-0.5-0.3-0.8-0.3
		c-0.4,0-0.7,0.1-1,0.3s-0.4,0.5-0.5,0.9l-1.4,0c0-0.5,0.2-0.9,0.5-1.2s0.6-0.6,1-0.8s0.9-0.3,1.4-0.3c0.8,0,1.4,0.2,1.8,0.7
		s0.6,1,0.6,1.7c0,0.4-0.2,0.7-0.4,1.1s-0.6,0.6-1.1,0.8c0.7,0.3,1,0.9,1.1,1.6v0.3c-0.1,0.8-0.4,1.4-0.9,1.9s-1.3,0.7-2.1,0.7
		c-0.5,0-0.9-0.1-1.3-0.3s-0.7-0.5-0.9-0.8s-0.3-0.8-0.3-1.3l1.4,0c0,0.4,0.1,0.7,0.3,0.9s0.5,0.3,0.9,0.4c0.4,0,0.8-0.1,1.1-0.4
		s0.5-0.6,0.5-1c0-0.4,0-0.8-0.3-1s-0.5-0.3-1-0.4l-0.9,0L169.4,61.6z"/>
	<path class="st13" d="M178.9,63.5h1l-0.2,1.1h-1l-0.3,1.9H177l0.3-1.9h-3.6l0.1-0.9l4.5-5.7h1.5L178.9,63.5z M175.4,63.5h2.1
		l0.7-3.6l-0.1,0.2L175.4,63.5z"/>
	<path class="st13" d="M183.2,66.7c-0.7,0-1.3-0.3-1.7-0.8s-0.6-1.2-0.6-2.1c0-0.3,0-0.6,0.1-0.9l0.2-1.5c0.2-1.2,0.6-2.1,1.1-2.7
		s1.3-0.9,2.1-0.9c0.7,0,1.3,0.3,1.7,0.8s0.6,1.2,0.6,2.1c0,0.3,0,0.6-0.1,0.9l-0.2,1.5c-0.2,1.2-0.6,2.1-1.1,2.7
		S184,66.7,183.2,66.7z M185.3,61.4c0.1-0.4,0.1-0.8,0.1-0.9c0-0.9-0.3-1.3-1-1.4c-0.5,0-0.9,0.2-1.1,0.5s-0.5,1-0.6,1.8l-0.3,1.9
		c0,0.4-0.1,0.7-0.1,1c0,0.9,0.3,1.4,1,1.4c0.9,0.1,1.5-0.6,1.7-2.1L185.3,61.4z"/>
	<path class="st13" d="M189.8,66.7c-0.7,0-1.3-0.3-1.7-0.8s-0.6-1.2-0.6-2.1c0-0.3,0-0.6,0.1-0.9l0.2-1.5c0.2-1.2,0.6-2.1,1.1-2.7
		s1.3-0.9,2.1-0.9c0.7,0,1.3,0.3,1.7,0.8s0.6,1.2,0.6,2.1c0,0.3,0,0.6-0.1,0.9l-0.2,1.5c-0.2,1.2-0.6,2.1-1.1,2.7
		S190.7,66.7,189.8,66.7z M191.9,61.4c0.1-0.4,0.1-0.8,0.1-0.9c0-0.9-0.3-1.3-1-1.4c-0.5,0-0.9,0.2-1.1,0.5s-0.5,1-0.6,1.8l-0.3,1.9
		c0,0.4-0.1,0.7-0.1,1c0,0.9,0.3,1.4,1,1.4c0.9,0.1,1.5-0.6,1.7-2.1L191.9,61.4z"/>
</g>
<g>
	<path class="st13" d="M176,76.6c0-0.3,0-0.6-0.2-0.8s-0.5-0.4-0.9-0.6s-0.8-0.4-1.1-0.6c-0.7-0.5-1-1.2-0.9-2
		c0-0.7,0.3-1.2,0.7-1.6s1-0.7,1.7-0.8l0.2-1.3h0.9l-0.2,1.3c0.6,0.1,1,0.4,1.3,0.9s0.4,1.1,0.4,1.8h-1.4c0-0.5,0-0.9-0.2-1.2
		s-0.4-0.4-0.8-0.4c-0.4,0-0.7,0.1-0.9,0.3s-0.4,0.5-0.4,0.9c0,0.3,0,0.6,0.2,0.8s0.5,0.4,0.9,0.6s0.8,0.4,1,0.6c0.7,0.5,1,1.2,1,2
		c0,0.7-0.3,1.2-0.8,1.6s-1.1,0.7-1.8,0.7l-0.2,1.1h-0.9l0.2-1.1c-0.7-0.1-1.2-0.4-1.5-0.9s-0.5-1.1-0.5-1.8l1.4,0
		c0,0.5,0.1,0.9,0.3,1.1s0.5,0.4,0.9,0.4c0.4,0,0.8-0.1,1-0.3S175.9,77,176,76.6z"/>
	<path class="st13" d="M180.6,73.9l0.8,0c0.5,0,0.8-0.1,1.1-0.4s0.5-0.6,0.5-1c0-0.4,0-0.7-0.2-0.9s-0.5-0.3-0.8-0.3
		c-0.4,0-0.7,0.1-1,0.3s-0.4,0.5-0.5,0.9l-1.4,0c0-0.5,0.2-0.9,0.5-1.2s0.6-0.6,1-0.8s0.9-0.3,1.4-0.3c0.8,0,1.4,0.2,1.8,0.7
		s0.6,1,0.6,1.7c0,0.4-0.2,0.7-0.4,1.1s-0.6,0.6-1.1,0.8c0.7,0.3,1,0.9,1.1,1.6v0.3c-0.1,0.8-0.4,1.4-0.9,1.9s-1.3,0.7-2.1,0.7
		c-0.5,0-0.9-0.1-1.3-0.3s-0.7-0.5-0.9-0.8s-0.3-0.8-0.3-1.3l1.4,0c0,0.4,0.1,0.7,0.3,0.9s0.5,0.3,0.9,0.4c0.4,0,0.8-0.1,1.1-0.4
		s0.5-0.6,0.5-1c0-0.4,0-0.8-0.3-1s-0.5-0.3-1-0.4l-0.9,0L180.6,73.9z"/>
	<path class="st13" d="M188.6,78.8h-1.4l1.2-6.8l-2.2,0.7l0.2-1.3l3.4-1.2h0.2L188.6,78.8z"/>
	<path class="st13" d="M194.3,79c-0.7,0-1.3-0.3-1.7-0.8s-0.6-1.2-0.6-2.1c0-0.3,0-0.6,0.1-0.9l0.2-1.5c0.2-1.2,0.6-2.1,1.1-2.7
		s1.3-0.9,2.1-0.9c0.7,0,1.3,0.3,1.7,0.8s0.6,1.2,0.6,2.1c0,0.3,0,0.6-0.1,0.9l-0.2,1.5c-0.2,1.2-0.6,2.1-1.1,2.7S195.2,79,194.3,79
		z M196.4,73.7c0.1-0.4,0.1-0.8,0.1-0.9c0-0.9-0.3-1.3-1-1.4c-0.5,0-0.9,0.2-1.1,0.5s-0.5,1-0.6,1.8l-0.3,1.9c0,0.4-0.1,0.7-0.1,1
		c0,0.9,0.3,1.4,1,1.4c0.9,0.1,1.5-0.6,1.7-2.1L196.4,73.7z"/>
	<path class="st13" d="M201,79c-0.7,0-1.3-0.3-1.7-0.8s-0.6-1.2-0.6-2.1c0-0.3,0-0.6,0.1-0.9l0.2-1.5c0.2-1.2,0.6-2.1,1.1-2.7
		s1.3-0.9,2.1-0.9c0.7,0,1.3,0.3,1.7,0.8s0.6,1.2,0.6,2.1c0,0.3,0,0.6-0.1,0.9l-0.2,1.5c-0.2,1.2-0.6,2.1-1.1,2.7S201.9,79,201,79z
		 M203.1,73.7c0.1-0.4,0.1-0.8,0.1-0.9c0-0.9-0.3-1.3-1-1.4c-0.5,0-0.9,0.2-1.1,0.5s-0.5,1-0.6,1.8l-0.3,1.9c0,0.4-0.1,0.7-0.1,1
		c0,0.9,0.3,1.4,1,1.4c0.9,0.1,1.5-0.6,1.7-2.1L203.1,73.7z"/>
</g>
<g>
	<path class="st13" d="M183,89.1c0-0.3,0-0.6-0.2-0.8s-0.5-0.4-0.9-0.6s-0.8-0.4-1.1-0.6c-0.7-0.5-1-1.2-0.9-2
		c0-0.7,0.3-1.2,0.7-1.6s1-0.7,1.7-0.8l0.2-1.3h0.9l-0.2,1.3c0.6,0.1,1,0.4,1.3,0.9s0.4,1.1,0.4,1.8h-1.4c0-0.5,0-0.9-0.2-1.2
		s-0.4-0.4-0.8-0.4c-0.4,0-0.7,0.1-0.9,0.3s-0.4,0.5-0.4,0.9c0,0.3,0,0.6,0.2,0.8s0.5,0.4,0.9,0.6s0.8,0.4,1,0.6c0.7,0.5,1,1.2,1,2
		c0,0.7-0.3,1.2-0.8,1.6s-1.1,0.7-1.8,0.7l-0.2,1.1h-0.9l0.2-1.1c-0.7-0.1-1.2-0.4-1.5-0.9s-0.5-1.1-0.5-1.8l1.4,0
		c0,0.5,0.1,0.9,0.3,1.1s0.5,0.4,0.9,0.4c0.4,0,0.8-0.1,1-0.3S182.9,89.5,183,89.1z"/>
	<path class="st13" d="M190.8,91.4h-5.6l0.2-1l3.5-3.4c0.7-0.6,1-1.2,1.1-1.8c0.1-0.4,0-0.7-0.2-0.9s-0.4-0.4-0.8-0.4
		c-0.4,0-0.8,0.1-1.1,0.4s-0.5,0.7-0.5,1.2l-1.4,0c0-0.5,0.2-1,0.5-1.4s0.7-0.7,1.1-1s1-0.3,1.5-0.3c0.7,0,1.3,0.2,1.8,0.6
		s0.6,1,0.6,1.7c-0.1,0.8-0.5,1.6-1.4,2.5l-0.4,0.4l-2.5,2.3h3.8L190.8,91.4z"/>
	<path class="st13" d="M198.2,85.1c-0.1,0.8-0.6,1.5-1.5,2c0.3,0.2,0.6,0.5,0.8,0.8s0.2,0.7,0.2,1.1c-0.1,0.8-0.4,1.4-0.9,1.8
		s-1.3,0.7-2.1,0.7c-0.8,0-1.4-0.2-1.8-0.7s-0.6-1-0.6-1.7c0.1-0.9,0.6-1.7,1.7-2.2c-0.3-0.2-0.5-0.5-0.7-0.8s-0.2-0.7-0.2-1
		c0.1-0.7,0.3-1.3,0.9-1.8s1.2-0.7,2-0.6c0.5,0,0.9,0.1,1.2,0.3s0.6,0.5,0.8,0.8S198.2,84.6,198.2,85.1z M196.3,89
		c0-0.4,0-0.7-0.2-1s-0.5-0.4-0.8-0.4c-0.4,0-0.8,0.1-1.1,0.4s-0.5,0.6-0.5,1.1c0,0.4,0,0.7,0.2,1s0.5,0.4,0.8,0.4
		c0.4,0,0.8-0.1,1.1-0.4S196.2,89.4,196.3,89z M196.8,85.1c0-0.4,0-0.6-0.2-0.9s-0.4-0.3-0.7-0.4c-0.4,0-0.7,0.1-0.9,0.4
		s-0.4,0.6-0.4,1c0,0.4,0,0.7,0.2,0.9s0.4,0.3,0.7,0.3c0.4,0,0.7-0.1,0.9-0.4S196.7,85.5,196.8,85.1z"/>
	<path class="st13" d="M201.3,91.5c-0.7,0-1.3-0.3-1.7-0.8s-0.6-1.2-0.6-2.1c0-0.3,0-0.6,0.1-0.9l0.2-1.5c0.2-1.2,0.6-2.1,1.1-2.7
		s1.3-0.9,2.1-0.9c0.7,0,1.3,0.3,1.7,0.8s0.6,1.2,0.6,2.1c0,0.3,0,0.6-0.1,0.9l-0.2,1.5c-0.2,1.2-0.6,2.1-1.1,2.7
		S202.2,91.5,201.3,91.5z M203.4,86.2c0.1-0.4,0.1-0.8,0.1-0.9c0-0.9-0.3-1.3-1-1.4c-0.5,0-0.9,0.2-1.1,0.5s-0.5,1-0.6,1.8l-0.3,1.9
		c0,0.4-0.1,0.7-0.1,1c0,0.9,0.3,1.4,1,1.4c0.9,0.1,1.5-0.6,1.7-2.1L203.4,86.2z"/>
	<path class="st13" d="M208,91.5c-0.7,0-1.3-0.3-1.7-0.8s-0.6-1.2-0.6-2.1c0-0.3,0-0.6,0.1-0.9l0.2-1.5c0.2-1.2,0.6-2.1,1.1-2.7
		s1.3-0.9,2.1-0.9c0.7,0,1.3,0.3,1.7,0.8s0.6,1.2,0.6,2.1c0,0.3,0,0.6-0.1,0.9l-0.2,1.5c-0.2,1.2-0.6,2.1-1.1,2.7
		S208.9,91.5,208,91.5z M210.1,86.2c0.1-0.4,0.1-0.8,0.1-0.9c0-0.9-0.3-1.3-1-1.4c-0.5,0-0.9,0.2-1.1,0.5s-0.5,1-0.6,1.8l-0.3,1.9
		c0,0.4-0.1,0.7-0.1,1c0,0.9,0.3,1.4,1,1.4c0.9,0.1,1.5-0.6,1.7-2.1L210.1,86.2z"/>
</g>
<g>
	<path class="st13" d="M187.3,101.8c0-0.3,0-0.6-0.2-0.8s-0.5-0.4-0.9-0.6s-0.8-0.4-1.1-0.6c-0.7-0.5-1-1.2-0.9-2
		c0-0.7,0.3-1.2,0.7-1.6s1-0.7,1.7-0.8l0.2-1.3h0.9l-0.2,1.3c0.6,0.1,1,0.4,1.3,0.9s0.4,1.1,0.4,1.8h-1.4c0-0.5,0-0.9-0.2-1.2
		s-0.4-0.4-0.8-0.4c-0.4,0-0.7,0.1-0.9,0.3s-0.4,0.5-0.4,0.9c0,0.3,0,0.6,0.2,0.8s0.5,0.4,0.9,0.6s0.8,0.4,1,0.6c0.7,0.5,1,1.2,1,2
		c0,0.7-0.3,1.2-0.8,1.6s-1.1,0.7-1.8,0.7l-0.2,1.1H185l0.2-1.1c-0.7-0.1-1.2-0.4-1.5-0.9s-0.5-1.1-0.5-1.8l1.4,0
		c0,0.5,0.1,0.9,0.3,1.1s0.5,0.4,0.9,0.4c0.4,0,0.8-0.1,1-0.3S187.3,102.2,187.3,101.8z"/>
	<path class="st13" d="M195.1,104.1h-5.6l0.2-1l3.5-3.4c0.7-0.6,1-1.2,1.1-1.8c0.1-0.4,0-0.7-0.2-0.9s-0.4-0.4-0.8-0.4
		c-0.4,0-0.8,0.1-1.1,0.4s-0.5,0.7-0.5,1.2l-1.4,0c0-0.5,0.2-1,0.5-1.4s0.7-0.7,1.1-1s1-0.3,1.5-0.3c0.7,0,1.3,0.2,1.8,0.6
		s0.6,1,0.6,1.7c-0.1,0.8-0.5,1.6-1.4,2.5l-0.4,0.4l-2.5,2.3h3.8L195.1,104.1z"/>
	<path class="st13" d="M197.3,99.8l1.1-4.3h4.5l-0.2,1.2h-3.3l-0.6,2c0.4-0.2,0.8-0.3,1.3-0.3c0.7,0,1.3,0.3,1.7,0.8s0.5,1.2,0.5,2
		c-0.1,0.9-0.4,1.6-1,2.1s-1.3,0.8-2.1,0.8c-0.7,0-1.3-0.2-1.7-0.7s-0.7-1-0.7-1.7h1.3c0,0.4,0.1,0.7,0.3,0.9s0.5,0.3,0.8,0.3
		c0.4,0,0.8-0.1,1.1-0.5s0.5-0.8,0.5-1.3c0-0.5,0-0.9-0.2-1.2s-0.5-0.5-0.9-0.5c-0.3,0-0.5,0-0.7,0.1s-0.4,0.2-0.6,0.4L197.3,99.8z"
		/>
	<path class="st13" d="M205.6,104.2c-0.7,0-1.3-0.3-1.7-0.8s-0.6-1.2-0.6-2.1c0-0.3,0-0.6,0.1-0.9l0.2-1.5c0.2-1.2,0.6-2.1,1.1-2.7
		s1.3-0.9,2.1-0.9c0.7,0,1.3,0.3,1.7,0.8s0.6,1.2,0.6,2.1c0,0.3,0,0.6-0.1,0.9l-0.2,1.5c-0.2,1.2-0.6,2.1-1.1,2.7
		S206.5,104.2,205.6,104.2z M207.7,98.9c0.1-0.4,0.1-0.8,0.1-0.9c0-0.9-0.3-1.3-1-1.4c-0.5,0-0.9,0.2-1.1,0.5s-0.5,1-0.6,1.8
		l-0.3,1.9c0,0.4-0.1,0.7-0.1,1c0,0.9,0.3,1.4,1,1.4c0.9,0.1,1.5-0.6,1.7-2.1L207.7,98.9z"/>
	<path class="st13" d="M212.3,104.2c-0.7,0-1.3-0.3-1.7-0.8s-0.6-1.2-0.6-2.1c0-0.3,0-0.6,0.1-0.9l0.2-1.5c0.2-1.2,0.6-2.1,1.1-2.7
		s1.3-0.9,2.1-0.9c0.7,0,1.3,0.3,1.7,0.8s0.6,1.2,0.6,2.1c0,0.3,0,0.6-0.1,0.9l-0.2,1.5c-0.2,1.2-0.6,2.1-1.1,2.7
		S213.2,104.2,212.3,104.2z M214.4,98.9c0.1-0.4,0.1-0.8,0.1-0.9c0-0.9-0.3-1.3-1-1.4c-0.5,0-0.9,0.2-1.1,0.5s-0.5,1-0.6,1.8
		l-0.3,1.9c0,0.4-0.1,0.7-0.1,1c0,0.9,0.3,1.4,1,1.4c0.9,0.1,1.5-0.6,1.7-2.1L214.4,98.9z"/>
</g>
<g>
	<path class="st13" d="M188.4,116c0-0.3,0-0.6-0.2-0.8s-0.5-0.4-0.9-0.6s-0.8-0.4-1.1-0.6c-0.7-0.5-1-1.2-0.9-2
		c0-0.7,0.3-1.2,0.7-1.6s1-0.7,1.7-0.8l0.2-1.3h0.9l-0.2,1.3c0.6,0.1,1,0.4,1.3,0.9s0.4,1.1,0.4,1.8h-1.4c0-0.5,0-0.9-0.2-1.2
		s-0.4-0.4-0.8-0.4c-0.4,0-0.7,0.1-0.9,0.3s-0.4,0.5-0.4,0.9c0,0.3,0,0.6,0.2,0.8s0.5,0.4,0.9,0.6s0.8,0.4,1,0.6c0.7,0.5,1,1.2,1,2
		c0,0.7-0.3,1.2-0.8,1.6s-1.1,0.7-1.8,0.7l-0.2,1.1h-0.9l0.2-1.1c-0.7-0.1-1.2-0.4-1.5-0.9s-0.5-1.1-0.5-1.8l1.4,0
		c0,0.5,0.1,0.9,0.3,1.1s0.5,0.4,0.9,0.4c0.4,0,0.8-0.1,1-0.3S188.3,116.4,188.4,116z"/>
	<path class="st13" d="M196.2,118.3h-5.6l0.2-1l3.5-3.4c0.7-0.6,1-1.2,1.1-1.8c0.1-0.4,0-0.7-0.2-0.9s-0.4-0.4-0.8-0.4
		c-0.4,0-0.8,0.1-1.1,0.4s-0.5,0.7-0.5,1.2l-1.4,0c0-0.5,0.2-1,0.5-1.4s0.7-0.7,1.1-1s1-0.3,1.5-0.3c0.7,0,1.3,0.2,1.8,0.6
		s0.6,1,0.6,1.7c-0.1,0.8-0.5,1.6-1.4,2.5l-0.4,0.4l-2.5,2.3h3.8L196.2,118.3z"/>
	<path class="st13" d="M202.9,118.3h-5.6l0.2-1l3.5-3.4c0.7-0.6,1-1.2,1.1-1.8c0.1-0.4,0-0.7-0.2-0.9s-0.4-0.4-0.8-0.4
		c-0.4,0-0.8,0.1-1.1,0.4s-0.5,0.7-0.5,1.2l-1.4,0c0-0.5,0.2-1,0.5-1.4s0.7-0.7,1.1-1s1-0.3,1.5-0.3c0.7,0,1.3,0.2,1.8,0.6
		s0.6,1,0.6,1.7c-0.1,0.8-0.5,1.6-1.4,2.5l-0.4,0.4l-2.5,2.3h3.8L202.9,118.3z"/>
	<path class="st13" d="M206.7,118.4c-0.7,0-1.3-0.3-1.7-0.8s-0.6-1.2-0.6-2.1c0-0.3,0-0.6,0.1-0.9l0.2-1.5c0.2-1.2,0.6-2.1,1.1-2.7
		s1.3-0.9,2.1-0.9c0.7,0,1.3,0.3,1.7,0.8s0.6,1.2,0.6,2.1c0,0.3,0,0.6-0.1,0.9l-0.2,1.5c-0.2,1.2-0.6,2.1-1.1,2.7
		S207.6,118.5,206.7,118.4z M208.8,113.1c0.1-0.4,0.1-0.8,0.1-0.9c0-0.9-0.3-1.3-1-1.4c-0.5,0-0.9,0.2-1.1,0.5s-0.5,1-0.6,1.8
		l-0.3,1.9c0,0.4-0.1,0.7-0.1,1c0,0.9,0.3,1.4,1,1.4c0.9,0.1,1.5-0.6,1.7-2.1L208.8,113.1z"/>
	<path class="st13" d="M213.4,118.4c-0.7,0-1.3-0.3-1.7-0.8s-0.6-1.2-0.6-2.1c0-0.3,0-0.6,0.1-0.9l0.2-1.5c0.2-1.2,0.6-2.1,1.1-2.7
		s1.3-0.9,2.1-0.9c0.7,0,1.3,0.3,1.7,0.8s0.6,1.2,0.6,2.1c0,0.3,0,0.6-0.1,0.9l-0.2,1.5c-0.2,1.2-0.6,2.1-1.1,2.7
		S214.3,118.5,213.4,118.4z M215.5,113.1c0.1-0.4,0.1-0.8,0.1-0.9c0-0.9-0.3-1.3-1-1.4c-0.5,0-0.9,0.2-1.1,0.5s-0.5,1-0.6,1.8
		l-0.3,1.9c0,0.4-0.1,0.7-0.1,1c0,0.9,0.3,1.4,1,1.4c0.9,0.1,1.5-0.6,1.7-2.1L215.5,113.1z"/>
</g>
<g>
	<path class="st13" d="M188.3,129.9c0-0.3,0-0.6-0.2-0.8s-0.5-0.4-0.9-0.6s-0.8-0.4-1.1-0.6c-0.7-0.5-1-1.2-0.9-2
		c0-0.7,0.3-1.2,0.7-1.6s1-0.7,1.7-0.8l0.2-1.3h0.9l-0.2,1.3c0.6,0.1,1,0.4,1.3,0.9s0.4,1.1,0.4,1.8h-1.4c0-0.5,0-0.9-0.2-1.2
		s-0.4-0.4-0.8-0.4c-0.4,0-0.7,0.1-0.9,0.3s-0.4,0.5-0.4,0.9c0,0.3,0,0.6,0.2,0.8s0.5,0.4,0.9,0.6s0.8,0.4,1,0.6c0.7,0.5,1,1.2,1,2
		c0,0.7-0.3,1.2-0.8,1.6s-1.1,0.7-1.8,0.7l-0.2,1.1H186l0.2-1.1c-0.7-0.1-1.2-0.4-1.5-0.9s-0.5-1.1-0.5-1.8l1.4,0
		c0,0.5,0.1,0.9,0.3,1.1s0.5,0.4,0.9,0.4c0.4,0,0.8-0.1,1-0.3S188.3,130.3,188.3,129.9z"/>
	<path class="st13" d="M194.2,132.2h-1.4l1.2-6.8l-2.2,0.7l0.2-1.3l3.4-1.2h0.2L194.2,132.2z"/>
	<path class="st13" d="M198.6,131.1c0.8,0,1.5-0.2,2-0.6s0.9-1,1.2-1.8c-0.5,0.5-1.1,0.8-1.7,0.8c-0.4,0-0.8-0.1-1.1-0.4
		s-0.6-0.6-0.7-1s-0.2-0.9-0.2-1.5c0.1-0.6,0.2-1.1,0.5-1.6s0.6-0.8,1.1-1.1s0.9-0.4,1.5-0.4c0.5,0,0.9,0.1,1.2,0.3s0.6,0.5,0.8,0.9
		s0.3,0.9,0.3,1.4c0,0.4,0,0.9-0.1,1.6c-0.3,1.4-0.8,2.6-1.6,3.3s-1.9,1.1-3.1,1.1h-0.1L198.6,131.1L198.6,131.1z M200.5,128.3
		c0.3,0,0.6-0.1,0.8-0.2s0.5-0.4,0.7-0.7l0.1-0.6l0-0.4c0-0.5-0.1-0.9-0.2-1.2s-0.4-0.5-0.8-0.5c-0.5,0-0.9,0.2-1.2,0.7
		s-0.4,1.1-0.4,1.7c0,0.3,0.1,0.6,0.3,0.8S200.2,128.3,200.5,128.3z"/>
	<path class="st13" d="M206.6,132.3c-0.7,0-1.3-0.3-1.7-0.8s-0.6-1.2-0.6-2.1c0-0.3,0-0.6,0.1-0.9l0.2-1.5c0.2-1.2,0.6-2.1,1.1-2.7
		s1.3-0.9,2.1-0.9c0.7,0,1.3,0.3,1.7,0.8s0.6,1.2,0.6,2.1c0,0.3,0,0.6-0.1,0.9l-0.2,1.5c-0.2,1.2-0.6,2.1-1.1,2.7
		S207.5,132.3,206.6,132.3z M208.7,127c0.1-0.4,0.1-0.8,0.1-0.9c0-0.9-0.3-1.3-1-1.4c-0.5,0-0.9,0.2-1.1,0.5s-0.5,1-0.6,1.8
		l-0.3,1.9c0,0.4-0.1,0.7-0.1,1c0,0.9,0.3,1.4,1,1.4c0.9,0.1,1.5-0.6,1.7-2.1L208.7,127z"/>
	<path class="st13" d="M213.3,132.3c-0.7,0-1.3-0.3-1.7-0.8s-0.6-1.2-0.6-2.1c0-0.3,0-0.6,0.1-0.9l0.2-1.5c0.2-1.2,0.6-2.1,1.1-2.7
		s1.3-0.9,2.1-0.9c0.7,0,1.3,0.3,1.7,0.8s0.6,1.2,0.6,2.1c0,0.3,0,0.6-0.1,0.9l-0.2,1.5c-0.2,1.2-0.6,2.1-1.1,2.7
		S214.2,132.3,213.3,132.3z M215.4,127c0.1-0.4,0.1-0.8,0.1-0.9c0-0.9-0.3-1.3-1-1.4c-0.5,0-0.9,0.2-1.1,0.5s-0.5,1-0.6,1.8
		l-0.3,1.9c0,0.4-0.1,0.7-0.1,1c0,0.9,0.3,1.4,1,1.4c0.9,0.1,1.5-0.6,1.7-2.1L215.4,127z"/>
</g>
<g>
	<path class="st13" d="M184.9,144c0-0.3,0-0.6-0.2-0.8s-0.5-0.4-0.9-0.6s-0.8-0.4-1.1-0.6c-0.7-0.5-1-1.2-0.9-2
		c0-0.7,0.3-1.2,0.7-1.6s1-0.7,1.7-0.8l0.2-1.3h0.9l-0.2,1.3c0.6,0.1,1,0.4,1.3,0.9s0.4,1.1,0.4,1.8h-1.4c0-0.5,0-0.9-0.2-1.2
		s-0.4-0.4-0.8-0.4c-0.4,0-0.7,0.1-0.9,0.3s-0.4,0.5-0.4,0.9c0,0.3,0,0.6,0.2,0.8s0.5,0.4,0.9,0.6s0.8,0.4,1,0.6c0.7,0.5,1,1.2,1,2
		c0,0.7-0.3,1.2-0.8,1.6s-1.1,0.7-1.8,0.7l-0.2,1.1h-0.9l0.2-1.1c-0.7-0.1-1.2-0.4-1.5-0.9s-0.5-1.1-0.5-1.8l1.4,0
		c0,0.5,0.1,0.9,0.3,1.1s0.5,0.4,0.9,0.4c0.4,0,0.8-0.1,1-0.3S184.8,144.4,184.9,144z"/>
	<path class="st13" d="M190.8,146.3h-1.4l1.2-6.8l-2.2,0.7l0.2-1.3l3.4-1.2h0.2L190.8,146.3z"/>
	<path class="st13" d="M199.4,137.7l-0.1,1.2l-0.1,0c-0.8,0-1.4,0.2-2,0.6s-1,1-1.3,1.9c0.5-0.5,1.1-0.7,1.8-0.7
		c0.5,0,0.8,0.1,1.2,0.4s0.6,0.6,0.7,1s0.2,0.9,0.2,1.4c0,0.6-0.2,1.1-0.5,1.5s-0.6,0.8-1.1,1.1s-0.9,0.4-1.5,0.4
		c-0.7,0-1.2-0.3-1.6-0.7s-0.7-1.1-0.7-1.8c0-0.4,0-1,0.1-1.7c0.3-1.4,0.8-2.5,1.6-3.3s1.9-1.2,3.2-1.2H199.4z M197.3,141.8
		c-0.3,0-0.6,0.1-0.9,0.2s-0.5,0.4-0.7,0.7c0,0.4-0.1,0.7-0.1,0.8c0,0.5,0.1,0.9,0.3,1.2s0.4,0.4,0.8,0.5c0.4,0,0.8-0.1,1.1-0.5
		s0.5-0.8,0.5-1.3c0.1-0.5,0-0.9-0.2-1.2S197.7,141.8,197.3,141.8z"/>
	<path class="st13" d="M203.2,146.4c-0.7,0-1.3-0.3-1.7-0.8s-0.6-1.2-0.6-2.1c0-0.3,0-0.6,0.1-0.9l0.2-1.5c0.2-1.2,0.6-2.1,1.1-2.7
		s1.3-0.9,2.1-0.9c0.7,0,1.3,0.3,1.7,0.8s0.6,1.2,0.6,2.1c0,0.3,0,0.6-0.1,0.9l-0.2,1.5c-0.2,1.2-0.6,2.1-1.1,2.7
		S204.1,146.4,203.2,146.4z M205.3,141.1c0.1-0.4,0.1-0.8,0.1-0.9c0-0.9-0.3-1.3-1-1.4c-0.5,0-0.9,0.2-1.1,0.5s-0.5,1-0.6,1.8
		l-0.3,1.9c0,0.4-0.1,0.7-0.1,1c0,0.9,0.3,1.4,1,1.4c0.9,0.1,1.5-0.6,1.7-2.1L205.3,141.1z"/>
	<path class="st13" d="M209.9,146.4c-0.7,0-1.3-0.3-1.7-0.8s-0.6-1.2-0.6-2.1c0-0.3,0-0.6,0.1-0.9l0.2-1.5c0.2-1.2,0.6-2.1,1.1-2.7
		s1.3-0.9,2.1-0.9c0.7,0,1.3,0.3,1.7,0.8s0.6,1.2,0.6,2.1c0,0.3,0,0.6-0.1,0.9l-0.2,1.5c-0.2,1.2-0.6,2.1-1.1,2.7
		S210.8,146.4,209.9,146.4z M212,141.1c0.1-0.4,0.1-0.8,0.1-0.9c0-0.9-0.3-1.3-1-1.4c-0.5,0-0.9,0.2-1.1,0.5s-0.5,1-0.6,1.8
		l-0.3,1.9c0,0.4-0.1,0.7-0.1,1c0,0.9,0.3,1.4,1,1.4c0.9,0.1,1.5-0.6,1.7-2.1L212,141.1z"/>
</g>
<g>
	<path class="st13" d="M179.4,157.8c0-0.3,0-0.6-0.2-0.8s-0.5-0.4-0.9-0.6s-0.8-0.4-1.1-0.6c-0.7-0.5-1-1.2-0.9-2
		c0-0.7,0.3-1.2,0.7-1.6s1-0.7,1.7-0.8l0.2-1.3h0.9l-0.2,1.3c0.6,0.1,1,0.4,1.3,0.9s0.4,1.1,0.4,1.8H180c0-0.5,0-0.9-0.2-1.2
		s-0.4-0.4-0.8-0.4c-0.4,0-0.7,0.1-0.9,0.3s-0.4,0.5-0.4,0.9c0,0.3,0,0.6,0.2,0.8s0.5,0.4,0.9,0.6s0.8,0.4,1,0.6c0.7,0.5,1,1.2,1,2
		c0,0.7-0.3,1.2-0.8,1.6s-1.1,0.7-1.8,0.7l-0.2,1.1h-0.9l0.2-1.1c-0.7-0.1-1.2-0.4-1.5-0.9s-0.5-1.1-0.5-1.8l1.4,0
		c0,0.5,0.1,0.9,0.3,1.1s0.5,0.4,0.9,0.4c0.4,0,0.8-0.1,1-0.3S179.4,158.2,179.4,157.8z"/>
	<path class="st13" d="M185.4,160.1H184l1.2-6.8L183,154l0.2-1.3l3.4-1.2h0.2L185.4,160.1z"/>
	<path class="st13" d="M190.7,155.1l0.8,0c0.5,0,0.8-0.1,1.1-0.4s0.5-0.6,0.5-1c0-0.4,0-0.7-0.2-0.9s-0.5-0.3-0.8-0.3
		c-0.4,0-0.7,0.1-1,0.3s-0.4,0.5-0.5,0.9l-1.4,0c0-0.5,0.2-0.9,0.5-1.2s0.6-0.6,1-0.8s0.9-0.3,1.4-0.3c0.8,0,1.4,0.2,1.8,0.7
		s0.6,1,0.6,1.7c0,0.4-0.2,0.7-0.4,1.1s-0.6,0.6-1.1,0.8c0.7,0.3,1,0.9,1.1,1.6v0.3c-0.1,0.8-0.4,1.4-0.9,1.9s-1.3,0.7-2.1,0.7
		c-0.5,0-0.9-0.1-1.3-0.3s-0.7-0.5-0.9-0.8s-0.3-0.8-0.3-1.3l1.4,0c0,0.4,0.1,0.7,0.3,0.9s0.5,0.3,0.9,0.4c0.4,0,0.8-0.1,1.1-0.4
		s0.5-0.6,0.5-1c0-0.4,0-0.8-0.3-1s-0.5-0.3-1-0.4l-0.9,0L190.7,155.1z"/>
	<path class="st13" d="M197.8,160.2c-0.7,0-1.3-0.3-1.7-0.8s-0.6-1.2-0.6-2.1c0-0.3,0-0.6,0.1-0.9l0.2-1.5c0.2-1.2,0.6-2.1,1.1-2.7
		s1.3-0.9,2.1-0.9c0.7,0,1.3,0.3,1.7,0.8s0.6,1.2,0.6,2.1c0,0.3,0,0.6-0.1,0.9l-0.2,1.5c-0.2,1.2-0.6,2.1-1.1,2.7
		S198.6,160.2,197.8,160.2z M199.9,154.9c0.1-0.4,0.1-0.8,0.1-0.9c0-0.9-0.3-1.3-1-1.4c-0.5,0-0.9,0.2-1.1,0.5s-0.5,1-0.6,1.8
		l-0.3,1.9c0,0.4-0.1,0.7-0.1,1c0,0.9,0.3,1.4,1,1.4c0.9,0.1,1.5-0.6,1.7-2.1L199.9,154.9z"/>
	<path class="st13" d="M204.4,160.2c-0.7,0-1.3-0.3-1.7-0.8s-0.6-1.2-0.6-2.1c0-0.3,0-0.6,0.1-0.9l0.2-1.5c0.2-1.2,0.6-2.1,1.1-2.7
		s1.3-0.9,2.1-0.9c0.7,0,1.3,0.3,1.7,0.8s0.6,1.2,0.6,2.1c0,0.3,0,0.6-0.1,0.9l-0.2,1.5c-0.2,1.2-0.6,2.1-1.1,2.7
		S205.3,160.2,204.4,160.2z M206.5,154.9c0.1-0.4,0.1-0.8,0.1-0.9c0-0.9-0.3-1.3-1-1.4c-0.5,0-0.9,0.2-1.1,0.5s-0.5,1-0.6,1.8
		l-0.3,1.9c0,0.4-0.1,0.7-0.1,1c0,0.9,0.3,1.4,1,1.4c0.9,0.1,1.5-0.6,1.7-2.1L206.5,154.9z"/>
</g>
<g>
	<path class="st13" d="M170.3,170.5c0-0.3,0-0.6-0.2-0.8s-0.5-0.4-0.9-0.6s-0.8-0.4-1.1-0.6c-0.7-0.5-1-1.2-0.9-2
		c0-0.7,0.3-1.2,0.7-1.6s1-0.7,1.7-0.8l0.2-1.3h0.9l-0.2,1.3c0.6,0.1,1,0.4,1.3,0.9s0.4,1.1,0.4,1.8h-1.4c0-0.5,0-0.9-0.2-1.2
		s-0.4-0.4-0.8-0.4c-0.4,0-0.7,0.1-0.9,0.3s-0.4,0.5-0.4,0.9c0,0.3,0,0.6,0.2,0.8s0.5,0.4,0.9,0.6s0.8,0.4,1,0.6c0.7,0.5,1,1.2,1,2
		c0,0.7-0.3,1.2-0.8,1.6s-1.1,0.7-1.8,0.7l-0.2,1.1H168l0.2-1.1c-0.7-0.1-1.2-0.4-1.5-0.9s-0.5-1.1-0.5-1.8l1.4,0
		c0,0.5,0.1,0.9,0.3,1.1s0.5,0.4,0.9,0.4c0.4,0,0.8-0.1,1-0.3S170.3,170.9,170.3,170.5z"/>
	<path class="st13" d="M176.2,172.8h-1.4l1.2-6.8l-2.2,0.7l0.2-1.3l3.4-1.2h0.2L176.2,172.8z"/>
	<path class="st13" d="M182,172.9c-0.7,0-1.3-0.3-1.7-0.8s-0.6-1.2-0.6-2.1c0-0.3,0-0.6,0.1-0.9l0.2-1.5c0.2-1.2,0.6-2.1,1.1-2.7
		s1.3-0.9,2.1-0.9c0.7,0,1.3,0.3,1.7,0.8s0.6,1.2,0.6,2.1c0,0.3,0,0.6-0.1,0.9l-0.2,1.5c-0.2,1.2-0.6,2.1-1.1,2.7
		S182.8,172.9,182,172.9z M184.1,167.6c0.1-0.4,0.1-0.8,0.1-0.9c0-0.9-0.3-1.3-1-1.4c-0.5,0-0.9,0.2-1.1,0.5s-0.5,1-0.6,1.8
		l-0.3,1.9c0,0.4-0.1,0.7-0.1,1c0,0.9,0.3,1.4,1,1.4c0.9,0.1,1.5-0.6,1.7-2.1L184.1,167.6z"/>
	<path class="st13" d="M188.6,172.9c-0.7,0-1.3-0.3-1.7-0.8s-0.6-1.2-0.6-2.1c0-0.3,0-0.6,0.1-0.9l0.2-1.5c0.2-1.2,0.6-2.1,1.1-2.7
		s1.3-0.9,2.1-0.9c0.7,0,1.3,0.3,1.7,0.8s0.6,1.2,0.6,2.1c0,0.3,0,0.6-0.1,0.9l-0.2,1.5c-0.2,1.2-0.6,2.1-1.1,2.7
		S189.5,172.9,188.6,172.9z M190.7,167.6c0.1-0.4,0.1-0.8,0.1-0.9c0-0.9-0.3-1.3-1-1.4c-0.5,0-0.9,0.2-1.1,0.5s-0.5,1-0.6,1.8
		l-0.3,1.9c0,0.4-0.1,0.7-0.1,1c0,0.9,0.3,1.4,1,1.4c0.9,0.1,1.5-0.6,1.7-2.1L190.7,167.6z"/>
	<path class="st13" d="M195.3,172.9c-0.7,0-1.3-0.3-1.7-0.8s-0.6-1.2-0.6-2.1c0-0.3,0-0.6,0.1-0.9l0.2-1.5c0.2-1.2,0.6-2.1,1.1-2.7
		s1.3-0.9,2.1-0.9c0.7,0,1.3,0.3,1.7,0.8s0.6,1.2,0.6,2.1c0,0.3,0,0.6-0.1,0.9l-0.2,1.5c-0.2,1.2-0.6,2.1-1.1,2.7
		S196.2,172.9,195.3,172.9z M197.4,167.6c0.1-0.4,0.1-0.8,0.1-0.9c0-0.9-0.3-1.3-1-1.4c-0.5,0-0.9,0.2-1.1,0.5s-0.5,1-0.6,1.8
		l-0.3,1.9c0,0.4-0.1,0.7-0.1,1c0,0.9,0.3,1.4,1,1.4c0.9,0.1,1.5-0.6,1.7-2.1L197.4,167.6z"/>
</g>
<g>
	
		<rect x="138.9" y="61.7" transform="matrix(0.4884 -0.8726 0.8726 0.4884 19.5167 157.34)" class="st3" width="10.1" height="0.7"/>
</g>
<g>
	
		<rect x="148.1" y="72.7" transform="matrix(0.6642 -0.7476 0.7476 0.6642 -2.657 140.3256)" class="st3" width="13.6" height="0.7"/>
</g>
<g>
	<rect x="157.2" y="82.6" transform="matrix(0.8074 -0.59 0.59 0.8074 -17.3528 112.8621)" class="st3" width="14.1" height="0.7"/>
</g>
<g>
	
		<rect x="159.6" y="93.6" transform="matrix(0.8846 -0.4664 0.4664 0.8846 -24.3951 89.3349)" class="st3" width="17.4" height="0.7"/>
</g>
<g>
	
		<rect x="160.3" y="104.1" transform="matrix(0.9376 -0.3477 0.3477 0.9376 -25.6862 65.8625)" class="st3" width="20.7" height="0.7"/>
</g>
<g>
	
		<rect x="156.6" y="117.4" transform="matrix(0.9712 -0.2382 0.2382 0.9712 -23.178 43.8733)" class="st3" width="26.6" height="0.8"/>
</g>
<g>
	
		<rect x="154.8" y="128.9" transform="matrix(0.9944 -0.1054 0.1054 0.9944 -12.6928 18.4637)" class="st3" width="27" height="0.8"/>
</g>
<g>
	
		<rect x="164.6" y="127.9" transform="matrix(5.219420e-02 -0.9986 0.9986 5.219420e-02 15.1429 298.8432)" class="st3" width="0.8" height="27"/>
</g>
<g>
	
		<rect x="159.6" y="139.1" transform="matrix(0.1777 -0.9841 0.9841 0.1777 -18.3356 282.6522)" class="st3" width="0.8" height="26.5"/>
</g>
<g>
	
		<rect x="152.7" y="149.9" transform="matrix(0.3432 -0.9393 0.9393 0.3432 -51.9942 250.3645)" class="st3" width="0.8" height="25"/>
</g>
<g>
	<path class="st13" d="M15.3,29.9v1.7H9.6v-1.7l1.5-0.5v-9.5l-1.5-0.6v-1.7l5.2-0.1l3,6.7l3.1-6.6l4.8-0.1v1.8l-1.4,0.6v9.5l1.5,0.5
		v1.7h-6v-1.7l1.6-0.5v-7.6c-0.2,0.6-0.5,1.3-0.8,1.9c-0.3,0.7-0.7,1.4-1.1,2.2c-0.4,0.8-0.7,1.4-0.9,1.9l-2.2,0.1l-2.3-4.7l-0.3-1
		v7.2L15.3,29.9z"/>
	<path class="st13" d="M36.9,26.8l-6.6,0.1c0.1,0.8,0.3,1.5,0.7,1.9s1,0.7,1.7,0.7c0.5,0,1-0.1,1.6-0.2c0.6-0.2,1-0.3,1.3-0.5
		l0.5-0.2l0.9,1.6c-0.1,0.1-0.4,0.3-0.6,0.5c-0.3,0.2-0.8,0.4-1.6,0.8c-0.8,0.3-1.6,0.5-2.3,0.5c-1.7,0-3-0.5-3.9-1.4
		s-1.3-2.3-1.3-4c0-1.8,0.5-3.2,1.4-4.2c0.9-1,2.3-1.6,3.9-1.6c1.5,0,2.6,0.4,3.4,1.3c0.8,0.8,1.2,2,1.2,3.4L36.9,26.8z M32.2,22.9
		c-0.5,0-1,0.2-1.3,0.6c-0.3,0.4-0.5,0.9-0.6,1.5h3.6C33.9,23.6,33.3,22.9,32.2,22.9z"/>
	<path class="st13" d="M49.7,31.5l-4.2,0.1l-0.2-1.1c-0.8,0.8-1.8,1.3-3,1.3c-1.4,0-2.4-0.5-3.1-1.4c-0.7-0.9-1-2.2-1-3.9
		c0-1.9,0.5-3.3,1.4-4.4c1-1,2.4-1.5,4.2-1.5c0.4,0,0.9,0.1,1.3,0.2v-2.5l-1.6-0.4v-1.6l4.5-0.2v13.4l1.6,0.4V31.5z M45.1,28.3v-5.1
		c-0.3-0.2-0.9-0.3-1.6-0.3c-1.5,0-2.3,1.1-2.3,3.4c0,2.1,0.6,3.2,1.9,3.2c0.4,0,0.7-0.1,1-0.3c0.3-0.2,0.6-0.4,0.7-0.6L45.1,28.3z"
		/>
	<path class="st13" d="M50.7,21l4.5-0.2v8.7l1.4,0.5v1.6h-5.9V30l1.6-0.5V23l-1.6-0.4V21z M51.9,17.5c0-0.5,0.2-1,0.5-1.3
		c0.3-0.3,0.7-0.5,1.2-0.5c1.1,0,1.7,0.6,1.7,1.8c0,0.6-0.2,1-0.5,1.3s-0.7,0.5-1.2,0.5c-0.5,0-1-0.2-1.3-0.5
		C52.1,18.5,51.9,18.1,51.9,17.5z"/>
	<path class="st13" d="M68.6,31.5l-4,0.1l-0.4-1.3c-0.1,0.1-0.3,0.2-0.5,0.4c-0.2,0.2-0.6,0.4-1.1,0.7c-0.6,0.3-1.1,0.4-1.6,0.4
		c-1,0-1.7-0.3-2.3-0.8c-0.5-0.5-0.8-1.3-0.8-2.3c0-2.2,1.6-3.3,4.8-3.3h1.4v-1.1c0-1-0.5-1.5-1.5-1.5c-0.3,0-0.6,0-0.9,0.1
		c-0.3,0.1-0.5,0.1-0.7,0.2l-0.2,0.1l-0.3,1.3h-1.8l-0.1-3c1.6-0.5,3.1-0.8,4.3-0.8c1.5,0,2.6,0.3,3.2,0.9c0.6,0.6,0.9,1.6,0.9,3.1
		v4.9l1.5,0.4V31.5z M60.8,28.4c0,0.8,0.4,1.2,1.2,1.2c0.3,0,0.7-0.1,1-0.3c0.4-0.2,0.6-0.4,0.8-0.6l0.3-0.3v-1.3H63
		c-0.8,0-1.3,0.1-1.7,0.3C61,27.6,60.8,27.9,60.8,28.4z"/>
	<path class="st13" d="M69.7,21l4.1-0.2l0.1,1.4c0.1-0.1,0.3-0.3,0.6-0.4c0.2-0.2,0.7-0.4,1.3-0.7c0.6-0.3,1.2-0.4,1.8-0.4
		c1,0,1.7,0.3,2.2,1c0.5,0.6,0.8,1.5,0.8,2.6v5.3c0.2,0.1,0.4,0.1,0.7,0.3c0.3,0.1,0.5,0.2,0.7,0.2v1.6h-5.4V30l1.1-0.5v-4.8
		c0-0.5-0.1-0.9-0.4-1.1c-0.2-0.3-0.6-0.5-1-0.5c-0.4,0-0.7,0.1-1.1,0.3c-0.4,0.2-0.6,0.4-0.8,0.6l-0.3,0.3v5.3l1,0.5v1.6h-5.5V30
		l1.5-0.5V23l-1.5-0.4V21z"/>
	<path class="st13" d="M97.6,20.9c0,0.9-0.2,1.6-0.6,2.2s-1,1-1.9,1.2c0.8,0.2,1.5,0.6,2,1.1c0.5,0.6,0.8,1.3,0.8,2
		c0,0.8-0.2,1.5-0.5,2.1C97,30,96.6,30.5,96,30.8c-0.6,0.3-1.2,0.6-1.8,0.8s-1.4,0.2-2.1,0.2c-0.8,0-1.5-0.1-2.2-0.3
		c-0.7-0.2-1.3-0.4-1.6-0.5l-0.5-0.3l0.8-2.2c1.2,0.6,2.4,0.8,3.6,0.8c0.8,0,1.4-0.2,1.9-0.5c0.4-0.3,0.7-0.9,0.7-1.5
		c0-0.6-0.2-1.1-0.7-1.4c-0.5-0.3-1.2-0.5-2.1-0.5h-1.6v-2.1h1.7c1.7,0,2.6-0.6,2.6-1.9c0-0.5-0.2-0.9-0.6-1.2
		c-0.4-0.3-0.9-0.4-1.6-0.4c-0.3,0-0.6,0-0.9,0.1c-0.3,0-0.6,0.1-0.8,0.1L90.4,20l-0.2,1.6h-2.1L88,18.1c1.6-0.6,3.1-0.8,4.5-0.8
		C95.8,17.3,97.6,18.5,97.6,20.9z"/>
	<path class="st13" d="M100.2,27.4v-2.5h5.7v2.5H100.2z"/>
	<path class="st13" d="M112.3,17.5h2.1c1.3,0,2.4,0.3,3.2,0.9c0.8,0.6,1.2,1.4,1.2,2.6c0,1.7-0.8,2.8-2.4,3.3
		c1.9,0.5,2.9,1.6,2.9,3.2c0,2.8-1.7,4.1-5.2,4.1h-6.3v-1.7c0.3-0.1,0.8-0.3,1.5-0.5v-9.5l-1.5-0.6v-1.7L112.3,17.5z M112.3,19.9
		v3.4h1.2c1.5,0,2.2-0.6,2.2-1.9c0-0.5-0.2-0.9-0.5-1.1c-0.3-0.3-0.7-0.4-1.2-0.4H112.3z M113.5,25.4h-1.2v3.9h1.7
		c0.7,0,1.2-0.2,1.6-0.5c0.4-0.3,0.5-0.8,0.5-1.3c0-0.7-0.2-1.3-0.6-1.6S114.4,25.4,113.5,25.4z"/>
	<path class="st13" d="M130.6,26.8l-6.6,0.1c0.1,0.8,0.3,1.5,0.7,1.9c0.4,0.5,1,0.7,1.7,0.7c0.5,0,1-0.1,1.6-0.2
		c0.6-0.2,1-0.3,1.3-0.5l0.5-0.2l0.9,1.6c-0.1,0.1-0.4,0.3-0.6,0.5c-0.3,0.2-0.8,0.4-1.6,0.8s-1.6,0.5-2.3,0.5c-1.7,0-3-0.5-3.9-1.4
		s-1.3-2.3-1.3-4c0-1.8,0.5-3.2,1.4-4.2c0.9-1,2.3-1.6,3.9-1.6c1.5,0,2.6,0.4,3.4,1.3c0.8,0.8,1.2,2,1.2,3.4L130.6,26.8z
		 M125.9,22.9c-0.5,0-1,0.2-1.3,0.6c-0.3,0.4-0.5,0.9-0.6,1.5h3.6C127.6,23.6,127,22.9,125.9,22.9z"/>
	<path class="st13" d="M143.4,31.5l-4.2,0.1l-0.2-1.1c-0.8,0.8-1.8,1.3-3,1.3c-1.4,0-2.4-0.5-3.1-1.4c-0.7-0.9-1-2.2-1-3.9
		c0-1.9,0.5-3.3,1.4-4.4c1-1,2.4-1.5,4.2-1.5c0.4,0,0.9,0.1,1.3,0.2v-2.5l-1.6-0.4v-1.6l4.5-0.2v13.4l1.6,0.4V31.5z M138.8,28.3
		v-5.1c-0.3-0.2-0.9-0.3-1.6-0.3c-1.5,0-2.3,1.1-2.3,3.4c0,2.1,0.6,3.2,1.9,3.2c0.4,0,0.7-0.1,1-0.3c0.3-0.2,0.6-0.4,0.7-0.6
		L138.8,28.3z"/>
	<path class="st13" d="M144.4,21l4.1-0.2l0.2,1.4c0.1-0.1,0.3-0.3,0.4-0.4s0.5-0.4,1-0.7c0.5-0.3,0.9-0.4,1.3-0.4
		c0.3,0,0.6,0,0.9,0.1c0.3,0.1,0.5,0.1,0.7,0.2l0.2,0.1l-0.2,3.8h-1.7l-0.3-1.7c-0.3,0-0.7,0.1-1.1,0.3c-0.4,0.2-0.6,0.4-0.8,0.6
		l-0.3,0.3v5.3l1.9,0.5v1.6h-6.4V30l1.6-0.5V23l-1.6-0.4V21z"/>
	<path class="st13" d="M159.6,20.6c1.6,0,2.9,0.5,3.7,1.4s1.3,2.3,1.3,4c0,1.8-0.5,3.2-1.4,4.2c-1,1-2.3,1.6-3.9,1.6
		c-3.4,0-5.1-1.8-5.1-5.5c0-1.8,0.5-3.2,1.5-4.2C156.7,21.1,158,20.6,159.6,20.6z M159.5,22.9c-0.8,0-1.3,0.2-1.7,0.7
		s-0.5,1.3-0.5,2.6c0,1.1,0.2,2,0.5,2.5c0.3,0.5,0.9,0.8,1.6,0.8c0.7,0,1.3-0.3,1.6-0.8s0.5-1.4,0.5-2.6c0-1.1-0.2-1.9-0.5-2.4
		C160.8,23.2,160.2,22.9,159.5,22.9z"/>
	<path class="st13" d="M171.5,20.6c1.6,0,2.9,0.5,3.7,1.4s1.3,2.3,1.3,4c0,1.8-0.5,3.2-1.4,4.2c-1,1-2.3,1.6-3.9,1.6
		c-3.4,0-5.1-1.8-5.1-5.5c0-1.8,0.5-3.2,1.5-4.2C168.5,21.1,169.8,20.6,171.5,20.6z M171.4,22.9c-0.8,0-1.3,0.2-1.7,0.7
		s-0.5,1.3-0.5,2.6c0,1.1,0.2,2,0.5,2.5c0.3,0.5,0.9,0.8,1.6,0.8c0.7,0,1.3-0.3,1.6-0.8s0.5-1.4,0.5-2.6c0-1.1-0.2-1.9-0.5-2.4
		C172.6,23.2,172.1,22.9,171.4,22.9z"/>
	<path class="st13" d="M195.1,24.2v5.3l1.4,0.5v1.6h-5.4V30l1.1-0.5v-4.7c0-0.6-0.1-1-0.3-1.2c-0.2-0.3-0.5-0.4-0.9-0.4
		c-0.4,0-0.8,0.1-1.1,0.3c-0.4,0.2-0.6,0.3-0.8,0.5l-0.3,0.3v5.3l1,0.5v1.6h-5V30l1-0.5v-4.7c0-0.6-0.1-1-0.3-1.3
		c-0.2-0.3-0.5-0.4-0.9-0.4c-0.4,0-0.8,0.1-1.1,0.3c-0.4,0.2-0.7,0.3-0.8,0.5l-0.3,0.3v5.3l1.1,0.5v1.6h-5.5V30l1.5-0.5v-6.6
		l-1.5-0.4V21l4.1-0.2l0.1,1.4c0.1-0.1,0.3-0.3,0.5-0.5c0.2-0.2,0.6-0.4,1.3-0.7c0.6-0.3,1.2-0.5,1.7-0.5c1.3,0,2.2,0.6,2.7,1.7
		c0.2-0.2,0.4-0.4,0.7-0.6c0.3-0.2,0.7-0.5,1.3-0.7c0.6-0.3,1.1-0.4,1.7-0.4c1,0,1.8,0.3,2.3,0.9C194.8,22.2,195.1,23,195.1,24.2z"
		/>
	<path class="st13" d="M208.4,29.9v1.7h-6v-1.7l1.5-0.5v-9.5l-1.5-0.6v-1.7l4.6-0.1h1.5c1.7,0,3,0.3,3.8,1c0.9,0.7,1.4,1.7,1.4,3
		c0,1.8-0.8,3-2.3,3.8c0.3,0.4,0.6,0.8,0.8,1.3l1.3,2.7l1.4,0.5v1.7h-3.7l-1.7-3.7c-0.4-0.8-0.6-1.3-0.8-1.5
		c-0.2-0.2-0.6-0.3-1.1-0.3H207v3.3L208.4,29.9z M207,19.9V24h1.1c0.8,0,1.4-0.2,1.8-0.5c0.4-0.4,0.7-0.9,0.7-1.6
		c0-0.6-0.2-1.1-0.5-1.4s-0.8-0.6-1.5-0.6H207z"/>
	<path class="st13" d="M225.6,26.8l-6.6,0.1c0.1,0.8,0.3,1.5,0.7,1.9c0.4,0.5,1,0.7,1.7,0.7c0.5,0,1-0.1,1.6-0.2
		c0.6-0.2,1-0.3,1.3-0.5l0.5-0.2l0.9,1.6c-0.1,0.1-0.4,0.3-0.6,0.5c-0.3,0.2-0.8,0.4-1.6,0.8s-1.6,0.5-2.3,0.5c-1.7,0-3-0.5-3.9-1.4
		s-1.3-2.3-1.3-4c0-1.8,0.5-3.2,1.4-4.2c0.9-1,2.3-1.6,3.9-1.6c1.5,0,2.6,0.4,3.4,1.3c0.8,0.8,1.2,2,1.2,3.4L225.6,26.8z M221,22.9
		c-0.5,0-1,0.2-1.3,0.6c-0.3,0.4-0.5,0.9-0.6,1.5h3.6C222.6,23.6,222.1,22.9,221,22.9z"/>
	<path class="st13" d="M227,21l4.1-0.2l0.1,1.4c0.1-0.1,0.3-0.3,0.6-0.4c0.2-0.2,0.7-0.4,1.3-0.7s1.2-0.4,1.8-0.4c1,0,1.7,0.3,2.2,1
		c0.5,0.6,0.8,1.5,0.8,2.6v5.3c0.2,0.1,0.4,0.1,0.7,0.3c0.3,0.1,0.5,0.2,0.7,0.2v1.6h-5.4V30l1.1-0.5v-4.8c0-0.5-0.1-0.9-0.4-1.1
		c-0.2-0.3-0.6-0.5-1-0.5c-0.4,0-0.7,0.1-1.1,0.3s-0.6,0.4-0.8,0.6l-0.3,0.3v5.3l1,0.5v1.6H227V30l1.5-0.5V23l-1.5-0.4V21z"/>
	<path class="st13" d="M244.9,31.8c-1.1,0-1.9-0.4-2.3-1.1c-0.4-0.7-0.6-2-0.6-3.7v-3.7h-1.9v-1.9l1.9-0.3v-2.8l2.9-0.5v3.3h2.8v2.2
		h-2.8v4.5c0,0.7,0.1,1.1,0.2,1.4c0.1,0.3,0.4,0.4,0.8,0.4c0.5,0,1-0.2,1.6-0.5l0.7,1.4C247.1,31.4,246,31.8,244.9,31.8z"/>
</g>
</svg>
