<svg xmlns="http://www.w3.org/2000/svg" xmlns:xlink="http://www.w3.org/1999/xlink" version="1.1" viewBox="0 0 96 120" x="0px" y="0px"><path d="M26 37c-5.512 0-10-4.488-10-10s4.488-10 10-10 10 4.488 10 10-4.488 10-10 10zM26 21c-3.308 0-6 2.692-6 6s2.692 6 6 6 6-2.692 6-6-2.692-6-6-6z" fill="#E66F00"/><path d="M26 47c-1.104 0-2-0.896-2-2v-4c0-1.104 0.896-2 2-2s2 0.896 2 2v4c0 1.104-0.896 2-2 2z" fill="#E66F00"/><path d="M26 15c-1.104 0-2-0.896-2-2v-4c0-1.104 0.896-2 2-2s2 0.896 2 2v4c0 1.104-0.896 2-2 2z" fill="#E66F00"/><path d="M44 29h-4c-1.104 0-2-0.896-2-2s0.896-2 2-2h4c1.104 0 2 0.896 2 2s-0.896 2-2 2z" fill="#E66F00"/><path d="M12 29h-4c-1.104 0-2-0.896-2-2s0.896-2 2-2h4c1.104 0 2 0.896 2 2s-0.896 2-2 2z" fill="#E66F00"/><path d="M38.728 41.728c-0.512 0-1.024-0.196-1.416-0.584l-2.828-2.828c-0.78-0.78-0.78-2.048 0-2.828s2.048-0.78 2.828 0l2.828 2.828c0.78 0.78 0.78 2.048 0 2.828-0.392 0.388-0.9 0.584-1.412 0.584z" fill="#E66F00"/><path d="M16.1 19.1c-0.512 0-1.024-0.196-1.416-0.584l-2.828-2.832c-0.78-0.78-0.78-2.048 0-2.828s2.048-0.78 2.828 0l2.828 2.832c0.78 0.78 0.78 2.048 0 2.828-0.388 0.392-0.9 0.584-1.412 0.584z" fill="#E66F00"/><path d="M35.9 19.1c-0.512 0-1.024-0.196-1.416-0.584-0.78-0.78-0.78-2.048 0-2.828l2.828-2.832c0.78-0.78 2.048-0.78 2.828 0s0.78 2.048 0 2.828l-2.828 2.832c-0.392 0.392-0.9 0.584-1.412 0.584z" fill="#E66F00"/><path d="M13.272 41.728c-0.512 0-1.024-0.196-1.416-0.584-0.78-0.78-0.78-2.048 0-2.828l2.828-2.828c0.78-0.78 2.048-0.78 2.828 0s0.78 2.048 0 2.828l-2.828 2.828c-0.388 0.388-0.9 0.584-1.412 0.584z" fill="#E66F00"/><path d="M92 89h-88c-1.104 0-2-0.9-2-2s0.896-2 2-2h88c1.1 0 2 0.9 2 2s-0.9 2-2 2z" fill="#303030"/><path d="M30 87c-1.104 0-2-0.9-2-2v-20c0-1.1 0.896-2 2-2s2 0.9 2 2v20c0 1.1-0.896 2-2 2z" fill="#303030"/><path d="M16.684 80.316c-0.512 0-1.024-0.196-1.416-0.584-0.78-0.78-0.78-2.052 0-2.828l22.628-22.628c0.78-0.78 2.048-0.78 2.828 0 0.78 0.776 0.78 2.048 0 2.824l-22.628 22.632c-0.388 0.388-0.9 0.584-1.412 0.584z" fill="#303030"/><path d="M54 87c-1.1 0-2-0.9-2-2v-20c0-1.1 0.9-2 2-2s2 0.9 2 2v20c0 1.1-0.9 2-2 2z" fill="#303030"/><path d="M40.684 80.316c-0.512 0-1.024-0.196-1.416-0.584-0.78-0.78-0.78-2.052 0-2.828l22.632-22.628c0.776-0.78 2.048-0.78 2.828 0 0.776 0.776 0.776 2.048 0 2.824l-22.632 22.632c-0.388 0.388-0.9 0.584-1.412 0.584z" fill="#303030"/><path d="M78 87c-1.1 0-2-0.9-2-2v-20c0-1.1 0.9-2 2-2s2 0.9 2 2v20c0 1.1-0.9 2-2 2z" fill="#303030"/><path d="M64.684 80.316c-0.512 0-1.024-0.196-1.416-0.584-0.776-0.78-0.776-2.052 0-2.828l22.632-22.628c0.776-0.78 2.048-0.78 2.828 0 0.776 0.776 0.776 2.048 0 2.824l-22.632 22.632c-0.388 0.388-0.9 0.584-1.412 0.584z" fill="#303030"/></svg>