<?xml version="1.0" encoding="utf-8"?>
<!-- Generator: Adobe Illustrator 21.0.0, SVG Export Plug-In . SVG Version: 6.00 Build 0)  -->
<svg version="1.1" id="Layer_1" xmlns="http://www.w3.org/2000/svg" xmlns:xlink="http://www.w3.org/1999/xlink" x="0px" y="0px"
	 viewBox="0 0 426 167" style="enable-background:new 0 0 426 167;" xml:space="preserve">
<style type="text/css">
	.st0{fill:#100E0F;}
</style>
<g>
	<path class="st0" d="M104.3,81H74c-0.8,0-1.4,0.6-1.4,1.4v14.8c0,0.8,0.6,1.4,1.4,1.4h11.8V117c0,0-2.7,0.9-10,0.9
		c-8.6,0-20.7-3.2-20.7-29.7c0-26.6,12.6-30.1,24.4-30.1c10.2,0,14.6,1.8,17.4,2.7c0.9,0.3,1.7-0.6,1.7-1.4l3.4-14.3
		c0-0.4-0.1-0.8-0.5-1.1c-1.1-0.8-8.1-4.7-25.6-4.7c-20.2,0-40.9,8.6-40.9,49.9c0,41.3,23.7,47.5,43.7,47.5
		c16.6,0,26.6-7.1,26.6-7.1c0.4-0.2,0.5-0.8,0.5-1.1V82.4C105.7,81.6,105.1,81,104.3,81z"/>
	<path class="st0" d="M260.3,44.2c0-0.8-0.6-1.4-1.4-1.4h-17c-0.8,0-1.4,0.6-1.4,1.4c0,0,0,32.9,0,32.9h-26.6V44.2
		c0-0.8-0.6-1.4-1.4-1.4h-17c-0.8,0-1.4,0.6-1.4,1.4v89.2c0,0.8,0.6,1.4,1.4,1.4h17c0.8,0,1.4-0.6,1.4-1.4V95.3h26.6
		c0,0,0,38.1,0,38.1c0,0.8,0.6,1.4,1.4,1.4h17.1c0.8,0,1.4-0.6,1.4-1.4V44.2z"/>
	<g>
		<g>
			<ellipse class="st0" cx="125.5" cy="56" rx="11" ry="11.1"/>
			<path class="st0" d="M135.2,114.6c0-2.3,0-41.2,0-41.2c0-0.8-0.6-1.4-1.4-1.4h-17c-0.8,0-1.5,0.8-1.5,1.6c0,0,0,49.5,0,59
				c0,1.7,1.1,2.2,2.5,2.2c0,0,7.3,0,15.3,0c1.7,0,2.1-0.8,2.1-2.3C135.2,129.4,135.2,117,135.2,114.6z"/>
		</g>
	</g>
	<path class="st0" d="M325,72.2h-16.9c-0.8,0-1.4,0.6-1.4,1.4v43.7c0,0-4.3,3.1-10.4,3.1c-6.1,0-7.7-2.8-7.7-8.7c0-6,0-38.1,0-38.1
		c0-0.8-0.6-1.4-1.4-1.4H270c-0.8,0-1.4,0.6-1.4,1.4c0,0,0,23.3,0,41c0,17.7,9.9,22.1,23.5,22.1c11.2,0,20.1-6.2,20.1-6.2
		s0.4,3.2,0.6,3.6c0.2,0.4,0.7,0.8,1.2,0.8l10.9,0c0.8,0,1.4-0.6,1.4-1.4l0-59.9C326.4,72.8,325.8,72.2,325,72.2z"/>
	<path class="st0" d="M371.3,70.2c-9.6,0-16.1,4.3-16.1,4.3V44.2c0-0.8-0.6-1.4-1.4-1.4h-17.1c-0.8,0-1.4,0.6-1.4,1.4v89.2
		c0,0.8,0.6,1.4,1.4,1.4c0,0,11.9,0,11.9,0c0.5,0,0.9-0.3,1.2-0.8c0.3-0.5,0.7-4.1,0.7-4.1s7,6.6,20.2,6.6
		c15.5,0,24.4-7.9,24.4-35.4C395.1,73.8,380.9,70.2,371.3,70.2z M364.6,120.4c-5.9-0.2-9.8-2.8-9.8-2.8V89.3c0,0,3.9-2.4,8.7-2.8
		c6.1-0.5,12,1.3,12,15.8C375.4,117.6,372.8,120.7,364.6,120.4z"/>
	<path class="st0" d="M184.2,72h-12.8c0,0,0-16.9,0-16.9c0-0.6-0.3-1-1.1-1h-17.4c-0.7,0-1,0.3-1,0.9v17.5c0,0-8.7,2.1-9.3,2.3
		c-0.6,0.2-1,0.7-1,1.4v11c0,0.8,0.6,1.4,1.4,1.4h8.9c0,0,0,11.5,0,26.4c0,19.6,13.7,21.5,23,21.5c4.2,0,9.3-1.4,10.1-1.7
		c0.5-0.2,0.8-0.7,0.8-1.3l0-12.1c0-0.8-0.7-1.4-1.4-1.4c-0.7,0-2.7,0.3-4.6,0.3c-6.3,0-8.4-2.9-8.4-6.7c0-3.8,0-25.1,0-25.1h12.8
		c0.8,0,1.4-0.6,1.4-1.4V73.4C185.6,72.7,185,72,184.2,72z"/>
</g>
</svg>
