<?xml version="1.0" encoding="utf-8"?>
<!-- Generator: Adobe Illustrator 21.0.0, SVG Export Plug-In . SVG Version: 6.00 Build 0)  -->
<svg version="1.1" id="Layer_1" xmlns="http://www.w3.org/2000/svg" xmlns:xlink="http://www.w3.org/1999/xlink" x="0px" y="0px"
	 viewBox="0 0 579.8 155" style="enable-background:new 0 0 579.8 155;" xml:space="preserve">
<style type="text/css">
	.st0{fill:#007BB6;}
	.st1{fill:#FFFFFF;}
</style>
<g>
	<g>
		<g>
			<polygon points="8,27.3 30.2,27.3 30.2,108.2 71.3,108.2 71.3,128.7 8,128.7 			"/>
			<g>
				<path d="M81.2,60h21.4v68.7H81.2V60z M91.8,25.8c6.8,0,12.4,5.5,12.4,12.4c0,6.8-5.5,12.4-12.4,12.4c-6.8,0-12.4-5.5-12.4-12.4
					C79.4,31.3,85,25.8,91.8,25.8"/>
			</g>
			<polygon points="191.8,27.3 213.1,27.3 213.1,87.9 237.3,59.9 263.4,59.9 235.4,91.7 262.9,128.7 236,128.7 213.4,94.7 
				213.1,94.7 213.1,128.7 191.8,128.7 			"/>
			<path d="M114.3,60h20.5v9.4h0.3c2.8-5.4,9.8-11.1,20.2-11.1c21.6,0,25.6,14.2,25.6,32.7v37.7h-21.4V95.3c0-8-0.1-18.2-11.1-18.2
				c-11.1,0-12.8,8.7-12.8,17.6v34h-21.4V60z"/>
			<path d="M308.4,86.3c0.1-7.1-5.4-13.1-13.1-13.1c-9.4,0-14.5,6.4-15.1,13.1H308.4z M326.5,116.8c-6.8,8.7-18.1,13.7-29.2,13.7
				c-21.3,0-38.4-14.2-38.4-36.3c0-22.1,17.1-36.3,38.4-36.3c19.9,0,32.5,14.2,32.5,36.3v6.7h-49.5c1.7,8.1,7.8,13.4,16.1,13.4
				c7,0,11.7-3.6,15.2-8.4L326.5,116.8z"/>
			<path d="M374.2,76.6c-10.7,0-17.1,7.1-17.1,17.5c0,10.4,6.4,17.5,17.1,17.5c10.7,0,17.1-7.1,17.1-17.5
				C391.3,83.7,384.9,76.6,374.2,76.6 M410.9,128.7h-19.6v-9.1H391c-3.3,5-11.5,10.8-21.2,10.8c-20.5,0-34-14.8-34-35.7
				c0-19.2,12-36.9,31.6-36.9c8.8,0,17.1,2.4,21.9,9.1h0.3V27.3h21.4V128.7z"/>
		</g>
		<path class="st0" d="M565.6,6H442.9c-5.9,0-10.6,4.6-10.6,10.4v123.2c0,5.7,4.8,10.4,10.6,10.4h122.7c5.9,0,10.7-4.7,10.7-10.4
			V16.4C576.3,10.6,571.5,6,565.6,6z"/>
		<path class="st1" d="M453.6,60H475v68.7h-21.4V60z M464.3,25.8c6.8,0,12.4,5.5,12.4,12.4c0,6.8-5.5,12.4-12.4,12.4
			c-6.8,0-12.4-5.6-12.4-12.4C451.9,31.4,457.5,25.8,464.3,25.8"/>
		<path class="st1" d="M488.4,60h20.5v9.4h0.3c2.8-5.4,9.8-11.1,20.2-11.1C551,58.3,555,72.5,555,91v37.7h-21.3V95.3
			c0-8-0.1-18.2-11.1-18.2c-11.1,0-12.8,8.7-12.8,17.6v34h-21.3V60z"/>
	</g>
	<g>
		<path d="M584.2,126c0.7-0.1,1-0.5,1-1.1c0-0.8-0.5-1.1-1.4-1.1h-1.5v4h0.6V126h0.7l0,0l1.1,1.7h0.6L584.2,126L584.2,126z
			 M583.5,125.6h-0.7v-1.4h0.9c0.4,0,0.9,0.1,0.9,0.6C584.7,125.5,584.2,125.6,583.5,125.6z"/>
		<path d="M583.6,122c-2.1,0-3.8,1.7-3.8,3.8c0,2.1,1.7,3.8,3.8,3.8c2.1,0,3.8-1.7,3.8-3.8C587.4,123.6,585.8,122,583.6,122z
			 M583.6,129.1c-1.8,0-3.3-1.4-3.3-3.3c0-1.9,1.4-3.3,3.3-3.3c1.8,0,3.3,1.4,3.3,3.3C586.9,127.7,585.4,129.1,583.6,129.1z"/>
	</g>
</g>
</svg>
