<?xml version="1.0" encoding="utf-8"?>
<!-- Generator: Adobe Illustrator 21.0.0, SVG Export Plug-In . SVG Version: 6.00 Build 0)  -->
<svg version="1.1" xmlns="http://www.w3.org/2000/svg" xmlns:xlink="http://www.w3.org/1999/xlink" x="0px" y="0px"
	 viewBox="0 0 1920 1040" style="enable-background:new 0 0 1920 1040;" xml:space="preserve">
<style type="text/css">
	.st0{fill:#EFEFEF;}
	.st1{fill:#77DDE8;stroke:#FFFFFF;stroke-miterlimit:10;}
	.st2{fill:#EA5A4F;}
	.st3{fill:#112D32;}
	.st4{fill:none;stroke:#FFFFFF;stroke-width:10;stroke-miterlimit:10;}
</style>
<g id="Backgrounds">
	<rect class="st0" width="1920" height="1040"/>
	<path id="River" class="st1" d="M865.7,0c0.2,6.9,0.2,17.5-1.2,30.4c-1.9,16.8-4.6,23.3-9.4,48.2c-2.9,15.1-4.6,23.9-5.9,36.5
		c-1.1,10.3-0.8,12.5-2.4,48.2c-1,21.9-1.1,21-1.2,27.1c-0.3,17.8,0.7,22.3,1.2,43.5c0.5,22-0.5,20.5,0,41.2
		c0.3,13.3,0.6,26,2.4,42.4c2.7,25.3,5.4,27.9,5.9,45.9c0.3,11.2-0.6,18.9-2.4,34.1c-2.5,21.9-4.6,26.2-9.4,56.5
		c-3.7,22.9-5.5,34.3-5.9,47.1c-0.2,7.3,0.2,19,1.2,42.4c1.2,29.4,1.5,29.2,1.2,35.3c-1.2,20.5-6.2,36.1-9.4,45.9
		c-5.5,16.9-11.8,28.9-16.5,37.6c-7.7,14.6-12.1,22.7-20,31.8c-3.3,3.7-18.4,20.4-42.4,29.4c-13.9,5.2-22.6,4.8-64.7,3.5
		c-66.4-2-74-1.8-85.9,0c-15.9,2.4-36.1,5.8-58.8,18.8c-26.5,15.2-40.7,34.8-43.5,38.8c-11.5,16.2-15.5,30-23.5,57.6
		c-6.1,21.1-10.3,35.3-10.6,55.3c-0.2,15.8,2.1,20.7,0,36.5c-2.3,17-5.7,16.6-9.4,36.5c-2.7,14.8-3.1,27.1-3.5,44.7
		c-0.3,10.3-0.2,18.9,0,24.9c21.6,0,43.1,0,64.7,0c-0.3-15-0.8-27.1-1.2-35.5c-0.6-12.9-0.9-15.2,0-20c2.7-14.4,9.5-15.3,12.9-29.4
		c2.7-11.1-1.1-12.5,1.2-27.1c1.7-11.4,4.6-14.4,8.2-25.9c5.4-17.3,2.1-20.9,5.9-43.5c3.7-21.9,5.5-32.8,12.9-42.4
		c7.5-9.6,19.1-14.3,42.4-23.5c19.2-7.7,28.9-11.5,43.5-12.9c12.4-1.2,15.3,0.7,42.4,0c8.6-0.2,15.6-0.4,24.7-1.2
		c13-1.1,30.9-2.7,51.8-9.4c16.7-5.4,28.4-11.9,36.5-16.5c18.8-10.6,38.6-21.8,54.1-43.5c6.2-8.7,10.4-18,18.8-36.5
		c4-8.8,9.1-20.1,14.1-35.3c5.5-16.5,8-29.5,12.9-55.3c3.9-20.3,5.9-30.6,5.9-38.8c0-17.7-3.8-20.5-7.1-44.7
		c-1.9-14.4-4.4-32.8-1.2-54.1c3.1-20.7,8-20.8,14.1-45.9c2.4-10.1,7.8-32.9,5.9-60c-1.9-25.7-8.1-24-15.3-63.5
		c-3.9-21.1-1.1-16.1-7.1-58.8c-3-21.5-4.7-29.5-3.5-43.5c0.9-11.1,3-19.4,7.1-35.3c5.8-22.9,8-24.1,11.8-40
		c4.8-20.6,5.5-37.2,5.9-49.4c0.4-13.1,0.1-29.4-2.4-48C896.3,0,881,0,865.7,0z"/>
</g>
<g id="Labels">
	<g>
		<path class="st2" d="M1043.2,528.5v-48.2h16.4l11.1,18.3h1v-18.3h16.7v48.2H1072l-10.9-19.7h-1.1v19.7H1043.2z"/>
		<path class="st2" d="M1092.8,528.5v-48.2h16.7v48.2H1092.8z"/>
		<path class="st2" d="M1149,527.6c-5.1,1.2-10.3,1.9-15.6,1.9s-9.4-0.8-12.3-2.3c-2.9-1.5-5-4-6.2-7.6c-1.3-3.6-1.9-8.7-1.9-15.3
			c0-9.6,1.5-16.1,4.4-19.6c3-3.5,8.6-5.3,16.9-5.3c3.5,0,7.5,0.5,12.2,1.4l2.5,0.5l-0.4,12.9c-3.9-0.5-7.6-0.7-10.9-0.7
			c-3.3,0-5.5,0.6-6.4,1.9c-1,1.3-1.4,3.9-1.4,7.9c0,4,0.2,6.7,0.7,8.3c0.5,1.5,1.2,2.6,2.2,3.1c1,0.5,2.6,0.8,4.9,0.8l11.2-0.4
			L1149,527.6z"/>
		<path class="st2" d="M1178.3,528.5v-16.8h-9.4v16.8h-16.7v-48.2h16.7V498h9.4v-17.8h16.7v48.2H1178.3z"/>
		<path class="st2" d="M1244.3,504.4c0,8.8-1.8,15.2-5.5,19.1c-3.6,4-9.5,5.9-17.5,5.9s-13.8-2-17.5-6c-3.7-4-5.5-10.4-5.5-19.1
			c0-8.8,1.8-15.1,5.5-19.1c3.6-4,9.5-5.9,17.5-5.9c8,0,13.8,2,17.5,5.9C1242.4,489.2,1244.3,495.6,1244.3,504.4z M1215.2,504.4
			c0,4.1,0.4,7,1.2,8.8c0.8,1.8,2.4,2.7,5,2.7c2.5,0,4.2-0.9,4.9-2.7c0.8-1.8,1.2-4.7,1.2-8.9c0-4.2-0.4-7.1-1.1-8.9
			c-0.7-1.8-2.4-2.6-4.9-2.6c-2.5,0-4.2,0.9-5,2.7C1215.6,497.4,1215.2,500.3,1215.2,504.4z"/>
		<path class="st2" d="M1280,528.5h-32.4v-48.2h16.7v34.6h15.7V528.5z"/>
		<path class="st2" d="M1280.3,528.5l10.7-48.2h25.3l10.9,48.2h-16.8l-1.4-5.5h-11l-1.2,5.5H1280.3z M1302.7,493.4l-2.7,16.8h7.1
			l-2.6-16.8H1302.7z"/>
		<path class="st2" d="M1365.5,494.2c-6.8-0.7-11.7-1.1-14.8-1.1c-3.1,0-4.9,0.1-5.4,0.3c-0.5,0.2-0.8,0.5-0.8,1
			c0,0.5,0.3,0.9,0.9,1.2c0.6,0.3,2.4,0.8,5.4,1.4c3,0.7,5.5,1.3,7.5,2s3.7,1.6,5.3,2.7c1.6,1.2,2.6,2.6,3.1,4.3
			c0.5,1.7,0.8,4,0.8,6.9c0,6-1.6,10.2-4.8,12.7c-3.2,2.5-7.9,3.8-14.3,3.8c-3.1,0-6.3-0.2-9.7-0.6c-3.4-0.4-6-0.9-7.8-1.3l-2.8-0.6
			l0.7-12.7c7.3,1.1,13.4,1.6,18.1,1.6c2.5,0,3.7-0.6,3.7-1.7c0-0.5-0.3-0.8-0.9-1c-0.6-0.2-2.1-0.5-4.7-0.9
			c-6.7-1.1-11.3-2.7-13.7-4.9c-2.4-2.2-3.6-5.9-3.6-11c0-6.5,1.6-10.9,4.7-13.3c3.1-2.4,7.9-3.6,14.4-3.6c4.6,0,9.9,0.5,16.1,1.4
			l3,0.5L1365.5,494.2z"/>
		<path class="st2" d="M1406.7,516h-4.1v12.5h-16.7v-48.2h20.3c7.4,0,12.8,1.2,16,3.7c3.2,2.5,4.8,7.1,4.8,13.8
			c0,6.7-1.8,11.5-5.3,14.4l4.8,16.4h-17L1406.7,516z M1406.6,502.9c2.4,0,3.5-1.6,3.5-4.7c0-3.1-1.3-4.7-4-4.7h-3.7v9.4H1406.6z"/>
		<path class="st2" d="M1475.2,504.4c0,8.8-1.8,15.2-5.5,19.1c-3.6,4-9.5,5.9-17.5,5.9s-13.8-2-17.5-6c-3.7-4-5.5-10.4-5.5-19.1
			c0-8.8,1.8-15.1,5.5-19.1c3.6-4,9.5-5.9,17.5-5.9c8,0,13.8,2,17.5,5.9C1473.4,489.2,1475.2,495.6,1475.2,504.4z M1446.2,504.4
			c0,4.1,0.4,7,1.2,8.8c0.8,1.8,2.4,2.7,5,2.7c2.5,0,4.2-0.9,4.9-2.7c0.8-1.8,1.2-4.7,1.2-8.9c0-4.2-0.4-7.1-1.1-8.9
			c-0.7-1.8-2.4-2.6-4.9-2.6c-2.5,0-4.2,0.9-5,2.7C1446.6,497.4,1446.2,500.3,1446.2,504.4z"/>
		<path class="st2" d="M1511,528.5h-32.4v-48.2h16.7v34.6h15.7V528.5z"/>
		<path class="st2" d="M1550.5,494.2c-6.8-0.7-11.7-1.1-14.8-1.1c-3.1,0-4.9,0.1-5.4,0.3c-0.5,0.2-0.8,0.5-0.8,1
			c0,0.5,0.3,0.9,0.9,1.2c0.6,0.3,2.4,0.8,5.4,1.4c3,0.7,5.5,1.3,7.5,2s3.7,1.6,5.3,2.7c1.6,1.2,2.6,2.6,3.1,4.3
			c0.5,1.7,0.8,4,0.8,6.9c0,6-1.6,10.2-4.8,12.7c-3.2,2.5-7.9,3.8-14.3,3.8c-3.1,0-6.3-0.2-9.7-0.6c-3.4-0.4-6-0.9-7.8-1.3l-2.8-0.6
			l0.7-12.7c7.3,1.1,13.4,1.6,18.1,1.6c2.5,0,3.7-0.6,3.7-1.7c0-0.5-0.3-0.8-0.9-1c-0.6-0.2-2.1-0.5-4.7-0.9
			c-6.7-1.1-11.3-2.7-13.7-4.9c-2.4-2.2-3.6-5.9-3.6-11c0-6.5,1.6-10.9,4.7-13.3c3.1-2.4,7.9-3.6,14.4-3.6c4.6,0,9.9,0.5,16.1,1.4
			l3,0.5L1550.5,494.2z"/>
		<path class="st2" d="M1553.4,493.9v-13.6h36v13.6h-9.4v34.6h-16.7v-34.6H1553.4z"/>
		<path class="st2" d="M1585.8,528.5l10.7-48.2h25.3l10.9,48.2h-16.8l-1.4-5.5h-11l-1.2,5.5H1585.8z M1608.2,493.4l-2.7,16.8h7.1
			l-2.6-16.8H1608.2z"/>
		<path class="st2" d="M1655.4,528.5h-21.1v-48.2h20.4c8.3,0,14.3,1.9,17.9,5.6c3.6,3.7,5.5,9.7,5.5,18c0,8.2-1.8,14.4-5.3,18.5
			C1669.3,526.4,1663.5,528.5,1655.4,528.5z M1661.2,504.7c0-4.3-0.4-7.2-1.3-8.6c-0.9-1.4-2.9-2.2-5.9-2.2h-3v21h3
			c2.5,0,4.3-0.6,5.5-1.9C1660.6,511.8,1661.2,509,1661.2,504.7z"/>
	</g>
	<g>
		<path class="st3" d="M952.1,720.6v-2.3h7.9v14.1c-0.8,0.2-2.2,0.4-4.3,0.7c-2,0.3-3.7,0.4-5.1,0.4c-4.2,0-7.1-1.2-8.7-3.7
			c-1.6-2.5-2.4-6.2-2.4-11.2c0-2.5,0.2-4.6,0.5-6.4s0.9-3.3,1.8-4.7c1.6-2.7,4.5-4,8.9-4c2.6,0,5.3,0.3,8,0.8l1.4,0.3l-0.1,2.2
			c-3.5-0.6-6.5-1-9.1-1c-3.4,0-5.7,1-6.9,3c-1.2,2-1.8,5.3-1.8,9.7c0,4.4,0.6,7.6,1.8,9.6c1.2,2,3.5,3,6.8,3c2,0,4.2-0.2,6.7-0.7
			v-9.8H952.1z"/>
		<path class="st3" d="M966.6,733v-29.2h2.6V733H966.6z"/>
		<path class="st3" d="M984.4,705.7c-4.5,0-6.8,1.7-6.8,5.2c0,2,0.5,3.4,1.5,4.1c1,0.7,3,1.3,6,1.9c3,0.6,5.1,1.4,6.4,2.4
			c1.3,1,1.9,2.8,1.9,5.2c0,3.1-0.8,5.4-2.3,6.8s-3.8,2.1-6.8,2.1c-2.2,0-4.7-0.2-7.6-0.6l-1.5-0.2l0.3-2.2c3.8,0.5,6.8,0.7,8.9,0.7
			c2.1,0,3.7-0.5,4.8-1.5c1.1-1,1.6-2.5,1.6-4.5s-0.5-3.3-1.4-4c-1-0.7-2.5-1.3-4.6-1.7c-2.1-0.4-3.7-0.7-4.6-1.1s-1.9-0.8-2.8-1.4
			c-0.9-0.6-1.5-1.4-1.8-2.3c-0.4-0.9-0.5-2.1-0.5-3.5c0-5.1,3.1-7.6,9.2-7.6c1.8,0,4.3,0.2,7.2,0.6l1.4,0.2l-0.2,2.2
			C988.7,705.9,986,705.7,984.4,705.7z"/>
		<path class="st3" d="M1006.2,703.8h2.6l5.3,26.9h1.4l6.1-26.5h3.1l6.1,26.5h1.4l5.3-26.9h2.6l-6,29.2h-5.2l-5.8-25.6l-5.8,25.6
			h-5.2L1006.2,703.8z"/>
		<path class="st3" d="M1045.1,733v-29.2h17.5v2.4h-14.9V717h12.4v2.3h-12.4v11.4h14.9v2.3H1045.1z"/>
		<path class="st3" d="M1068.3,703.8h10.4c5.7,0,8.6,2.5,8.6,7.4c0,3.4-1.3,5.7-3.9,6.8c3.2,1,4.8,3.3,4.8,6.9c0,2.9-0.8,5-2.3,6.3
			c-1.5,1.2-3.7,1.8-6.7,1.8h-11V703.8z M1078.6,706.1h-7.7V717h8.1c2,0,3.4-0.5,4.3-1.4c0.9-0.9,1.4-2.3,1.4-4.2s-0.5-3.2-1.5-4
			C1082.2,706.5,1080.7,706.1,1078.6,706.1z M1079,719.3h-8.1v11.4h8.4c2,0,3.6-0.4,4.7-1.3c1.1-0.9,1.6-2.4,1.6-4.6
			C1085.6,721.1,1083.4,719.3,1079,719.3z"/>
		<path class="st3" d="M1114.1,733h-10.6v-29.2h10.6c6.9,0,10.4,4.7,10.4,14.2C1124.5,728,1121,733,1114.1,733z M1121.8,718
			c0-7.9-2.6-11.8-7.7-11.8h-8v24.5h8C1119.2,730.7,1121.8,726.5,1121.8,718z"/>
		<path class="st3" d="M1130.6,733v-29.2h17.5v2.4h-14.9V717h12.4v2.3h-12.4v11.4h14.9v2.3H1130.6z"/>
		<path class="st3" d="M1170.6,703.8h2.6l-7.8,29.2h-6.3l-7.9-29.2h2.7l7.1,26.9h2.5L1170.6,703.8z"/>
		<path class="st3" d="M1178,733v-29.2h17.5v2.4h-14.9V717h12.4v2.3h-12.4v11.4h14.9v2.3H1178z"/>
		<path class="st3" d="M1217.2,733h-16v-29.2h2.6v26.8h13.4V733z"/>
		<path class="st3" d="M1242.1,718.6c0,5.2-0.8,9-2.5,11.3c-1.6,2.3-4.6,3.5-8.9,3.5s-7.3-1.2-8.9-3.6c-1.6-2.4-2.5-6.1-2.5-11.3
			c0-5.1,0.8-9,2.5-11.4c1.7-2.5,4.6-3.7,8.9-3.7c4.3,0,7.3,1.2,8.9,3.7C1241.2,709.6,1242.1,713.4,1242.1,718.6z M1223.7,728.1
			c1.2,1.9,3.5,2.9,7,2.9s5.8-1,7-2.9c1.2-1.9,1.8-5.1,1.8-9.6s-0.6-7.7-1.8-9.8c-1.2-2.1-3.5-3.1-6.9-3.1c-3.5,0-5.8,1.1-7,3.4
			c-0.6,1.1-1.1,2.5-1.3,3.9c-0.2,1.5-0.4,3.3-0.4,5.5C1222,723,1222.6,726.2,1223.7,728.1z"/>
		<path class="st3" d="M1258.9,722.8h-8.1V733h-2.6v-29.2h10.7c3.1,0,5.4,0.8,6.9,2.3c1.5,1.5,2.2,3.8,2.2,7
			C1268,719.6,1264.9,722.8,1258.9,722.8z M1250.8,720.5h8.1c4.3,0,6.4-2.5,6.4-7.5c0-2.4-0.5-4.1-1.5-5.3c-1-1.1-2.6-1.7-4.9-1.7
			h-8.1V720.5z"/>
		<path class="st3" d="M1273.1,733v-29.2h4.9l9,25.5l9-25.5h4.9V733h-2.6v-26.5h-0.6l-9.2,25.5h-3.1l-9.2-25.5h-0.6V733H1273.1z"/>
		<path class="st3" d="M1308.2,733v-29.2h17.5v2.4h-14.9V717h12.4v2.3h-12.4v11.4h14.9v2.3H1308.2z"/>
		<path class="st3" d="M1331.4,733v-29.2h5.1l12.2,26.9h1v-26.9h2.6V733h-5l-12.3-26.8h-0.9V733H1331.4z"/>
		<path class="st3" d="M1356.5,706.2v-2.4h21v2.4h-9.2V733h-2.6v-26.8H1356.5z"/>
		<path class="st3" d="M1395.3,705.3c1.2-1.1,3-1.7,5.2-1.7c2.3,0,4,0.6,5.1,1.7c1.2,1.1,1.7,2.6,1.7,4.6s-0.5,3.5-1.5,4.6
			c-1,1.1-2.7,2.2-5.1,3.2l6.9,6.8c0.3-0.7,0.6-1.8,0.8-3.3c0.3-1.5,0.4-2.8,0.5-3.9l2.5,0c-0.4,3.6-1,6.6-1.9,8.8l5.6,5.3l-1.6,1.7
			l-5.3-5c-1.9,3.4-4.9,5.1-9.1,5.1c-3.7,0-6.3-0.8-7.8-2.3c-1.5-1.5-2.3-3.6-2.3-6.4c0-2.7,0.5-4.7,1.5-5.9c1-1.2,2.7-2.2,5.1-2.9
			c-1-1.1-1.6-2.1-1.9-2.9s-0.4-1.9-0.4-3.3C1393.4,707.9,1394.1,706.4,1395.3,705.3z M1399.1,731.1c3.6,0,6-1.4,7.5-4.3l-9.3-9.2
			c-2.1,0.6-3.5,1.4-4.4,2.4c-0.8,1-1.3,2.5-1.3,4.6C1391.6,728.9,1394.1,731.1,1399.1,731.1z M1396,710.1c0,1.9,0.6,3.5,1.9,4.8
			l1.3,1.3c2.1-0.8,3.6-1.7,4.4-2.5c0.8-0.9,1.2-2.1,1.2-3.6c0-2.8-1.5-4.2-4.4-4.2S1396,707.3,1396,710.1z"/>
		<path class="st3" d="M1446.4,732.5c-2.9,0.6-5.3,0.9-7.4,0.9c-2,0-3.7-0.2-4.9-0.7c-1.2-0.4-2.3-1-3-1.8c-0.8-0.8-1.4-1.8-1.8-3.1
			c-0.8-2.3-1.3-5.4-1.3-9.4c0-6.3,1-10.5,3-12.6c1.7-1.7,4.2-2.6,7.6-2.6c2.3,0,5,0.3,7.9,0.9l-0.1,2.3c-2.9-0.5-5.3-0.8-7-0.8
			c-1.8,0-3.1,0.2-4.1,0.6c-1,0.4-1.8,0.9-2.4,1.5c-0.6,0.6-1.1,1.5-1.4,2.6c-0.6,1.9-0.8,4.3-0.8,7.1c0,2.9,0.1,5,0.3,6.4
			c0.2,1.4,0.6,2.7,1.1,3.8c0.6,1.1,1.4,2,2.5,2.5c1.1,0.5,2.6,0.8,4.5,0.8c1.9,0,4.3-0.3,7.2-0.8L1446.4,732.5z"/>
		<path class="st3" d="M1449.2,733l8.4-29.2h6.1l8.4,29.2h-2.6l-2.4-8.1h-13l-2.3,8.1H1449.2z M1459.5,706.1l-4.7,16.5h11.8
			l-4.7-16.5H1459.5z"/>
		<path class="st3" d="M1479.3,721.5V733h-2.6v-29.2h10.7c3.1,0,5.3,0.7,6.8,2.1c1.5,1.4,2.2,3.6,2.2,6.6c0,4.7-1.9,7.5-5.6,8.5
			l6,12h-2.9l-5.8-11.5H1479.3z M1493.8,712.5c0-2.2-0.5-3.8-1.6-4.8c-1-1-2.6-1.6-4.8-1.6h-8.1v13.1h8.1
			C1491.7,719.2,1493.8,717,1493.8,712.5z"/>
		<path class="st3" d="M1498.9,706.2v-2.4h21v2.4h-9.2V733h-2.6v-26.8H1498.9z"/>
		<path class="st3" d="M1544.8,718.6c0,5.2-0.8,9-2.5,11.3c-1.6,2.3-4.6,3.5-8.9,3.5s-7.3-1.2-8.9-3.6c-1.6-2.4-2.5-6.1-2.5-11.3
			c0-5.1,0.8-9,2.5-11.4c1.7-2.5,4.6-3.7,8.9-3.7c4.3,0,7.3,1.2,8.9,3.7C1544,709.6,1544.8,713.4,1544.8,718.6z M1526.5,728.1
			c1.2,1.9,3.5,2.9,7,2.9s5.8-1,7-2.9c1.2-1.9,1.8-5.1,1.8-9.6s-0.6-7.7-1.8-9.8c-1.2-2.1-3.5-3.1-6.9-3.1c-3.5,0-5.8,1.1-7,3.4
			c-0.6,1.1-1.1,2.5-1.3,3.9c-0.2,1.5-0.4,3.3-0.4,5.5C1524.7,723,1525.3,726.2,1526.5,728.1z"/>
		<path class="st3" d="M1562.4,720.6v-2.3h7.9v14.1c-0.8,0.2-2.2,0.4-4.3,0.7c-2,0.3-3.7,0.4-5.1,0.4c-4.2,0-7.1-1.2-8.7-3.7
			c-1.6-2.5-2.4-6.2-2.4-11.2c0-2.5,0.2-4.6,0.5-6.4s0.9-3.3,1.8-4.7c1.6-2.7,4.5-4,8.9-4c2.6,0,5.3,0.3,8,0.8l1.4,0.3l-0.1,2.2
			c-3.5-0.6-6.5-1-9.1-1c-3.4,0-5.7,1-6.9,3c-1.2,2-1.8,5.3-1.8,9.7c0,4.4,0.6,7.6,1.8,9.6c1.2,2,3.5,3,6.8,3c2,0,4.2-0.2,6.7-0.7
			v-9.8H1562.4z"/>
		<path class="st3" d="M1579.5,721.5V733h-2.6v-29.2h10.7c3.1,0,5.3,0.7,6.8,2.1c1.5,1.4,2.2,3.6,2.2,6.6c0,4.7-1.9,7.5-5.6,8.5
			l6,12h-2.9l-5.8-11.5H1579.5z M1594,712.5c0-2.2-0.5-3.8-1.6-4.8c-1-1-2.6-1.6-4.8-1.6h-8.1v13.1h8.1
			C1591.8,719.2,1594,717,1594,712.5z"/>
		<path class="st3" d="M1599.8,733l8.4-29.2h6.1l8.4,29.2h-2.6l-2.4-8.1h-13l-2.3,8.1H1599.8z M1610.1,706.1l-4.7,16.5h11.8
			l-4.7-16.5H1610.1z"/>
		<path class="st3" d="M1638,722.8h-8.1V733h-2.6v-29.2h10.7c3.1,0,5.4,0.8,6.9,2.3c1.5,1.5,2.2,3.8,2.2,7
			C1647.1,719.6,1644.1,722.8,1638,722.8z M1629.9,720.5h8.1c4.3,0,6.4-2.5,6.4-7.5c0-2.4-0.5-4.1-1.5-5.3c-1-1.1-2.6-1.7-4.9-1.7
			h-8.1V720.5z"/>
		<path class="st3" d="M1670.7,733v-13.5h-15.8V733h-2.6v-29.2h2.6v13.4h15.8v-13.4h2.6V733H1670.7z"/>
		<path class="st3" d="M1680.6,733v-29.2h2.6V733H1680.6z"/>
		<path class="st3" d="M1707.9,732.5c-2.9,0.6-5.3,0.9-7.4,0.9c-2,0-3.7-0.2-4.9-0.7c-1.2-0.4-2.3-1-3-1.8c-0.8-0.8-1.4-1.8-1.8-3.1
			c-0.8-2.3-1.3-5.4-1.3-9.4c0-6.3,1-10.5,3-12.6c1.7-1.7,4.2-2.6,7.6-2.6c2.3,0,5,0.3,7.9,0.9l-0.1,2.3c-2.9-0.5-5.3-0.8-7-0.8
			c-1.8,0-3.1,0.2-4.1,0.6c-1,0.4-1.8,0.9-2.4,1.5c-0.6,0.6-1.1,1.5-1.4,2.6c-0.6,1.9-0.8,4.3-0.8,7.1c0,2.9,0.1,5,0.3,6.4
			c0.2,1.4,0.6,2.7,1.1,3.8c0.6,1.1,1.4,2,2.5,2.5c1.1,0.5,2.6,0.8,4.5,0.8c1.9,0,4.3-0.3,7.2-0.8L1707.9,732.5z"/>
		<path class="st3" d="M1733.2,733h-10.6v-29.2h10.6c6.9,0,10.4,4.7,10.4,14.2C1743.6,728,1740.1,733,1733.2,733z M1740.9,718
			c0-7.9-2.6-11.8-7.7-11.8h-8v24.5h8C1738.3,730.7,1740.9,726.5,1740.9,718z"/>
		<path class="st3" d="M1749.7,733v-29.2h17.5v2.4h-14.9V717h12.4v2.3h-12.4v11.4h14.9v2.3H1749.7z"/>
		<path class="st3" d="M1780.6,705.7c-4.5,0-6.8,1.7-6.8,5.2c0,2,0.5,3.4,1.5,4.1c1,0.7,3,1.3,6,1.9c3,0.6,5.1,1.4,6.4,2.4
			c1.3,1,1.9,2.8,1.9,5.2c0,3.1-0.8,5.4-2.3,6.8s-3.8,2.1-6.8,2.1c-2.2,0-4.7-0.2-7.6-0.6l-1.5-0.2l0.3-2.2c3.8,0.5,6.8,0.7,8.9,0.7
			c2.1,0,3.7-0.5,4.8-1.5c1.1-1,1.6-2.5,1.6-4.5s-0.5-3.3-1.4-4c-1-0.7-2.5-1.3-4.6-1.7c-2.1-0.4-3.7-0.7-4.6-1.1s-1.9-0.8-2.8-1.4
			c-0.9-0.6-1.5-1.4-1.8-2.3c-0.4-0.9-0.5-2.1-0.5-3.5c0-5.1,3.1-7.6,9.2-7.6c1.8,0,4.3,0.2,7.2,0.6l1.4,0.2l-0.2,2.2
			C1785,705.9,1782.3,705.7,1780.6,705.7z"/>
		<path class="st3" d="M1795.5,733v-29.2h2.6V733H1795.5z"/>
		<path class="st3" d="M1816.8,720.6v-2.3h7.9v14.1c-0.8,0.2-2.2,0.4-4.3,0.7c-2,0.3-3.7,0.4-5.1,0.4c-4.2,0-7.1-1.2-8.7-3.7
			c-1.6-2.5-2.4-6.2-2.4-11.2c0-2.5,0.2-4.6,0.5-6.4s0.9-3.3,1.8-4.7c1.6-2.7,4.5-4,8.9-4c2.6,0,5.3,0.3,8,0.8l1.4,0.3l-0.1,2.2
			c-3.5-0.6-6.5-1-9.1-1c-3.4,0-5.7,1-6.9,3c-1.2,2-1.8,5.3-1.8,9.7c0,4.4,0.6,7.6,1.8,9.6c1.2,2,3.5,3,6.8,3c2,0,4.2-0.2,6.7-0.7
			v-9.8H1816.8z"/>
		<path class="st3" d="M1831.3,733v-29.2h5.1l12.2,26.9h1v-26.9h2.6V733h-5l-12.3-26.8h-0.9V733H1831.3z"/>
	</g>
</g>
<g id="Streets">
	<path class="st4" d="M288,1044V648V305.2c0-11.3-2.6-22.4-7.7-32.5L144,0"/>
	<path class="st4" d="M414,1040c12.3-95.3,20-154.5,32.3-249.8c5-40,43.4-101.2,140.7-101.2c104.3,0,122.5-1,146-22
		c55.2-49.3,59-77,59-163c0-168.3,0.3-335.7,0.3-504"/>
	<line class="st4" x1="0" y1="505" x2="1028" y2="505"/>
	<line class="st4" x1="0" y1="505" x2="283.5" y2="505"/>
	<path class="st4" d="M293,648.1l427.5-0.1c21,0,41.8,5.1,60.5,14.8l98.7,51.3c7.4,3.9,15.6,5.9,24,5.9H925"/>
	<line class="st4" x1="0" y1="648" x2="283.5" y2="648"/>
	<line class="st4" x1="359" y1="1040" x2="359" y2="0"/>
	<line class="st4" x1="432" y1="216" x2="431" y2="648"/>
	<path class="st4" d="M503.7,0l0.3,666c0,9.3,0.6,22.2,5.4,30.1l4.9,7.4"/>
	<line class="st4" x1="576" y1="216" x2="576" y2="648"/>
	<line class="st4" x1="647" y1="0" x2="648" y2="688.6"/>
	<line class="st4" x1="720" y1="144" x2="720" y2="576"/>
	<line class="st4" x1="283.8" y1="360" x2="72" y2="360"/>
	<line class="st4" x1="792" y1="360" x2="292.8" y2="360"/>
	<path class="st4" d="M255.5,232.3l-96.2,48.1c-10,5-21.1,7.6-32.3,7.6H0"/>
	<path class="st4" d="M792,216H306.2c-11.9,0-23.7,2.8-34.4,8.1l-9.6,4.6"/>
	<line class="st4" x1="283.5" y1="576" x2="216" y2="576"/>
	<line class="st4" x1="788.6" y1="576" x2="293" y2="576"/>
	<line class="st4" x1="283.3" y1="936" x2="0" y2="936"/>
	<line class="st4" x1="427.5" y1="936" x2="292.5" y2="936"/>
	<line class="st4" x1="283.5" y1="792" x2="72" y2="792"/>
	<line class="st4" x1="446.1" y1="792" x2="293" y2="792"/>
	<line class="st4" x1="216" y1="936" x2="216" y2="252"/>
	<line class="st4" x1="71" y1="1040" x2="71" y2="144"/>
	<line class="st4" x1="144" y1="936" x2="144" y2="360"/>
	<line class="st4" x1="221.3" y1="144.3" x2="792.3" y2="144.3"/>
	<line class="st4" x1="0" y1="144.3" x2="211.3" y2="144.3"/>
	<line class="st4" x1="792.3" y1="432" x2="359" y2="432"/>
</g>
</svg>
