<?xml version="1.0" encoding="utf-8"?>
<!-- Generator: Adobe Illustrator 21.0.0, SVG Export Plug-In . SVG Version: 6.00 Build 0)  -->
<svg version="1.1" id="Layer_1" xmlns="http://www.w3.org/2000/svg" xmlns:xlink="http://www.w3.org/1999/xlink" x="0px" y="0px"
	 viewBox="0 0 999 603" style="enable-background:new 0 0 999 603;" xml:space="preserve">
<style type="text/css">
	.st0{fill:#45ADA8;}
</style>
<g>
	<path class="st0" d="M51.5,263.8V114.7h18.1l70.9,141.9h5.8V114.7h7.7v149.1h-18.1L64.7,122h-5.5v141.9h-7.7
		C51.5,263.9,51.5,263.8,51.5,263.8z"/>
	<path class="st0" d="M193.2,263.8V114.7h7.7v149.1H193.2z"/>
	<path class="st0" d="M327.1,261.5c-14.2,2.8-27,4.3-38.4,4.3s-20.7-1.7-27.7-5s-12.5-8.5-16.3-15.4c-3.8-7-6.5-14.8-7.9-23.4
		c-1.4-8.7-2.1-18.7-2.1-30c0-11.4,0.4-20.7,1.2-27.9s2.3-14.3,4.5-21.1s5.2-12.3,9.1-16.4c8.5-9.1,21.3-13.6,38.3-13.6
		c12.5,0,25.6,1.4,39.4,4l-0.6,7.5c-13.7-3-25.6-4.5-35.6-4.5s-17.8,1.1-23.3,3.4c-5.5,2.3-9.9,5.2-13.1,8.8
		c-3.2,3.6-5.7,8.6-7.5,14.9s-2.9,12.7-3.5,19.1c-0.6,6.4-0.9,14.3-0.9,23.6s0.3,17.3,0.9,23.6c0.6,6.4,1.8,12.6,3.6,18.7
		s4.4,10.9,7.7,14.5c7.2,7.8,18.2,11.7,32.8,11.7c11.1,0,24-1.4,38.8-4.3L327.1,261.5z"/>
	<path class="st0" d="M452.8,263.8v-71.1h-89v71.1h-7.7V114.7h7.7v70.7h89v-70.7h7.7v149.1H452.8z"/>
	<path class="st0" d="M505.2,246.3c-4.3-6.8-7.2-14.7-8.8-23.5c-1.6-8.9-2.5-19.8-2.5-32.9c0-26.1,4.1-45.5,12.4-58.1
		c8.2-12.6,23.1-19,44.7-19s36.5,6.3,44.7,18.9s12.4,32.2,12.4,58.9s-4,45.9-12,57.6s-23.2,17.6-45.5,17.6
		C528.3,265.7,513.2,259.3,505.2,246.3z M511.1,240.7c3.5,6.2,8.5,10.7,15,13.5s14.9,4.3,25,4.3c10.2,0,18.5-1.3,24.9-3.9
		c6.5-2.6,11.4-7,14.9-13s5.9-13,7.1-21c1.3-8,1.9-18.2,1.9-30.7c0-23.9-3.4-41.5-10.3-52.8c-6.9-11.4-19.8-17-38.7-17
		c-19.7,0-33,6.2-39.8,18.5c-3.4,6.3-5.8,13.4-7.1,21.4c-1.4,8-2,18-2,30s0.6,21.9,1.9,29.7C505.2,227.5,507.6,234.5,511.1,240.7z"
		/>
	<path class="st0" d="M721.8,263.8h-80.3V114.7h7.7v141.9h72.6V263.8z"/>
	<path class="st0" d="M730.8,263.8l45.8-149.1h22.6L845,263.8h-7.7L823.4,218h-71.1l-13.8,45.8H730.8z M781.9,122l-27.3,88.8h66.5
		L793.8,122H781.9z"/>
	<path class="st0" d="M907.3,119.6c-25.3,0-37.9,9.9-37.9,29.8c0,8.9,1.5,15.4,4.5,19.4c1.7,2.1,3.5,3.9,5.3,5.4s4.5,2.8,8.1,3.9
		c5.8,1.7,13.2,3.3,22.2,4.7c15.5,2.4,26.6,6.1,33.3,11.2c6.7,5,10.1,13.9,10.1,26.5c0,16-3.7,27.5-11.2,34.4s-18.8,10.3-34,10.3
		c-9.4,0-21.9-0.9-37.7-2.6l-7.9-0.9l0.9-7.5c19.6,2.4,35.1,3.6,46.4,3.6c23.6,0,35.4-12.3,35.4-36.8c0-10.4-2.7-17.5-8.1-21.5
		c-5.4-4-13.7-6.8-25-8.5s-19.3-3.2-24.1-4.6c-4.8-1.3-9.4-3.4-13.8-6.3c-4.5-2.8-7.7-6.7-9.6-11.6s-2.9-11.2-2.9-18.9
		c0-25,15.3-37.5,46-37.5c9.8,0,21.6,0.9,35.4,2.6l7,0.9l-0.9,7.5C929.4,120.8,915.6,119.6,907.3,119.6z"/>
</g>
<g>
	<path class="st0" d="M115,407.1h-12.7v38.5H50.7V296.5h62.8c23,0,39.5,3.8,49.4,11.5c9.9,7.6,14.9,21.8,14.9,42.5
		s-5.5,35.5-16.5,44.4l14.7,50.8h-52.5L115,407.1z M114.8,366.4c7.3,0,10.9-4.9,10.9-14.6s-4.1-14.6-12.2-14.6h-11.4v29.2H114.8z"/>
	<path class="st0" d="M327,371c0,27.2-5.6,46.9-16.9,59.1s-29.3,18.4-54,18.4s-42.7-6.2-54.1-18.5c-11.4-12.3-17-32-17-59.1
		s5.6-46.8,16.9-59c11.3-12.2,29.3-18.4,54.1-18.4s42.8,6.1,54.1,18.4C321.3,324.2,327,343.9,327,371z M237,371
		c0,12.6,1.2,21.7,3.7,27.3c2.4,5.6,7.6,8.3,15.4,8.3c7.8,0,12.9-2.7,15.3-8.2s3.6-14.7,3.6-27.5s-1.2-22-3.5-27.4
		s-7.4-8.1-15.3-8.1s-13,2.8-15.5,8.3C238.2,349.3,237,358.4,237,371z"/>
	<path class="st0" d="M437.4,445.6H337.2V296.5h51.7v107.1h48.5L437.4,445.6L437.4,445.6z"/>
	<path class="st0" d="M559.6,339.4c-20.9-2.2-36.1-3.3-45.6-3.3s-15,0.3-16.6,0.8s-2.3,1.6-2.3,3.2s0.9,2.9,2.7,3.8
		c1.8,0.9,7.4,2.4,16.8,4.5s17.1,4.1,23.2,6.1c6,2,11.4,4.8,16.3,8.5c4.8,3.6,8,8.1,9.6,13.4s2.3,12.4,2.3,21.3
		c0,18.4-4.9,31.5-14.7,39.4s-24.6,11.8-44.3,11.8c-9.5,0-19.5-0.7-29.9-2s-18.5-2.7-24.2-4l-8.7-2l2.2-39.4
		c22.7,3.3,41.3,4.9,55.9,4.9c7.7,0,11.6-1.7,11.6-5.1c0-1.5-0.9-2.6-2.7-3.2s-6.6-1.6-14.5-2.8c-20.8-3.3-34.9-8.3-42.4-15.3
		c-7.5-6.9-11.2-18.2-11.2-34c0-20,4.8-33.8,14.5-41.2c9.6-7.4,24.5-11.1,44.5-11.1c14.1,0,30.6,1.4,49.6,4.2l9.3,1.6L559.6,339.4z"
		/>
	<path class="st0" d="M568.7,338.5v-42.1H680v42.1h-28.9v107.1h-51.7V338.5H568.7z"/>
	<path class="st0" d="M668.7,445.6l33-149.2h78.1l33.6,149.2h-52.1l-4.2-17.1H723l-3.6,17.1L668.7,445.6L668.7,445.6z M738.2,337
		l-8.5,52.1h22l-8-52.1H738.2z"/>
	<path class="st0" d="M884,445.6h-65.2V296.5h63c25.7,0,44.2,5.8,55.4,17.4c11.3,11.6,16.9,30.1,16.9,55.5
		c0,25.5-5.4,44.5-16.3,57.2C927,439.3,909.1,445.6,884,445.6z M902,371.9c0-13.4-1.4-22.3-4.1-26.7c-2.7-4.5-8.9-6.7-18.4-6.7h-9.1
		v65h9.1c7.7,0,13.4-1.9,17.1-5.8C900.2,393.9,902,385.3,902,371.9z"/>
</g>
<g>
	<path class="st0" d="M64,498.5v-1.4h7.7v13.7c-3.6,0.7-6.6,1-9.1,1c-4.1,0-6.9-1.2-8.5-3.7s-2.4-6.2-2.4-11.1
		c0-2.4,0.2-4.5,0.5-6.2s0.9-3.3,1.6-4.7c1.5-2.8,4.5-4.2,8.8-4.2c2.5,0,5.1,0.3,7.8,0.8l1.3,0.2l-0.1,1.5c-3.5-0.7-6.3-1.1-8.6-1.1
		c-2.2,0-3.9,0.3-5.2,0.9c-1.2,0.6-2.2,1.5-2.8,2.8c-0.7,1.3-1.1,2.7-1.3,4.2s-0.4,3.4-0.4,5.6c0,2.2,0.1,4.1,0.4,5.6
		s0.7,2.9,1.4,4.1c1.3,2.4,3.8,3.6,7.5,3.6c2,0,4.6-0.3,7.6-0.8v-11.1H64V498.5z"/>
	<path class="st0" d="M78.5,511.5v-29.1H80v29.1H78.5z"/>
	<path class="st0" d="M95.1,483.4c-4.9,0-7.4,1.9-7.4,5.8c0,1.7,0.3,3,0.9,3.8c0.3,0.4,0.7,0.8,1,1.1c0.4,0.3,0.9,0.5,1.6,0.8
		c1.1,0.3,2.6,0.6,4.3,0.9c3,0.5,5.2,1.2,6.5,2.2s2,2.7,2,5.2c0,3.1-0.7,5.4-2.2,6.7s-3.7,2-6.6,2c-1.8,0-4.3-0.2-7.3-0.5l-1.5-0.2
		l0.2-1.5c3.8,0.5,6.8,0.7,9.1,0.7c4.6,0,6.9-2.4,6.9-7.2c0-2-0.5-3.4-1.6-4.2s-2.7-1.3-4.9-1.7c-2.2-0.3-3.8-0.6-4.7-0.9
		c-0.9-0.3-1.8-0.7-2.7-1.2c-0.9-0.6-1.5-1.3-1.9-2.3s-0.6-2.2-0.6-3.7c0-4.9,3-7.3,9-7.3c1.9,0,4.2,0.2,6.9,0.5l1.4,0.2l-0.2,1.5
		C99.4,483.6,96.7,483.4,95.1,483.4z"/>
	<path class="st0" d="M117,482.5h1.5l5.8,27.7h1.6l6.4-27.2h1.8l6.4,27.2h1.5l5.8-27.7h1.5l-6.1,29.1h-4l-6.1-26.6l-6.1,26.6h-4
		L117,482.5z"/>
	<path class="st0" d="M154.7,511.5v-29.1h17v1.4h-15.5v12.1h13v1.4h-13V510h15.5v1.4L154.7,511.5L154.7,511.5z"/>
	<path class="st0" d="M177.7,482.5h10c5.6,0,8.4,2.4,8.4,7.2c0,3.6-1.3,5.9-4,6.9c3.4,0.9,5.1,3.3,5.1,7c0,3-0.7,5.1-2.2,6.2
		c-1.5,1.2-3.6,1.8-6.5,1.8h-10.8V482.5z M187.6,483.9h-8.5V496h8.9c2.2,0,3.9-0.5,4.9-1.5s1.5-2.6,1.5-4.7s-0.6-3.6-1.7-4.5
		C191.7,484.3,190,483.9,187.6,483.9z M188.1,497.4h-8.9v12.7h9.3c2.3,0,4.1-0.5,5.3-1.5s1.9-2.7,1.9-5.1
		C195.6,499.4,193.1,497.4,188.1,497.4z"/>
	<path class="st0" d="M223.3,511.5h-10.8v-29.1h10.8c1.8,0,3.3,0.4,4.6,1.2s2.3,1.8,3,3.2s1.3,2.9,1.6,4.5s0.5,3.4,0.5,5.3
		c0,1.9-0.2,3.8-0.5,5.4c-0.3,1.7-0.9,3.3-1.6,4.7c-0.7,1.5-1.7,2.6-3,3.4C226.6,511.1,225.1,511.5,223.3,511.5z M229.7,505.7
		c0.6-1.3,1-2.8,1.3-4.3s0.4-3.2,0.4-5.2s-0.2-3.9-0.7-5.7s-1.3-3.4-2.6-4.7s-2.9-2-4.9-2H214V510h9.3c1.5,0,2.8-0.4,3.9-1.2
		C228.3,508.1,229.2,507,229.7,505.7z"/>
	<path class="st0" d="M239.5,511.5v-29.1h17v1.4H241v12.1h13v1.4h-13V510h15.5v1.4L239.5,511.5L239.5,511.5z"/>
	<path class="st0" d="M279.4,482.5h1.5l-8.1,29.1H268l-8.1-29.1h1.5l7.7,27.7h2.7L279.4,482.5z"/>
	<path class="st0" d="M286,511.5v-29.1h17v1.4h-15.5v12.1h13v1.4h-13V510H303v1.4L286,511.5L286,511.5z"/>
	<path class="st0" d="M324.6,511.5h-15.7v-29.1h1.5v27.7h14.2V511.5z"/>
	<path class="st0" d="M328.8,508.1c-0.8-1.3-1.4-2.9-1.7-4.6c-0.3-1.7-0.5-3.9-0.5-6.4c0-5.1,0.8-8.9,2.4-11.3
		c1.6-2.5,4.5-3.7,8.7-3.7s7.1,1.2,8.7,3.7c1.6,2.4,2.4,6.3,2.4,11.5s-0.8,8.9-2.3,11.2c-1.6,2.3-4.5,3.4-8.9,3.4
		C333.3,511.9,330.4,510.6,328.8,508.1z M330,507c0.7,1.2,1.7,2.1,2.9,2.6c1.3,0.6,2.9,0.8,4.9,0.8s3.6-0.3,4.9-0.8s2.2-1.4,2.9-2.5
		c0.7-1.2,1.1-2.5,1.4-4.1c0.2-1.5,0.4-3.5,0.4-6c0-4.6-0.7-8.1-2-10.3s-3.9-3.3-7.5-3.3c-3.8,0-6.4,1.2-7.8,3.6
		c-0.7,1.2-1.1,2.6-1.4,4.2c-0.3,1.6-0.4,3.5-0.4,5.9s0.1,4.3,0.4,5.8C328.8,504.4,329.3,505.8,330,507z"/>
	<path class="st0" d="M366,500.8h-9.1v10.7h-1.5v-29.1H366c3,0,5.2,0.7,6.5,2.2s2.1,3.7,2.1,6.7C374.6,497.7,371.7,500.8,366,500.8z
		 M356.9,499.4h9.1c4.7,0,7-2.7,7-8.1c0-2.5-0.6-4.4-1.7-5.7c-1.1-1.2-2.9-1.8-5.4-1.8h-9.1v15.6H356.9z"/>
	<path class="st0" d="M380.1,511.5v-29.1h3.2l10.2,26.8l10.2-26.8h3.2v29.1h-1.5v-27.7h-0.6l-10.2,26.8h-2.2l-10.2-26.8h-0.6v27.7
		H380.1z"/>
	<path class="st0" d="M414.5,511.5v-29.1h17v1.4H416v12.1h13v1.4h-13V510h15.5v1.4L414.5,511.5L414.5,511.5z"/>
	<path class="st0" d="M437.4,511.5v-29.1h3.5l13.8,27.7h1.1v-27.7h1.5v29.1h-3.5L440,483.9h-1.1v27.7L437.4,511.5L437.4,511.5z"/>
	<path class="st0" d="M461.7,483.9v-1.4h20.8v1.4h-9.6v27.7h-1.5v-27.7H461.7z"/>
	<path class="st0" d="M500.4,484.3c1.1-1.1,2.7-1.6,4.8-1.6c2.1,0,3.7,0.5,4.7,1.6s1.6,2.6,1.6,4.5s-0.5,3.4-1.6,4.6
		c-1.1,1.1-2.8,2.1-5.3,2.9l7.8,7.7c0.3-0.8,0.6-2,0.9-3.6c0.3-1.6,0.5-2.9,0.6-4.1h1.5c-0.3,3.6-0.9,6.5-1.8,8.8l5.8,5.7l-1,1.1
		l-5.4-5.4c-1.8,3.7-4.9,5.5-9.2,5.5c-3.5,0-6-0.8-7.4-2.3s-2.2-3.6-2.2-6.4c0-2.8,0.5-4.7,1.6-5.9s2.8-2.2,5.2-2.8
		c-0.9-1-1.5-1.9-1.7-2.7c-0.3-0.8-0.4-1.9-0.4-3.2C498.8,486.9,499.3,485.4,500.4,484.3z M503.7,510.5c3.8,0,6.5-1.7,8.1-5.1
		l-9.8-9.8c-2.4,0.6-4,1.5-5,2.5c-0.9,1-1.4,2.7-1.4,5.1s0.6,4.2,1.9,5.4C498.7,509.9,500.8,510.5,503.7,510.5z M500.2,488.7
		c0,2.2,0.6,3.9,1.9,5.1l1.5,1.5c2.4-0.8,4.1-1.7,5-2.6s1.4-2.2,1.4-4c0-3.1-1.6-4.7-4.9-4.7C501.8,484,500.2,485.6,500.2,488.7z"/>
	<path class="st0" d="M550.3,511.1c-2.8,0.6-5.3,0.8-7.5,0.8s-4-0.3-5.4-1s-2.4-1.7-3.2-3c-0.7-1.4-1.3-2.9-1.5-4.6
		c-0.3-1.7-0.4-3.6-0.4-5.9c0-2.2,0.1-4,0.2-5.4c0.2-1.4,0.4-2.8,0.9-4.1c0.4-1.3,1-2.4,1.8-3.2c1.7-1.8,4.2-2.7,7.5-2.7
		c2.4,0,5,0.3,7.7,0.8l-0.1,1.5c-2.7-0.6-5-0.8-6.9-0.8c-2,0-3.5,0.2-4.5,0.7c-1.1,0.4-1.9,1-2.6,1.7c-0.6,0.7-1.1,1.7-1.5,2.9
		c-0.3,1.2-0.6,2.5-0.7,3.7s-0.2,2.8-0.2,4.6s0.1,3.4,0.2,4.6s0.3,2.5,0.7,3.7s0.9,2.1,1.5,2.8c1.4,1.5,3.5,2.3,6.4,2.3
		c2.2,0,4.7-0.3,7.6-0.8V511.1z"/>
	<path class="st0" d="M553.3,511.5l8.9-29.1h4.4l8.9,29.1H574l-2.7-8.9h-13.9l-2.7,8.9H553.3z M563.3,483.9l-5.3,17.3h13l-5.3-17.3
		H563.3z"/>
	<path class="st0" d="M582,499.5v12h-1.5v-29.1H591c2.9,0,5.1,0.7,6.5,2s2.1,3.4,2.1,6.3c0,4.9-2,7.7-6,8.5l6.6,12.2h-1.7l-6.5-12
		L582,499.5L582,499.5z M598,490.8c0-2.4-0.6-4.2-1.7-5.3c-1.1-1.1-2.9-1.6-5.4-1.6H582v14.2h8.9C595.7,498.1,598,495.6,598,490.8z"
		/>
	<path class="st0" d="M602.1,483.9v-1.4h20.8v1.4h-9.6v27.7h-1.5v-27.7H602.1z"/>
	<path class="st0" d="M627,508.1c-0.8-1.3-1.4-2.9-1.7-4.6s-0.5-3.9-0.5-6.4c0-5.1,0.8-8.9,2.4-11.3c1.6-2.4,4.5-3.7,8.7-3.7
		s7.1,1.2,8.7,3.7c1.6,2.4,2.4,6.3,2.4,11.5s-0.8,8.9-2.3,11.2s-4.5,3.4-8.9,3.4S628.6,510.6,627,508.1z M628.2,507
		c0.7,1.2,1.7,2.1,2.9,2.6s2.9,0.8,4.9,0.8s3.6-0.3,4.9-0.8c1.3-0.5,2.2-1.4,2.9-2.5c0.7-1.2,1.1-2.5,1.4-4.1c0.2-1.5,0.4-3.5,0.4-6
		c0-4.6-0.7-8.1-2-10.3s-3.9-3.3-7.5-3.3c-3.8,0-6.4,1.2-7.8,3.6c-0.7,1.2-1.1,2.6-1.4,4.2c-0.3,1.6-0.4,3.5-0.4,5.9
		s0.1,4.3,0.4,5.8C627,504.4,627.5,505.8,628.2,507z"/>
	<path class="st0" d="M664.7,498.5v-1.4h7.7v13.7c-3.6,0.7-6.6,1-9.1,1c-4.1,0-6.9-1.2-8.5-3.7s-2.4-6.2-2.4-11.1
		c0-2.4,0.2-4.5,0.5-6.2s0.9-3.3,1.6-4.7c1.5-2.8,4.5-4.2,8.8-4.2c2.5,0,5.1,0.3,7.8,0.8l1.3,0.2l-0.1,1.5c-3.5-0.7-6.3-1.1-8.6-1.1
		c-2.2,0-3.9,0.3-5.2,0.9c-1.2,0.6-2.2,1.5-2.8,2.8s-1.1,2.7-1.3,4.2s-0.4,3.4-0.4,5.6c0,2.2,0.1,4.1,0.4,5.6
		c0.3,1.5,0.7,2.9,1.4,4.1c1.3,2.4,3.8,3.6,7.5,3.6c2,0,4.6-0.3,7.6-0.8v-11.1h-6.2V498.5z"/>
	<path class="st0" d="M680.8,499.5v12h-1.5v-29.1h10.4c2.9,0,5.1,0.7,6.5,2s2.1,3.4,2.1,6.3c0,4.9-2,7.7-6,8.5l6.6,12.2h-1.7
		l-6.5-12L680.8,499.5L680.8,499.5z M696.8,490.8c0-2.4-0.6-4.2-1.7-5.3c-1.1-1.1-2.9-1.6-5.4-1.6h-8.9v14.2h8.9
		C694.4,498.1,696.8,495.6,696.8,490.8z"/>
	<path class="st0" d="M701.8,511.5l8.9-29.1h4.4l8.9,29.1h-1.5l-2.7-8.9H706l-2.7,8.9H701.8z M711.8,483.9l-5.3,17.3h13l-5.3-17.3
		H711.8z"/>
	<path class="st0" d="M739.6,500.8h-9.1v10.7H729v-29.1h10.6c3,0,5.2,0.7,6.5,2.2s2.1,3.7,2.1,6.7
		C748.2,497.7,745.4,500.8,739.6,500.8z M730.6,499.4h9.1c4.7,0,7-2.7,7-8.1c0-2.5-0.6-4.4-1.7-5.7c-1.1-1.2-2.9-1.8-5.4-1.8h-9.1
		v15.6H730.6z"/>
	<path class="st0" d="M772.6,511.5v-13.9h-17.4v13.9h-1.5v-29.1h1.5v13.8h17.4v-13.8h1.5v29.1H772.6z"/>
	<path class="st0" d="M781.7,511.5v-29.1h1.5v29.1H781.7z"/>
	<path class="st0" d="M807.9,511.1c-2.8,0.6-5.3,0.8-7.5,0.8s-4-0.3-5.4-1s-2.4-1.7-3.2-3c-0.7-1.4-1.3-2.9-1.5-4.6
		c-0.3-1.7-0.4-3.6-0.4-5.9c0-2.2,0.1-4,0.2-5.4c0.2-1.4,0.4-2.8,0.9-4.1c0.4-1.3,1-2.4,1.8-3.2c1.7-1.8,4.2-2.7,7.5-2.7
		c2.4,0,5,0.3,7.7,0.8l-0.1,1.5c-2.7-0.6-5-0.8-6.9-0.8c-2,0-3.5,0.2-4.5,0.7c-1.1,0.4-1.9,1-2.6,1.7c-0.6,0.7-1.1,1.7-1.5,2.9
		c-0.3,1.2-0.6,2.5-0.7,3.7c-0.1,1.2-0.2,2.8-0.2,4.6s0.1,3.4,0.2,4.6c0.1,1.2,0.3,2.5,0.7,3.7s0.9,2.1,1.5,2.8
		c1.4,1.5,3.5,2.3,6.4,2.3c2.2,0,4.7-0.3,7.6-0.8V511.1z"/>
	<path class="st0" d="M833.4,511.5h-10.8v-29.1h10.8c1.8,0,3.3,0.4,4.6,1.2s2.3,1.8,3,3.2s1.3,2.9,1.6,4.5s0.5,3.4,0.5,5.3
		c0,1.9-0.2,3.8-0.5,5.4c-0.3,1.7-0.9,3.3-1.6,4.7s-1.7,2.6-3,3.4C836.7,511.1,835.2,511.5,833.4,511.5z M839.8,505.7
		c0.6-1.3,1-2.8,1.3-4.3s0.4-3.2,0.4-5.2s-0.2-3.9-0.7-5.7s-1.3-3.4-2.6-4.7s-2.9-2-4.9-2H824V510h9.3c1.5,0,2.8-0.4,3.9-1.2
		S839.3,507,839.8,505.7z"/>
	<path class="st0" d="M849.6,511.5v-29.1h17v1.4h-15.5v12.1h13v1.4h-13V510h15.5v1.4L849.6,511.5L849.6,511.5z"/>
	<path class="st0" d="M879.8,483.4c-4.9,0-7.4,1.9-7.4,5.8c0,1.7,0.3,3,0.9,3.8c0.3,0.4,0.7,0.8,1,1.1c0.4,0.3,0.9,0.5,1.6,0.8
		c1.1,0.3,2.6,0.6,4.3,0.9c3,0.5,5.2,1.2,6.5,2.2s2,2.7,2,5.2c0,3.1-0.7,5.4-2.2,6.7s-3.7,2-6.6,2c-1.8,0-4.3-0.2-7.3-0.5l-1.5-0.2
		l0.2-1.5c3.8,0.5,6.8,0.7,9.1,0.7c4.6,0,6.9-2.4,6.9-7.2c0-2-0.5-3.4-1.6-4.2s-2.7-1.3-4.9-1.7c-2.2-0.3-3.8-0.6-4.7-0.9
		s-1.8-0.7-2.7-1.2c-0.9-0.6-1.5-1.3-1.9-2.3s-0.6-2.2-0.6-3.7c0-4.9,3-7.3,9-7.3c1.9,0,4.2,0.2,6.9,0.5l1.4,0.2l-0.2,1.5
		C884.1,483.6,881.4,483.4,879.8,483.4z"/>
	<path class="st0" d="M894.7,511.5v-29.1h1.5v29.1H894.7z"/>
	<path class="st0" d="M915,498.5v-1.4h7.7v13.7c-3.6,0.7-6.6,1-9.1,1c-4.1,0-6.9-1.2-8.5-3.7s-2.4-6.2-2.4-11.1
		c0-2.4,0.2-4.5,0.5-6.2s0.9-3.3,1.6-4.7c1.5-2.8,4.5-4.2,8.8-4.2c2.5,0,5.1,0.3,7.8,0.8l1.3,0.2l-0.1,1.5c-3.5-0.7-6.3-1.1-8.6-1.1
		c-2.2,0-3.9,0.3-5.2,0.9c-1.2,0.6-2.2,1.5-2.8,2.8s-1.1,2.7-1.3,4.2s-0.4,3.4-0.4,5.6c0,2.2,0.1,4.1,0.4,5.6
		c0.3,1.5,0.7,2.9,1.4,4.1c1.3,2.4,3.8,3.6,7.5,3.6c2,0,4.6-0.3,7.6-0.8v-11.1H915V498.5z"/>
	<path class="st0" d="M929.5,511.5v-29.1h3.5l13.8,27.7h1.1v-27.7h1.5v29.1H946l-13.9-27.7H931v27.7H929.5z"/>
</g>
</svg>
