<?xml version="1.0" encoding="utf-8"?>
<!-- Generator: Adobe Illustrator 21.0.0, SVG Export Plug-In . SVG Version: 6.00 Build 0)  -->
<svg version="1.1" id="Layer_1" xmlns="http://www.w3.org/2000/svg" xmlns:xlink="http://www.w3.org/1999/xlink" x="0px" y="0px"
	 viewBox="0 0 999 603" style="enable-background:new 0 0 999 603;" xml:space="preserve">
<style type="text/css">
	.st0{fill:#3DB2D1;}
</style>
<g>
	<path class="st0" d="M52.2,257.1V119.7c0-1.8,0.9-2.7,2.7-2.7H64c1.2,0,2.2,0.6,3.1,1.8l68.5,111c0.3,0.4,0.5,0.6,0.8,0.5
		s0.4-0.4,0.4-0.9V119.7c0-1.8,0.9-2.7,2.7-2.7h9.2c1.8,0,2.7,0.9,2.7,2.7v137.5c0,1.8-0.9,2.7-2.7,2.7h-9.2c-1.2,0-2.2-0.6-3.1-1.8
		L67.7,146.6c-0.3-0.4-0.5-0.6-0.8-0.5s-0.4,0.4-0.4,0.9l0.2,110.2c0,1.8-0.9,2.7-2.7,2.7h-9.2C53.1,259.8,52.2,258.9,52.2,257.1z"
		/>
	<path class="st0" d="M189.5,257.1V119.7c0-1.8,0.9-2.7,2.7-2.7h9.2c1.8,0,2.7,0.9,2.7,2.7v137.5c0,1.8-0.9,2.7-2.7,2.7h-9.2
		C190.3,259.8,189.5,258.9,189.5,257.1z"/>
	<path class="st0" d="M260.7,256c-7.2-3.7-12.8-9-16.8-15.9s-6-14.8-6-23.8v-56.1c0-8.8,2-16.7,6-23.5s9.6-12.1,16.8-15.8
		c7.2-3.7,15.6-5.6,25.1-5.6s17.9,1.8,25.1,5.5s12.8,8.8,16.8,15.5c4,6.7,6,14.4,6,23.1c0,1.2-0.9,2-2.7,2.2l-9.2,0.6h-0.6
		c-0.5,0-1-0.1-1.4-0.4c-0.4-0.3-0.6-0.5-0.6-0.8v-1.2c0-9.7-3.1-17.4-9.2-23.2s-14.2-8.7-24.3-8.7c-10.1,0-18.2,2.9-24.3,8.8
		c-6.1,5.8-9.2,13.5-9.2,23.1V217c0,9.5,3.1,17.2,9.2,23.1c6.1,5.8,14.2,8.8,24.3,8.8c10.1,0,18.2-2.9,24.3-8.7
		c6.1-5.8,9.2-13.5,9.2-23.2c0-1.6,0.9-2.4,2.7-2.2l9.2,0.4c1.8,0,2.7,0.3,2.7,1v1c0,8.8-2,16.6-6,23.4c-4,6.7-9.6,11.9-16.8,15.6
		c-7.2,3.7-15.6,5.5-25.1,5.5C276.2,261.6,267.9,259.8,260.7,256z"/>
	<path class="st0" d="M450,117h9.2c1.8,0,2.7,0.9,2.7,2.7v137.5c0,1.8-0.9,2.7-2.7,2.7H450c-1.8,0-2.7-0.9-2.7-2.7v-61.8
		c0-0.7-0.3-1-1-1h-64.7c-0.7,0-1,0.3-1,1v61.8c0,1.8-0.9,2.7-2.7,2.7h-9.2c-1.8,0-2.7-0.9-2.7-2.7V119.7c0-1.8,0.9-2.7,2.7-2.7h9.2
		c1.8,0,2.7,0.9,2.7,2.7v61c0,0.7,0.3,1,1,1h64.7c0.7,0,1-0.3,1-1v-61C447.3,117.9,448.2,117,450,117z"/>
	<path class="st0" d="M518.1,255.5c-7.3-3.9-13-9.5-17-16.6s-6-15.4-6-24.8v-51.4c0-9.4,2-17.6,6-24.8c4-7.1,9.7-12.7,17-16.6
		s15.8-5.9,25.5-5.9s18.2,2,25.6,5.9c7.4,3.9,13.1,9.5,17.1,16.6c4,7.1,6,15.4,6,24.8v51.4c0,9.4-2,17.6-6,24.8
		c-4,7.1-9.7,12.7-17.1,16.6c-7.4,3.9-15.9,5.9-25.6,5.9S525.4,259.5,518.1,255.5z M568.5,239.6c6.3-6.3,9.4-14.6,9.4-24.9v-52.2
		c0-10.3-3.1-18.7-9.4-25c-6.3-6.3-14.6-9.5-24.9-9.5c-10.2,0-18.4,3.2-24.7,9.5s-9.4,14.7-9.4,25v52.2c0,10.3,3.1,18.6,9.4,24.9
		c6.3,6.3,14.5,9.4,24.7,9.4C553.9,249,562.2,245.9,568.5,239.6z"/>
	<path class="st0" d="M626.4,257.1V119.7c0-1.8,0.9-2.7,2.7-2.7h9.2c1.8,0,2.7,0.9,2.7,2.7v126.5c0,0.7,0.3,1,1,1h71.2
		c1.8,0,2.7,0.9,2.7,2.7v7.3c0,1.8-0.9,2.7-2.7,2.7h-84C627.3,259.8,626.4,258.9,626.4,257.1z"/>
	<path class="st0" d="M833.1,257.6l-8.2-24.9c-0.3-0.5-0.6-0.8-1-0.8h-60.8c-0.4,0-0.7,0.3-1,0.8l-8,24.9c-0.4,1.5-1.4,2.2-2.9,2.2
		h-9.8c-1,0-1.6-0.3-2-0.8s-0.5-1.3-0.2-2.2l44.9-137.5c0.4-1.5,1.4-2.2,2.9-2.2h13c1.5,0,2.4,0.7,2.9,2.2L848,256.7
		c0.1,0.3,0.2,0.6,0.2,1c0,0.5-0.2,1-0.7,1.4s-1.1,0.6-1.7,0.6H836C834.4,259.8,833.5,259.1,833.1,257.6z M767.4,220h52.4
		c0.8,0,1.1-0.4,0.8-1.2l-26.5-83.4c-0.1-0.5-0.3-0.8-0.6-0.8s-0.5,0.3-0.6,0.8l-26.3,83.4C766.4,219.6,766.7,220,767.4,220z"/>
	<path class="st0" d="M883,256.7c-7.4-3.1-13.1-7.6-17.1-13.4c-4-5.8-6-12.5-6-20.1v-5.7c0-1.8,0.9-2.7,2.7-2.7h8.8
		c1.8,0,2.7,0.9,2.7,2.7v4.9c0,7.8,3.3,14.1,9.8,19s15.3,7.3,26.3,7.3c10.5,0,18.4-2.2,23.9-6.6c5.4-4.4,8.2-10.3,8.2-17.6
		c0-4.8-1.3-8.8-3.8-12.2s-6.4-6.6-11.5-9.6c-5.2-3-12.6-6.5-22.2-10.4c-10.2-4.1-18.1-7.6-23.8-10.7c-5.6-3.1-10.2-7-13.7-11.8
		s-5.2-10.9-5.2-18.3c0-11.4,4-20.3,11.9-26.6c8-6.3,18.9-9.5,32.9-9.5c15,0,26.8,3.5,35.5,10.6c8.7,7.1,13.1,16.5,13.1,28.2v3.9
		c0,1.8-0.9,2.7-2.7,2.7h-9c-1.8,0-2.7-0.9-2.7-2.7V155c0-7.9-3.1-14.3-9.2-19.4c-6.1-5-14.8-7.5-25.9-7.5c-9.7,0-17,2-22.1,5.9
		s-7.6,9.7-7.6,17.1c0,4.9,1.3,8.9,3.8,12.1c2.5,3.2,6.1,6,10.8,8.4s11.9,5.5,21.5,9.3c9.9,4.1,18,7.9,24.1,11.4s11,7.9,14.7,13
		s5.5,11.3,5.5,18.7c0,11.3-4.2,20.4-12.5,27.2c-8.4,6.9-20,10.3-35,10.3C899,261.4,890.4,259.9,883,256.7z"/>
</g>
<g>
	<path class="st0" d="M128,430.6l-23.3-53.8c-0.3-0.9-1-1.3-2.2-1.3h-7.8c-1.2,0-1.7,0.6-1.7,1.7v52.3c0,2.7-1.4,4.1-4.1,4.1H56.5
		c-2.7,0-4.1-1.4-4.1-4.1v-143c0-2.7,1.4-4.1,4.1-4.1h64.6c9.8,0,18.4,2,25.8,6s13.2,9.7,17.3,17s6.2,15.7,6.2,25.2
		c0,9.4-2.3,17.6-6.8,24.6c-4.5,7.1-10.8,12.3-18.9,15.8c-1,0.4-1.3,1.2-0.9,2.2l26.4,55.7c0.3,0.6,0.4,1.3,0.4,2.2
		c0,1.7-1.2,2.6-3.5,2.6h-34.3C130.5,433.6,128.9,432.6,128,430.6z M93,318.9v24c0,1.2,0.6,1.7,1.7,1.7h19.7c4.6,0,8.3-1.3,11.2-3.8
		s4.3-5.8,4.3-9.8c0-4.2-1.4-7.5-4.3-10c-2.9-2.5-6.6-3.8-11.2-3.8H94.8C93.6,317.2,93,317.8,93,318.9z"/>
	<path class="st0" d="M212.2,429c-9.1-4.8-16.2-11.6-21.3-20.3c-5-8.7-7.6-18.8-7.6-30.3v-40.6c0-11.2,2.5-21.2,7.6-29.8
		c5-8.6,12.1-15.3,21.3-20.1c9.1-4.8,19.7-7.1,31.6-7.1c12.1,0,22.7,2.4,31.9,7.1c9.1,4.8,16.2,11.4,21.3,20.1
		c5,8.6,7.6,18.6,7.6,29.8v40.6c0,11.5-2.5,21.6-7.6,30.3c-5,8.7-12.1,15.5-21.3,20.3c-9.1,4.8-19.8,7.2-31.9,7.2
		C231.8,436.2,221.3,433.8,212.2,429z M258.4,395.5c3.7-4,5.5-9.3,5.5-15.9v-42.3c0-6.6-1.8-11.9-5.5-15.9c-3.7-4-8.5-5.9-14.6-5.9
		c-5.9,0-10.7,2-14.4,5.9c-3.7,4-5.5,9.3-5.5,15.9v42.3c0,6.6,1.8,11.9,5.5,15.9s8.5,5.9,14.4,5.9
		C249.8,401.4,254.7,399.4,258.4,395.5z"/>
	<path class="st0" d="M319.4,429.5v-143c0-2.7,1.4-4.1,4.1-4.1h32.4c2.7,0,4.1,1.4,4.1,4.1v110.6c0,1.2,0.6,1.7,1.7,1.7H427
		c2.7,0,4.1,1.4,4.1,4.1v26.6c0,2.7-1.4,4.1-4.1,4.1H323.5C320.8,433.6,319.4,432.2,319.4,429.5z"/>
	<path class="st0" d="M468.6,429.4c-8.9-4-15.8-9.6-20.7-17c-4.9-7.3-7.3-15.8-7.3-25.5v-2.2c0-2.7,1.4-4.1,4.1-4.1h31.8
		c2.7,0,4.1,0.7,4.1,2.2v2.4c0,3.9,2.1,7.4,6.3,10.6c4.2,3.2,9.4,4.8,15.8,4.8c5.3,0,9.1-1.1,11.4-3.3c2.3-2.2,3.5-4.7,3.5-7.5
		c0-3.2-1.4-5.5-4.3-7.1c-2.9-1.6-8.1-3.5-15.8-5.8l-6.3-1.7c-14.3-4.3-26.2-10.1-35.9-17.3c-9.6-7.2-14.5-17.6-14.5-31.3
		c0-9.1,2.4-17.1,7.3-24.1s11.6-12.3,20.2-16.1c8.6-3.7,18.2-5.6,28.8-5.6c11.2,0,21.4,2.1,30.6,6.3c9.1,4.2,16.3,10.1,21.6,17.7
		s7.9,16.3,7.9,26.1v1.1c0,2.7-1.4,4.1-4.1,4.1h-31.8c-2.7,0-4.1-0.6-4.1-1.7v-1.7c0-4.3-1.9-8.2-5.8-11.8
		c-3.9-3.5-9.1-5.3-15.8-5.3c-4.6,0-8.2,0.9-10.9,2.8c-2.7,1.9-4,4.5-4,7.8c0,2.6,1,4.8,2.9,6.6c1.9,1.8,4.9,3.5,9,5.2
		c4,1.7,10.2,3.8,18.6,6.4c1.2,0.4,6.2,2,15.2,4.6c9,2.7,16.5,7.5,22.6,14.5c6,7,9.1,15.4,9.1,25.4c0,9.4-2.5,17.6-7.3,24.6
		c-4.9,7.1-11.8,12.5-20.6,16.3c-8.9,3.8-19,5.7-30.6,5.7C487.9,435.3,477.6,433.4,468.6,429.4z"/>
	<path class="st0" d="M688.5,286.5v26.8c0,2.7-1.4,4.1-4.1,4.1h-34.8c-1.2,0-1.7,0.6-1.7,1.7v110.4c0,2.7-1.4,4.1-4.1,4.1h-32.4
		c-2.7,0-4.1-1.4-4.1-4.1V319.1c0-1.2-0.6-1.7-1.7-1.7h-33.7c-2.7,0-4.1-1.4-4.1-4.1v-26.8c0-2.7,1.4-4.1,4.1-4.1h112.5
		C687.2,282.4,688.5,283.8,688.5,286.5z"/>
	<path class="st0" d="M783.1,430.1l-4.3-15.6c-0.3-1-0.9-1.5-1.9-1.5H732c-1,0-1.7,0.5-1.9,1.5l-4.3,15.6c-0.6,2.3-2.1,3.5-4.5,3.5
		h-35c-1.4,0-2.5-0.4-3.1-1.3s-0.8-2-0.3-3.5l44.9-143c0.7-2.3,2.2-3.5,4.5-3.5h44.5c2.3,0,3.8,1.2,4.5,3.5l44.9,143
		c0.1,0.4,0.2,0.9,0.2,1.5c0,2.2-1.2,3.2-3.7,3.2h-35C785.2,433.6,783.7,432.4,783.1,430.1z M739.5,380.5c0,1,0.5,1.5,1.5,1.5h26.8
		c0.6,0,1-0.2,1.3-0.5c0.3-0.4,0.4-0.8,0.2-1.4l-13.8-49.9c-0.1-0.7-0.5-1.1-1-1.1s-0.9,0.4-1.2,1.1L739.5,380V380.5z"/>
	<path class="st0" d="M839.9,429.5v-143c0-2.7,1.4-4.1,4.1-4.1h54.6c11.7,0,22,2,31,6s15.9,9.7,20.8,17.1c4.9,7.3,7.3,15.8,7.3,25.5
		v54c0,9.6-2.5,18.1-7.3,25.5c-4.9,7.3-11.8,13-20.8,17.1c-9,4-19.3,6-31,6H844C841.3,433.6,839.9,432.2,839.9,429.5z M882.3,398.8
		h17.9c4.9,0,8.9-1.9,12.1-5.7c3.2-3.8,4.8-8.8,5-15v-40.2c0-6.2-1.6-11.2-4.8-15s-7.3-5.7-12.5-5.7h-17.7c-1.2,0-1.7,0.6-1.7,1.7
		v78.2C880.6,398.3,881.1,398.8,882.3,398.8z"/>
</g>
<g>
	<path class="st0" d="M57.1,496.3c-1.3-0.7-2.3-1.6-3.1-2.9s-1.1-2.6-1.1-4.2v-10.9c0-1.6,0.4-3,1.1-4.3s1.7-2.2,3.1-2.9
		c1.3-0.7,2.8-1,4.6-1c1.7,0,3.2,0.3,4.5,1s2.3,1.6,3,2.8c0.7,1.2,1.1,2.6,1.1,4.1v0.5c0,0.1,0,0.2-0.1,0.3s-0.2,0.1-0.3,0.1h-1.1
		c-0.1,0-0.2,0-0.3-0.1c-0.1-0.1-0.1-0.2-0.1-0.3V478c0-1.8-0.6-3.3-1.8-4.4c-1.2-1.1-2.8-1.7-4.8-1.7s-3.6,0.6-4.8,1.7
		c-1.2,1.2-1.8,2.7-1.8,4.5v11.1c0,1.9,0.6,3.4,1.8,4.5c1.2,1.2,2.9,1.7,4.9,1.7s3.6-0.6,4.8-1.7c1.2-1.1,1.8-2.6,1.8-4.4v-3.8
		c0-0.1-0.1-0.2-0.2-0.2h-5.9c-0.1,0-0.2,0-0.3-0.1S62,485,62,484.9V484c0-0.1,0-0.2,0.1-0.3s0.2-0.1,0.3-0.1H70
		c0.1,0,0.2,0,0.3,0.1s0.1,0.2,0.1,0.3v4.9c0,2.6-0.8,4.6-2.4,6.1s-3.7,2.2-6.3,2.2C60,497.3,58.5,497,57.1,496.3z"/>
	<path class="st0" d="M93.7,472.1c-0.1,0.1-0.2,0.1-0.3,0.1H79c-0.1,0-0.2,0.1-0.2,0.2v10.3c0,0.1,0.1,0.2,0.2,0.2h10.1
		c0.1,0,0.2,0,0.3,0.1c0.1,0.1,0.1,0.2,0.1,0.3v0.9c0,0.1,0,0.2-0.1,0.3c-0.1,0.1-0.2,0.1-0.3,0.1H79c-0.1,0-0.2,0.1-0.2,0.2v10.4
		c0,0.1,0.1,0.2,0.2,0.2h14.3c0.1,0,0.2,0,0.3,0.1c0.1,0.1,0.1,0.2,0.1,0.3v0.9c0,0.1,0,0.2-0.1,0.3c-0.1,0.1-0.2,0.1-0.3,0.1h-16
		c-0.1,0-0.2,0-0.3-0.1s-0.1-0.2-0.1-0.3V471c0-0.1,0-0.2,0.1-0.3s0.2-0.1,0.3-0.1h16c0.1,0,0.2,0,0.3,0.1c0.1,0.1,0.1,0.2,0.1,0.3
		v0.9C93.8,471.9,93.8,472,93.7,472.1z"/>
	<path class="st0" d="M103.4,496.2c-1.3-0.7-2.4-1.7-3.1-3s-1.1-2.8-1.1-4.5v-10c0-1.7,0.4-3.2,1.1-4.5s1.7-2.3,3.1-3
		c1.3-0.7,2.9-1.1,4.6-1.1s3.3,0.4,4.6,1.1c1.3,0.7,2.4,1.7,3.1,3s1.1,2.8,1.1,4.5v10c0,1.7-0.4,3.2-1.1,4.5s-1.8,2.3-3.1,3
		c-1.3,0.7-2.9,1.1-4.6,1.1C106.2,497.3,104.7,496.9,103.4,496.2z M112.9,493.7c1.3-1.2,1.9-2.9,1.9-4.9v-10.1c0-2-0.6-3.7-1.9-4.9
		c-1.3-1.3-2.9-1.9-5-1.9c-2,0-3.7,0.6-4.9,1.9c-1.2,1.3-1.9,2.9-1.9,4.9v10.1c0,2.1,0.6,3.7,1.9,4.9c1.2,1.2,2.9,1.9,4.9,1.9
		C110,495.6,111.7,494.9,112.9,493.7z"/>
	<path class="st0" d="M124.6,495.4c-1.6-1.3-2.4-2.9-2.4-5v-1.2c0-0.1,0-0.2,0.1-0.3c0.1-0.1,0.2-0.1,0.3-0.1h1c0.1,0,0.2,0,0.3,0.1
		c0.1,0.1,0.1,0.2,0.1,0.3v1.1c0,1.6,0.6,2.8,1.9,3.8s3,1.4,5.2,1.4c2.1,0,3.7-0.4,4.8-1.3s1.7-2.1,1.7-3.6c0-0.9-0.2-1.8-0.7-2.5
		s-1.2-1.3-2.3-2c-1-0.6-2.5-1.3-4.3-2.1c-2-0.8-3.5-1.5-4.5-2.1s-1.8-1.3-2.4-2.1c-0.6-0.8-0.9-1.9-0.9-3.3c0-2.1,0.7-3.7,2.1-4.8
		c1.4-1.1,3.4-1.7,5.9-1.7c2.8,0,5,0.6,6.5,1.9c1.6,1.3,2.3,3,2.3,5.1v0.8c0,0.1,0,0.2-0.1,0.3c-0.1,0.1-0.2,0.1-0.3,0.1H138
		c-0.1,0-0.2,0-0.3-0.1s-0.1-0.2-0.1-0.3v-0.7c0-1.6-0.6-2.9-1.8-3.9s-2.9-1.5-5.1-1.5c-1.9,0-3.4,0.4-4.4,1.2
		c-1,0.8-1.6,1.9-1.6,3.4c0,1,0.2,1.8,0.7,2.5c0.5,0.6,1.2,1.2,2.1,1.7s2.3,1.1,4.2,1.8c1.9,0.8,3.4,1.5,4.5,2.2
		c1.2,0.7,2.1,1.5,2.7,2.5c0.7,0.9,1,2.1,1,3.4c0,2.1-0.8,3.7-2.3,4.9s-3.6,1.9-6.4,1.9C128.4,497.3,126.2,496.7,124.6,495.4z"/>
	<path class="st0" d="M161,472.3c1.3,1.3,2,3.1,2,5.3c0,2.2-0.7,3.9-2,5.2s-3.1,2-5.3,2h-7.9c-0.1,0-0.2,0.1-0.2,0.2v11.6
		c0,0.1,0,0.2-0.1,0.3c-0.1,0.1-0.2,0.1-0.3,0.1h-1.1c-0.1,0-0.2,0-0.3-0.1s-0.1-0.2-0.1-0.3v-25.8c0-0.1,0-0.2,0.1-0.3
		c0.1-0.1,0.2-0.1,0.3-0.1h9.7C157.9,470.3,159.7,471,161,472.3z M159.5,481.6c1-1,1.5-2.3,1.5-3.9s-0.5-3-1.5-4s-2.3-1.5-3.9-1.5
		h-7.8c-0.1,0-0.2,0.1-0.2,0.2V483c0,0.1,0.1,0.2,0.2,0.2h7.8C157.2,483.1,158.5,482.6,159.5,481.6z"/>
	<path class="st0" d="M182.8,496.6l-1.6-5c0-0.1-0.1-0.1-0.2-0.1h-11.9c-0.1,0-0.1,0-0.2,0.1l-1.6,5c-0.1,0.3-0.2,0.4-0.5,0.4h-1.2
		c-0.2,0-0.3,0-0.3-0.1s-0.1-0.2,0-0.4l8.4-25.7c0.1-0.3,0.2-0.4,0.5-0.4h1.6c0.3,0,0.4,0.1,0.5,0.4l8.5,25.7c0,0.1,0,0.1,0,0.2
		c0,0.2-0.1,0.3-0.4,0.3h-1.2C183,497,182.9,496.9,182.8,496.6z M169.6,489.8l0.1,0.1h10.6c0.1,0,0.1,0,0.1-0.1s0-0.1,0-0.1
		l-5.4-16.6c0-0.1-0.1-0.1-0.1-0.1s-0.1,0-0.1,0.1l-5.3,16.6C169.6,489.7,169.6,489.8,169.6,489.8z"/>
	<path class="st0" d="M203.6,470.5c0.1,0.1,0.1,0.2,0.1,0.3v0.9c0,0.1,0,0.2-0.1,0.3c-0.1,0.1-0.2,0.1-0.3,0.1h-7.5
		c-0.1,0-0.2,0.1-0.2,0.2v24.2c0,0.1,0,0.2-0.1,0.3c-0.1,0.1-0.2,0.1-0.3,0.1h-1.1c-0.1,0-0.2,0-0.3-0.1s-0.1-0.2-0.1-0.3v-24.2
		c0-0.1-0.1-0.2-0.2-0.2h-7.1c-0.1,0-0.2,0-0.3-0.1s-0.1-0.2-0.1-0.3v-0.9c0-0.1,0-0.2,0.1-0.3c0.1-0.1,0.2-0.1,0.3-0.1h17
		C203.4,470.4,203.5,470.4,203.6,470.5z"/>
	<path class="st0" d="M209.5,496.9c-0.1-0.1-0.1-0.2-0.1-0.3v-25.7c0-0.1,0-0.2,0.1-0.3s0.2-0.1,0.3-0.1h1.1c0.1,0,0.2,0,0.3,0.1
		s0.1,0.2,0.1,0.3v25.7c0,0.1,0,0.2-0.1,0.3s-0.2,0.1-0.3,0.1h-1.1C209.7,497,209.6,497,209.5,496.9z"/>
	<path class="st0" d="M234.3,496.6l-1.6-5c0-0.1-0.1-0.1-0.2-0.1h-11.9c-0.1,0-0.1,0-0.2,0.1l-1.6,5c-0.1,0.3-0.2,0.4-0.5,0.4h-1.2
		c-0.2,0-0.3,0-0.3-0.1s-0.1-0.2,0-0.4l8.4-25.7c0.1-0.3,0.2-0.4,0.5-0.4h1.6c0.3,0,0.4,0.1,0.5,0.4l8.5,25.7c0,0.1,0,0.1,0,0.2
		c0,0.2-0.1,0.3-0.4,0.3h-1.2C234.5,497,234.3,496.9,234.3,496.6z M221.1,489.8l0.1,0.1h10.6c0.1,0,0.1,0,0.1-0.1s0-0.1,0-0.1
		l-5.4-16.6c0-0.1-0.1-0.1-0.1-0.1s-0.1,0-0.1,0.1l-5.3,16.6C221,489.7,221.1,489.8,221.1,489.8z"/>
	<path class="st0" d="M241.8,496.9c-0.1-0.1-0.1-0.2-0.1-0.3v-25.7c0-0.1,0-0.2,0.1-0.3s0.2-0.1,0.3-0.1h1.1c0.1,0,0.2,0,0.3,0.1
		s0.1,0.2,0.1,0.3v24.2c0,0.1,0.1,0.2,0.2,0.2h13.6c0.1,0,0.2,0,0.3,0.1c0.1,0.1,0.1,0.2,0.1,0.3v0.9c0,0.1,0,0.2-0.1,0.3
		c-0.1,0.1-0.2,0.1-0.3,0.1h-15.3C242,497,241.9,497,241.8,496.9z"/>
	<path class="st0" d="M270.9,496.9c-0.1-0.1-0.1-0.2-0.1-0.3v-25.7c0-0.1,0-0.2,0.1-0.3s0.2-0.1,0.3-0.1h8.7c2.4,0,4.4,0.6,5.8,1.9
		s2.1,3,2.1,5.2v12.3c0,2.2-0.7,3.9-2.1,5.2c-1.4,1.3-3.3,1.9-5.8,1.9h-8.7C271.1,497,271,497,270.9,496.9z M272.9,495.2h7.1
		c1.8,0,3.2-0.5,4.2-1.5s1.6-2.4,1.6-4.1v-11.9c0-1.7-0.5-3.1-1.5-4.1s-2.4-1.5-4.2-1.5H273c-0.1,0-0.2,0.1-0.2,0.2V495
		C272.8,495.2,272.8,495.2,272.9,495.2z"/>
	<path class="st0" d="M311.1,472.1c-0.1,0.1-0.2,0.1-0.3,0.1h-14.3c-0.1,0-0.2,0.1-0.2,0.2v10.3c0,0.1,0.1,0.2,0.2,0.2h10.1
		c0.1,0,0.2,0,0.3,0.1c0.1,0.1,0.1,0.2,0.1,0.3v0.9c0,0.1,0,0.2-0.1,0.3c-0.1,0.1-0.2,0.1-0.3,0.1h-10.1c-0.1,0-0.2,0.1-0.2,0.2
		v10.4c0,0.1,0.1,0.2,0.2,0.2h14.3c0.1,0,0.2,0,0.3,0.1c0.1,0.1,0.1,0.2,0.1,0.3v0.9c0,0.1,0,0.2-0.1,0.3c-0.1,0.1-0.2,0.1-0.3,0.1
		h-16c-0.1,0-0.2,0-0.3-0.1s-0.1-0.2-0.1-0.3V471c0-0.1,0-0.2,0.1-0.3s0.2-0.1,0.3-0.1h16c0.1,0,0.2,0,0.3,0.1
		c0.1,0.1,0.1,0.2,0.1,0.3v0.9C311.2,471.9,311.2,472,311.1,472.1z"/>
	<path class="st0" d="M324.1,496.6l-8.4-25.7c0,0,0-0.1,0-0.2c0-0.2,0.1-0.3,0.4-0.3h1.2c0.3,0,0.4,0.1,0.5,0.4l7.4,23.1
		c0,0.1,0.1,0.1,0.1,0.1c0.1,0,0.1,0,0.1-0.1l7.4-23.1c0.1-0.3,0.2-0.4,0.5-0.4h1.1c0.2,0,0.3,0,0.3,0.1c0.1,0.1,0.1,0.2,0,0.4
		l-8.4,25.7c-0.1,0.3-0.2,0.4-0.5,0.4h-1.3C324.3,497,324.1,496.9,324.1,496.6z"/>
	<path class="st0" d="M356.3,472.1c-0.1,0.1-0.2,0.1-0.3,0.1h-14.3c-0.1,0-0.2,0.1-0.2,0.2v10.3c0,0.1,0.1,0.2,0.2,0.2h10.1
		c0.1,0,0.2,0,0.3,0.1c0.1,0.1,0.1,0.2,0.1,0.3v0.9c0,0.1,0,0.2-0.1,0.3c-0.1,0.1-0.2,0.1-0.3,0.1h-10.1c-0.1,0-0.2,0.1-0.2,0.2
		v10.4c0,0.1,0.1,0.2,0.2,0.2H356c0.1,0,0.2,0,0.3,0.1c0.1,0.1,0.1,0.2,0.1,0.3v0.9c0,0.1,0,0.2-0.1,0.3c-0.1,0.1-0.2,0.1-0.3,0.1
		h-16c-0.1,0-0.2,0-0.3-0.1s-0.1-0.2-0.1-0.3V471c0-0.1,0-0.2,0.1-0.3s0.2-0.1,0.3-0.1h16c0.1,0,0.2,0,0.3,0.1
		c0.1,0.1,0.1,0.2,0.1,0.3v0.9C356.5,471.9,356.4,472,356.3,472.1z"/>
	<path class="st0" d="M362.9,496.9c-0.1-0.1-0.1-0.2-0.1-0.3v-25.7c0-0.1,0-0.2,0.1-0.3s0.2-0.1,0.3-0.1h1.1c0.1,0,0.2,0,0.3,0.1
		s0.1,0.2,0.1,0.3v24.2c0,0.1,0.1,0.2,0.2,0.2h13.6c0.1,0,0.2,0,0.3,0.1c0.1,0.1,0.1,0.2,0.1,0.3v0.9c0,0.1,0,0.2-0.1,0.3
		c-0.1,0.1-0.2,0.1-0.3,0.1h-15.3C363.1,497,363,497,362.9,496.9z"/>
	<path class="st0" d="M387.5,496.2c-1.3-0.7-2.4-1.7-3.1-3s-1.1-2.8-1.1-4.5v-10c0-1.7,0.4-3.2,1.1-4.5s1.7-2.3,3.1-3
		c1.3-0.7,2.9-1.1,4.6-1.1s3.3,0.4,4.6,1.1c1.3,0.7,2.4,1.7,3.1,3s1.1,2.8,1.1,4.5v10c0,1.7-0.4,3.2-1.1,4.5s-1.8,2.3-3.1,3
		c-1.3,0.7-2.9,1.1-4.6,1.1C390.4,497.3,388.8,496.9,387.5,496.2z M397.1,493.7c1.3-1.2,1.9-2.9,1.9-4.9v-10.1c0-2-0.6-3.7-1.9-4.9
		c-1.3-1.3-2.9-1.9-5-1.9c-2,0-3.7,0.6-4.9,1.9c-1.2,1.3-1.9,2.9-1.9,4.9v10.1c0,2.1,0.6,3.7,1.9,4.9c1.2,1.2,2.9,1.9,4.9,1.9
		C394.2,495.6,395.8,494.9,397.1,493.7z"/>
	<path class="st0" d="M422.9,472.3c1.3,1.3,2,3.1,2,5.3c0,2.2-0.7,3.9-2,5.2s-3.1,2-5.3,2h-7.9c-0.1,0-0.2,0.1-0.2,0.2v11.6
		c0,0.1,0,0.2-0.1,0.3c-0.1,0.1-0.2,0.1-0.3,0.1H408c-0.1,0-0.2,0-0.3-0.1c-0.1-0.1-0.1-0.2-0.1-0.3v-25.8c0-0.1,0-0.2,0.1-0.3
		c0.1-0.1,0.2-0.1,0.3-0.1h9.7C419.9,470.3,421.6,471,422.9,472.3z M421.4,481.6c1-1,1.5-2.3,1.5-3.9s-0.5-3-1.5-4s-2.3-1.5-3.9-1.5
		h-7.8c-0.1,0-0.2,0.1-0.2,0.2V483c0,0.1,0.1,0.2,0.2,0.2h7.8C419.2,483.1,420.5,482.6,421.4,481.6z"/>
	<path class="st0" d="M430.4,496.9c-0.1-0.1-0.1-0.2-0.1-0.3v-25.7c0-0.1,0-0.2,0.1-0.3c0.1-0.1,0.2-0.1,0.3-0.1h1.2
		c0.2,0,0.4,0.1,0.5,0.3l7.3,11.6h0.1h0.1l7.4-11.6c0.1-0.2,0.3-0.3,0.5-0.3h1.2c0.1,0,0.2,0,0.3,0.1c0.1,0.1,0.1,0.2,0.1,0.3v25.7
		c0,0.1,0,0.2-0.1,0.3c-0.1,0.1-0.2,0.1-0.3,0.1h-1c-0.1,0-0.2,0-0.3-0.1s-0.1-0.2-0.1-0.3v-22.2c0-0.1,0-0.1-0.1-0.1
		s-0.1,0-0.1,0.1l-6.6,10.4c-0.1,0.2-0.3,0.3-0.5,0.3h-0.6c-0.2,0-0.4-0.1-0.5-0.3l-6.6-10.4c0-0.1-0.1-0.1-0.1-0.1
		c-0.1,0-0.1,0.1-0.1,0.1v22.2c0,0.1,0,0.2-0.1,0.3c-0.1,0.1-0.2,0.1-0.3,0.1h-1.1C430.6,497,430.5,497,430.4,496.9z"/>
	<path class="st0" d="M473.6,472.1c-0.1,0.1-0.2,0.1-0.3,0.1H459c-0.1,0-0.2,0.1-0.2,0.2v10.3c0,0.1,0.1,0.2,0.2,0.2h10.1
		c0.1,0,0.2,0,0.3,0.1c0.1,0.1,0.1,0.2,0.1,0.3v0.9c0,0.1,0,0.2-0.1,0.3c-0.1,0.1-0.2,0.1-0.3,0.1H459c-0.1,0-0.2,0.1-0.2,0.2v10.4
		c0,0.1,0.1,0.2,0.2,0.2h14.3c0.1,0,0.2,0,0.3,0.1c0.1,0.1,0.1,0.2,0.1,0.3v0.9c0,0.1,0,0.2-0.1,0.3c-0.1,0.1-0.2,0.1-0.3,0.1h-16
		c-0.1,0-0.2,0-0.3-0.1s-0.1-0.2-0.1-0.3V471c0-0.1,0-0.2,0.1-0.3s0.2-0.1,0.3-0.1h16c0.1,0,0.2,0,0.3,0.1c0.1,0.1,0.1,0.2,0.1,0.3
		v0.9C473.7,471.9,473.7,472,473.6,472.1z"/>
	<path class="st0" d="M480.1,496.9c-0.1-0.1-0.1-0.2-0.1-0.3v-25.7c0-0.1,0-0.2,0.1-0.3s0.2-0.1,0.3-0.1h1.1c0.3,0,0.4,0.1,0.5,0.3
		l13.6,22.1c0,0.1,0.1,0.1,0.1,0.1l0.1-0.1V471c0-0.1,0-0.2,0.1-0.3s0.2-0.1,0.3-0.1h1.1c0.1,0,0.2,0,0.3,0.1s0.1,0.2,0.1,0.3v25.7
		c0,0.1,0,0.2-0.1,0.3s-0.2,0.1-0.3,0.1h-1.1c-0.3,0-0.4-0.1-0.5-0.3l-13.6-22.2c0-0.1-0.1-0.1-0.1-0.1l-0.1,0.1v22
		c0,0.1,0,0.2-0.1,0.3s-0.2,0.1-0.3,0.1h-1.1C480.3,497,480.2,497,480.1,496.9z"/>
	<path class="st0" d="M521.4,470.5c0.1,0.1,0.1,0.2,0.1,0.3v0.9c0,0.1,0,0.2-0.1,0.3c-0.1,0.1-0.2,0.1-0.3,0.1h-7.5
		c-0.1,0-0.2,0.1-0.2,0.2v24.2c0,0.1,0,0.2-0.1,0.3s-0.2,0.1-0.3,0.1h-1.1c-0.1,0-0.2,0-0.3-0.1s-0.1-0.2-0.1-0.3v-24.2
		c0-0.1-0.1-0.2-0.2-0.2h-7.1c-0.1,0-0.2,0-0.3-0.1c-0.1-0.1-0.1-0.2-0.1-0.3v-0.9c0-0.1,0-0.2,0.1-0.3s0.2-0.1,0.3-0.1h17
		C521.2,470.4,521.3,470.4,521.4,470.5z"/>
	<path class="st0" d="M553,496.7c0,0.2-0.1,0.3-0.4,0.3h-1.3c-0.2,0-0.4-0.1-0.6-0.3l-2.4-2.9l-0.1-0.1c-0.1,0-0.1,0-0.1,0.1
		c-1.2,1.2-2.5,2.1-3.6,2.7s-2.5,0.8-4.1,0.8c-2.2,0-4-0.5-5.3-1.6c-1.3-1-2-2.5-2-4.4c0-1.7,0.5-3.2,1.5-4.5s2.4-2.6,4.3-3.9
		c0.1-0.1,0.1-0.1,0-0.2c-1.5-1.9-2.5-3.3-3-4.2c-0.5-0.9-0.7-1.8-0.7-2.7c0-1.7,0.6-3.1,1.7-4.1c1.1-1.1,2.6-1.6,4.4-1.6
		c1.8,0,3.3,0.5,4.5,1.5s1.7,2.3,1.7,4c0,1.5-0.5,2.9-1.4,4c-1,1.1-2.3,2.3-4.1,3.6c-0.1,0.1-0.1,0.1,0,0.2c1.1,1.4,2.5,3.1,4.2,5
		c0.9,1.1,1.6,1.9,2.1,2.5c0.1,0.1,0.2,0.1,0.2,0c0.6-0.8,1.4-1.8,2.5-3.3c0.2-0.2,0.4-0.3,0.6-0.1l0.8,0.5c0.3,0.2,0.3,0.4,0.2,0.6
		c-0.9,1.4-1.9,2.6-2.9,3.8v0.1c0,0.1,0,0.2,0.2,0.3l3.2,3.8C553,496.5,553,496.6,553,496.7z M543.9,494.8c1-0.5,2.1-1.3,3.1-2.4
		c0.1-0.1,0.1-0.2,0-0.2c-0.9-1-1.5-1.8-1.8-2.2c-0.7-0.8-1.1-1.3-1.2-1.4l-3.6-4.2c0-0.1-0.1-0.1-0.2,0c-1.6,1.2-2.8,2.3-3.7,3.3
		c-0.8,1-1.3,2.2-1.3,3.6c0,1.3,0.5,2.4,1.4,3.2s2.2,1.1,3.8,1.1C541.7,495.5,542.8,495.3,543.9,494.8z M538.4,473
		c-0.7,0.7-1.1,1.6-1.1,2.8c0,0.7,0.2,1.4,0.6,2.1s1.3,2,2.7,3.7c0.1,0.1,0.2,0.1,0.2,0c1.5-1.1,2.7-2.1,3.5-3s1.2-2,1.2-3.1
		s-0.4-2-1.2-2.6c-0.8-0.7-1.8-1-3-1C540.1,472,539.1,472.3,538.4,473z"/>
	<path class="st0" d="M570.4,496.3c-1.3-0.7-2.3-1.7-3.1-2.9s-1.1-2.7-1.1-4.3v-10.8c0-1.6,0.4-3,1.1-4.3s1.7-2.2,3.1-2.9
		s2.8-1,4.6-1c1.7,0,3.2,0.3,4.5,1s2.3,1.6,3.1,2.8c0.7,1.2,1.1,2.6,1.1,4.2c0,0.1,0,0.2-0.1,0.3c-0.1,0.1-0.2,0.1-0.3,0.1h-1.1
		c-0.3,0-0.5-0.1-0.5-0.2v-0.2c0-1.9-0.6-3.4-1.8-4.6s-2.8-1.7-4.8-1.7s-3.6,0.6-4.9,1.7s-1.8,2.7-1.8,4.6v11c0,1.9,0.6,3.4,1.8,4.6
		s2.8,1.7,4.8,1.7s3.6-0.6,4.8-1.7c1.2-1.2,1.8-2.7,1.8-4.6c0-0.3,0.2-0.4,0.5-0.4h1.1c0.3,0,0.5,0.1,0.5,0.2v0.2
		c0,1.6-0.4,3-1.1,4.2s-1.7,2.2-3.1,2.9c-1.3,0.7-2.8,1-4.5,1C573.2,497.3,571.7,497,570.4,496.3z"/>
	<path class="st0" d="M605.3,496.6l-1.6-5c0-0.1-0.1-0.1-0.2-0.1h-11.9c-0.1,0-0.1,0-0.2,0.1l-1.6,5c-0.1,0.3-0.2,0.4-0.5,0.4h-1.2
		c-0.2,0-0.3,0-0.3-0.1c-0.1-0.1-0.1-0.2,0-0.4l8.4-25.7c0.1-0.3,0.2-0.4,0.5-0.4h1.6c0.3,0,0.4,0.1,0.5,0.4l8.5,25.7
		c0,0.1,0,0.1,0,0.2c0,0.2-0.1,0.3-0.4,0.3h-1.2C605.6,497,605.4,496.9,605.3,496.6z M592.2,489.8l0.1,0.1h10.6c0,0,0.1,0,0.1-0.1
		s0-0.1,0-0.1l-5.4-16.6c0-0.1-0.1-0.1-0.1-0.1s-0.1,0-0.1,0.1l-5.3,16.6C592.1,489.7,592.1,489.8,592.2,489.8z"/>
	<path class="st0" d="M628,496.7l-5.9-12.1c0-0.1-0.1-0.1-0.2-0.1h-7.1c-0.1,0-0.2,0.1-0.2,0.2v11.9c0,0.1,0,0.2-0.1,0.3
		s-0.2,0.1-0.3,0.1h-1.1c-0.1,0-0.2,0-0.3-0.1s-0.1-0.2-0.1-0.3v-25.8c0-0.1,0-0.2,0.1-0.3s0.2-0.1,0.3-0.1h9.5c2.1,0,3.8,0.7,5.1,2
		s2,3,2,5.2c0,1.8-0.5,3.4-1.5,4.6s-2.3,2-4,2.3c-0.1,0.1-0.2,0.1-0.1,0.2l5.8,12c0.1,0.1,0.1,0.2,0.1,0.2c0,0.2-0.1,0.3-0.4,0.3
		h-1.1C628.3,497,628.1,496.9,628,496.7z M614.7,472.3v10.3c0,0.1,0.1,0.2,0.2,0.2h7.6c1.6,0,2.8-0.5,3.8-1.5s1.5-2.2,1.5-3.8
		c0-1.6-0.5-2.9-1.5-3.9s-2.2-1.5-3.8-1.5h-7.6C614.8,472.1,614.7,472.2,614.7,472.3z"/>
	<path class="st0" d="M651.6,470.5c0.1,0.1,0.1,0.2,0.1,0.3v0.9c0,0.1,0,0.2-0.1,0.3c-0.1,0.1-0.2,0.1-0.3,0.1h-7.5
		c-0.1,0-0.2,0.1-0.2,0.2v24.2c0,0.1,0,0.2-0.1,0.3s-0.2,0.1-0.3,0.1h-1.1c-0.1,0-0.2,0-0.3-0.1s-0.1-0.2-0.1-0.3v-24.2
		c0-0.1-0.1-0.2-0.2-0.2h-7.1c-0.1,0-0.2,0-0.3-0.1s-0.1-0.2-0.1-0.3v-0.9c0-0.1,0-0.2,0.1-0.3s0.2-0.1,0.3-0.1h17
		C651.4,470.4,651.5,470.4,651.6,470.5z"/>
	<path class="st0" d="M658.7,496.2c-1.3-0.7-2.4-1.7-3.1-3c-0.7-1.3-1.1-2.8-1.1-4.5v-10c0-1.7,0.4-3.2,1.1-4.5
		c0.7-1.3,1.7-2.3,3.1-3c1.3-0.7,2.9-1.1,4.6-1.1s3.3,0.4,4.6,1.1s2.4,1.7,3.1,3c0.7,1.3,1.1,2.8,1.1,4.5v10c0,1.7-0.4,3.2-1.1,4.5
		c-0.7,1.3-1.8,2.3-3.1,3s-2.9,1.1-4.6,1.1S660,496.9,658.7,496.2z M668.3,493.7c1.3-1.2,1.9-2.9,1.9-4.9v-10.1c0-2-0.6-3.7-1.9-4.9
		s-2.9-1.9-5-1.9c-2,0-3.7,0.6-4.9,1.9s-1.9,2.9-1.9,4.9v10.1c0,2.1,0.6,3.7,1.9,4.9s2.9,1.9,4.9,1.9
		C665.4,495.6,667,494.9,668.3,493.7z"/>
	<path class="st0" d="M682.3,496.3c-1.3-0.7-2.3-1.6-3.1-2.9s-1.1-2.6-1.1-4.2v-10.9c0-1.6,0.4-3,1.1-4.3s1.7-2.2,3.1-2.9
		c1.3-0.7,2.8-1,4.6-1c1.7,0,3.2,0.3,4.5,1s2.3,1.6,3,2.8c0.7,1.2,1.1,2.6,1.1,4.1v0.5c0,0.1,0,0.2-0.1,0.3
		c-0.1,0.1-0.2,0.1-0.3,0.1H694c-0.1,0-0.2,0-0.3-0.1s-0.1-0.2-0.1-0.3V478c0-1.8-0.6-3.3-1.8-4.4s-2.8-1.7-4.8-1.7
		s-3.6,0.6-4.8,1.7c-1.2,1.2-1.8,2.7-1.8,4.5v11.1c0,1.9,0.6,3.4,1.8,4.5c1.2,1.2,2.9,1.7,4.9,1.7s3.6-0.6,4.8-1.7s1.8-2.6,1.8-4.4
		v-3.8c0-0.1-0.1-0.2-0.2-0.2h-5.9c-0.1,0-0.2,0-0.3-0.1s-0.1-0.2-0.1-0.3V484c0-0.1,0-0.2,0.1-0.3c0.1-0.1,0.2-0.1,0.3-0.1h7.6
		c0.1,0,0.2,0,0.3,0.1s0.1,0.2,0.1,0.3v4.9c0,2.6-0.8,4.6-2.4,6.1c-1.6,1.5-3.7,2.2-6.3,2.2C685.1,497.3,683.6,497,682.3,496.3z"/>
	<path class="st0" d="M717.3,496.7l-5.9-12.1c0-0.1-0.1-0.1-0.2-0.1h-7.1c-0.1,0-0.2,0.1-0.2,0.2v11.9c0,0.1,0,0.2-0.1,0.3
		s-0.2,0.1-0.3,0.1h-1.1c-0.1,0-0.2,0-0.3-0.1s-0.1-0.2-0.1-0.3v-25.8c0-0.1,0-0.2,0.1-0.3s0.2-0.1,0.3-0.1h9.5c2.1,0,3.8,0.7,5.1,2
		s2,3,2,5.2c0,1.8-0.5,3.4-1.5,4.6s-2.3,2-4,2.3c-0.1,0.1-0.2,0.1-0.1,0.2l5.8,12c0.1,0.1,0.1,0.2,0.1,0.2c0,0.2-0.1,0.3-0.4,0.3
		h-1.1C717.7,497,717.5,496.9,717.3,496.7z M704,472.3v10.3c0,0.1,0.1,0.2,0.2,0.2h7.6c1.6,0,2.8-0.5,3.8-1.5s1.5-2.2,1.5-3.8
		c0-1.6-0.5-2.9-1.5-3.9s-2.2-1.5-3.8-1.5h-7.6C704.1,472.1,704,472.2,704,472.3z"/>
	<path class="st0" d="M742,496.6l-1.6-5c0-0.1-0.1-0.1-0.2-0.1h-11.9c-0.1,0-0.1,0-0.2,0.1l-1.6,5c-0.1,0.3-0.2,0.4-0.5,0.4h-1.2
		c-0.2,0-0.3,0-0.3-0.1c-0.1-0.1-0.1-0.2,0-0.4l8.4-25.7c0.1-0.3,0.2-0.4,0.5-0.4h1.6c0.3,0,0.4,0.1,0.5,0.4l8.5,25.7
		c0,0.1,0,0.1,0,0.2c0,0.2-0.1,0.3-0.4,0.3h-1.2C742.2,497,742,496.9,742,496.6z M728.8,489.8l0.1,0.1h10.6c0,0,0.1,0,0.1-0.1
		s0-0.1,0-0.1l-5.4-16.6c0-0.1-0.1-0.1-0.1-0.1s-0.1,0-0.1,0.1l-5.3,16.6C728.8,489.7,728.8,489.8,728.8,489.8z"/>
	<path class="st0" d="M764.4,472.3c1.3,1.3,2,3.1,2,5.3c0,2.2-0.7,3.9-2,5.2s-3.1,2-5.3,2h-7.9c-0.1,0-0.2,0.1-0.2,0.2v11.6
		c0,0.1,0,0.2-0.1,0.3c-0.1,0.1-0.2,0.1-0.3,0.1h-1.1c-0.1,0-0.2,0-0.3-0.1s-0.1-0.2-0.1-0.3v-25.8c0-0.1,0-0.2,0.1-0.3
		c0.1-0.1,0.2-0.1,0.3-0.1h9.7C761.4,470.3,763.1,471,764.4,472.3z M762.9,481.6c1-1,1.5-2.3,1.5-3.9s-0.5-3-1.5-4s-2.3-1.5-3.9-1.5
		h-7.8c-0.1,0-0.2,0.1-0.2,0.2V483c0,0.1,0.1,0.2,0.2,0.2h7.8C760.7,483.1,762,482.6,762.9,481.6z"/>
	<path class="st0" d="M787.3,470.5c0.1-0.1,0.2-0.1,0.3-0.1h1.1c0.1,0,0.2,0,0.3,0.1s0.1,0.2,0.1,0.3v25.7c0,0.1,0,0.2-0.1,0.3
		c-0.1,0.1-0.2,0.1-0.3,0.1h-1.1c-0.1,0-0.2,0-0.3-0.1s-0.1-0.2-0.1-0.3v-11.9c0-0.1-0.1-0.2-0.2-0.2h-13.1c-0.1,0-0.2,0.1-0.2,0.2
		v11.9c0,0.1,0,0.2-0.1,0.3s-0.2,0.1-0.3,0.1h-1.1c-0.1,0-0.2,0-0.3-0.1s-0.1-0.2-0.1-0.3v-25.7c0-0.1,0-0.2,0.1-0.3
		s0.2-0.1,0.3-0.1h1.1c0.1,0,0.2,0,0.3,0.1s0.1,0.2,0.1,0.3v11.7c0,0.1,0.1,0.2,0.2,0.2H787c0.1,0,0.2-0.1,0.2-0.2v-11.7
		C787.2,470.7,787.2,470.6,787.3,470.5z"/>
	<path class="st0" d="M797,496.9c-0.1-0.1-0.1-0.2-0.1-0.3v-25.7c0-0.1,0-0.2,0.1-0.3s0.2-0.1,0.3-0.1h1.1c0.1,0,0.2,0,0.3,0.1
		s0.1,0.2,0.1,0.3v25.7c0,0.1,0,0.2-0.1,0.3s-0.2,0.1-0.3,0.1h-1.1C797.2,497,797.1,497,797,496.9z"/>
	<path class="st0" d="M810,496.3c-1.3-0.7-2.3-1.7-3.1-2.9s-1.1-2.7-1.1-4.3v-10.8c0-1.6,0.4-3,1.1-4.3s1.7-2.2,3.1-2.9s2.8-1,4.6-1
		c1.7,0,3.2,0.3,4.5,1s2.3,1.6,3.1,2.8c0.7,1.2,1.1,2.6,1.1,4.2c0,0.1,0,0.2-0.1,0.3c-0.1,0.1-0.2,0.1-0.3,0.1h-1.1
		c-0.3,0-0.5-0.1-0.5-0.2v-0.2c0-1.9-0.6-3.4-1.8-4.6s-2.8-1.7-4.8-1.7s-3.6,0.6-4.9,1.7s-1.8,2.7-1.8,4.6v11c0,1.9,0.6,3.4,1.8,4.6
		s2.8,1.7,4.8,1.7s3.6-0.6,4.8-1.7c1.2-1.2,1.8-2.7,1.8-4.6c0-0.3,0.2-0.4,0.5-0.4h1.1c0.3,0,0.5,0.1,0.5,0.2v0.2
		c0,1.6-0.4,3-1.1,4.2s-1.7,2.2-3.1,2.9c-1.3,0.7-2.8,1-4.5,1C812.8,497.3,811.3,497,810,496.3z"/>
	<path class="st0" d="M837.5,496.9c-0.1-0.1-0.1-0.2-0.1-0.3v-25.7c0-0.1,0-0.2,0.1-0.3s0.2-0.1,0.3-0.1h8.7c2.4,0,4.4,0.6,5.8,1.9
		s2.1,3,2.1,5.2v12.3c0,2.2-0.7,3.9-2.1,5.2s-3.3,1.9-5.8,1.9h-8.7C837.7,497,837.6,497,837.5,496.9z M839.5,495.2h7.1
		c1.8,0,3.2-0.5,4.2-1.5s1.6-2.4,1.6-4.1v-11.9c0-1.7-0.5-3.1-1.5-4.1s-2.4-1.5-4.2-1.5h-7.1c-0.1,0-0.2,0.1-0.2,0.2V495
		C839.4,495.2,839.4,495.2,839.5,495.2z"/>
	<path class="st0" d="M877.7,472.1c-0.1,0.1-0.2,0.1-0.3,0.1H863c-0.1,0-0.2,0.1-0.2,0.2v10.3c0,0.1,0.1,0.2,0.2,0.2h10.1
		c0.1,0,0.2,0,0.3,0.1s0.1,0.2,0.1,0.3v0.9c0,0.1,0,0.2-0.1,0.3s-0.2,0.1-0.3,0.1H863c-0.1,0-0.2,0.1-0.2,0.2v10.4
		c0,0.1,0.1,0.2,0.2,0.2h14.3c0.1,0,0.2,0,0.3,0.1s0.1,0.2,0.1,0.3v0.9c0,0.1,0,0.2-0.1,0.3c-0.1,0.1-0.2,0.1-0.3,0.1h-16
		c-0.1,0-0.2,0-0.3-0.1s-0.1-0.2-0.1-0.3V471c0-0.1,0-0.2,0.1-0.3s0.2-0.1,0.3-0.1h16c0.1,0,0.2,0,0.3,0.1s0.1,0.2,0.1,0.3v0.9
		C877.8,471.9,877.7,472,877.7,472.1z"/>
	<path class="st0" d="M884.9,495.4c-1.6-1.3-2.4-2.9-2.4-5v-1.2c0-0.1,0-0.2,0.1-0.3c0.1-0.1,0.2-0.1,0.3-0.1h1c0.1,0,0.2,0,0.3,0.1
		s0.1,0.2,0.1,0.3v1.1c0,1.6,0.6,2.8,1.9,3.8s3,1.4,5.2,1.4c2.1,0,3.7-0.4,4.8-1.3s1.7-2.1,1.7-3.6c0-0.9-0.2-1.8-0.7-2.5
		s-1.2-1.3-2.3-2s-2.5-1.3-4.3-2.1c-2-0.8-3.5-1.5-4.5-2.1s-1.8-1.3-2.4-2.1c-0.6-0.8-0.9-1.9-0.9-3.3c0-2.1,0.7-3.7,2.1-4.8
		c1.4-1.1,3.4-1.7,5.9-1.7c2.8,0,5,0.6,6.5,1.9c1.6,1.3,2.3,3,2.3,5.1v0.8c0,0.1,0,0.2-0.1,0.3s-0.2,0.1-0.3,0.1h-1.1
		c-0.1,0-0.2,0-0.3-0.1s-0.1-0.2-0.1-0.3v-0.7c0-1.6-0.6-2.9-1.8-3.9s-2.9-1.5-5.1-1.5c-1.9,0-3.4,0.4-4.4,1.2s-1.6,1.9-1.6,3.4
		c0,1,0.2,1.8,0.7,2.5s1.2,1.2,2.1,1.7c0.9,0.5,2.3,1.1,4.2,1.8c1.9,0.8,3.4,1.5,4.5,2.2c1.2,0.7,2.1,1.5,2.7,2.5
		c0.7,0.9,1,2.1,1,3.4c0,2.1-0.8,3.7-2.3,4.9c-1.5,1.2-3.6,1.9-6.4,1.9S886.6,496.7,884.9,495.4z"/>
	<path class="st0" d="M906.4,496.9c-0.1-0.1-0.1-0.2-0.1-0.3v-25.7c0-0.1,0-0.2,0.1-0.3s0.2-0.1,0.3-0.1h1.1c0.1,0,0.2,0,0.3,0.1
		s0.1,0.2,0.1,0.3v25.7c0,0.1,0,0.2-0.1,0.3s-0.2,0.1-0.3,0.1h-1.1C906.6,497,906.5,497,906.4,496.9z"/>
	<path class="st0" d="M919.3,496.3c-1.3-0.7-2.3-1.6-3.1-2.9s-1.1-2.6-1.1-4.2v-10.9c0-1.6,0.4-3,1.1-4.3s1.7-2.2,3.1-2.9
		c1.3-0.7,2.8-1,4.6-1c1.7,0,3.2,0.3,4.5,1s2.3,1.6,3,2.8c0.7,1.2,1.1,2.6,1.1,4.1v0.5c0,0.1,0,0.2-0.1,0.3
		c-0.1,0.1-0.2,0.1-0.3,0.1H931c-0.1,0-0.2,0-0.3-0.1s-0.1-0.2-0.1-0.3V478c0-1.8-0.6-3.3-1.8-4.4s-2.8-1.7-4.8-1.7
		s-3.6,0.6-4.8,1.7c-1.2,1.2-1.8,2.7-1.8,4.5v11.1c0,1.9,0.6,3.4,1.8,4.5c1.2,1.2,2.9,1.7,4.9,1.7s3.6-0.6,4.8-1.7s1.8-2.6,1.8-4.4
		v-3.8c0-0.1-0.1-0.2-0.2-0.2h-5.9c-0.1,0-0.2,0-0.3-0.1s-0.1-0.2-0.1-0.3V484c0-0.1,0-0.2,0.1-0.3c0.1-0.1,0.2-0.1,0.3-0.1h7.6
		c0.1,0,0.2,0,0.3,0.1s0.1,0.2,0.1,0.3v4.9c0,2.6-0.8,4.6-2.4,6.1c-1.6,1.5-3.7,2.2-6.3,2.2C922.2,497.3,920.6,497,919.3,496.3z"/>
	<path class="st0" d="M939.2,496.9c-0.1-0.1-0.1-0.2-0.1-0.3v-25.7c0-0.1,0-0.2,0.1-0.3s0.2-0.1,0.3-0.1h1.1c0.3,0,0.4,0.1,0.5,0.3
		l13.6,22.1c0,0.1,0.1,0.1,0.1,0.1l0.1-0.1V471c0-0.1,0-0.2,0.1-0.3s0.2-0.1,0.3-0.1h1.1c0.1,0,0.2,0,0.3,0.1s0.1,0.2,0.1,0.3v25.7
		c0,0.1,0,0.2-0.1,0.3s-0.2,0.1-0.3,0.1h-1.1c-0.3,0-0.4-0.1-0.5-0.3l-13.6-22.2c0-0.1-0.1-0.1-0.1-0.1l-0.1,0.1v22
		c0,0.1,0,0.2-0.1,0.3s-0.2,0.1-0.3,0.1h-1.1C939.4,497,939.3,497,939.2,496.9z"/>
</g>
</svg>
