<svg xmlns="http://www.w3.org/2000/svg" height="512" width="512" style=""><rect id="backgroundrect" width="100%" height="100%" x="0" y="0" fill="none" stroke="none"/><g class="currentLayer" style=""><title>Layer 1</title><path d="m418.132812 256c0 89.542969-72.589843 162.132812-162.132812 162.132812s-162.132812-72.589843-162.132812-162.132812 72.589843-162.132812 162.132812-162.132812 162.132812 72.589843 162.132812 162.132812zm0 0" fill="#919191" id="svg_1" class="" fill-opacity="1"/><g fill="#919191" id="svg_2" class="" fill-opacity="1"><path d="m256 512c-4.710938 0-8.535156-3.824219-8.535156-8.535156v-51.199219c0-4.710937 3.824218-8.53125 8.535156-8.53125s8.535156 3.820313 8.535156 8.53125v51.199219c0 4.710937-3.824218 8.535156-8.535156 8.535156zm0 0" id="svg_3" fill="#919191" fill-opacity="1"/><path d="m256 68.265625c-4.710938 0-8.535156-3.820313-8.535156-8.53125v-51.199219c0-4.710937 3.824218-8.535156 8.535156-8.535156s8.535156 3.824219 8.535156 8.535156v51.199219c0 4.710937-3.824218 8.53125-8.535156 8.53125zm0 0" id="svg_4" fill="#919191" fill-opacity="1"/><path d="m59.734375 264.535156h-51.199219c-4.710937 0-8.535156-3.824218-8.535156-8.535156s3.824219-8.535156 8.535156-8.535156h51.199219c4.710937 0 8.53125 3.824218 8.53125 8.535156s-3.820313 8.535156-8.53125 8.535156zm0 0" id="svg_5" fill="#919191" fill-opacity="1"/><path d="m503.464844 264.535156h-51.199219c-4.710937 0-8.53125-3.824218-8.53125-8.535156s3.820313-8.535156 8.53125-8.535156h51.199219c4.710937 0 8.535156 3.824218 8.535156 8.535156s-3.824219 8.535156-8.535156 8.535156zm0 0" id="svg_6" fill="#919191" fill-opacity="1"/></g><path d="m324.265625 247.464844h-51.199219l25.601563-110.929688-110.933594 128h51.199219l-25.601563 110.929688zm0 0" fill="#484848" id="svg_7" class="" fill-opacity="1"/><path d="m430.984375 439.519531c-2.183594 0-4.367187-.839843-6.03125-2.5l-36.199219-36.199219c-3.335937-3.335937-3.335937-8.730468 0-12.066406 3.335938-3.335937 8.730469-3.335937 12.066406 0l36.199219 36.199219c3.335938 3.335937 3.335938 8.726563 0 12.066406-1.664062 1.660157-3.851562 2.5-6.035156 2.5zm0 0" fill="#919191" id="svg_8" class="" fill-opacity="1"/><path d="m117.222656 125.746094c-2.183594 0-4.371094-.835938-6.035156-2.5l-36.207031-36.199219c-3.335938-3.335937-3.335938-8.726563 0-12.066406 3.328125-3.335938 8.730469-3.335938 12.066406 0l36.207031 36.199219c3.339844 3.335937 3.339844 8.730468 0 12.066406-1.664062 1.671875-3.855468 2.5-6.03125 2.5zm0 0" fill="#919191" id="svg_9" class="" fill-opacity="1"/><path d="m81.015625 439.519531c-2.183594 0-4.371094-.839843-6.035156-2.5-3.335938-3.339843-3.335938-8.730469 0-12.066406l36.207031-36.199219c3.339844-3.335937 8.738281-3.335937 12.066406 0 3.339844 3.335938 3.339844 8.730469 0 12.066406l-36.207031 36.199219c-1.664063 1.660157-3.847656 2.5-6.03125 2.5zm0 0" fill="#919191" id="svg_10" class="" fill-opacity="1"/><path d="m394.785156 125.746094c-2.183594 0-4.367187-.835938-6.03125-2.5-3.335937-3.335938-3.335937-8.730469 0-12.066406l36.199219-36.199219c3.335937-3.335938 8.726563-3.335938 12.066406 0 3.335938 3.339843 3.335938 8.730469 0 12.066406l-36.199219 36.199219c-1.671874 1.671875-3.851562 2.5-6.035156 2.5zm0 0" fill="#b6b6b6" id="svg_11" class="" fill-opacity="1"/></g></svg>